<svg xmlns="http://www.w3.org/2000/svg" width="1400" height="500" viewBox="0 0 1100 450" version="1.1"><path d="M 366.472 128.218 C 366.203 128.923, 366.099 164.150, 366.242 206.500 L 366.500 283.500 378.500 283.500 L 390.500 283.500 390.500 205.500 L 390.500 127.500 378.731 127.218 C 369.871 127.006, 366.841 127.253, 366.472 128.218 M 409.607 128.582 C 409.273 129.452, 409 164.237, 409 205.882 C 409 263.440, 409.288 281.888, 410.200 282.800 C 410.982 283.582, 415.089 284, 422 284 C 428.911 284, 433.018 283.582, 433.800 282.800 C 434.712 281.888, 435 263.440, 435 205.882 C 435 164.237, 434.727 129.452, 434.393 128.582 C 433.887 127.263, 431.825 127, 422 127 C 412.175 127, 410.113 127.263, 409.607 128.582 M 291 173.020 C 283.893 174.488, 272.770 178.807, 269.616 181.324 L 266.732 183.625 267.462 192.381 C 268.325 202.744, 269.199 203.509, 275.904 199.768 C 288.279 192.862, 307.102 190.744, 316.038 195.250 C 321.161 197.834, 325.255 204.503, 324.783 209.500 L 324.500 212.500 305 213.082 C 288.661 213.570, 284.446 214.018, 279 215.843 C 266.301 220.100, 256.676 229.110, 253.899 239.343 C 253.252 241.726, 252.970 247.380, 253.238 252.594 C 253.984 267.116, 258.679 274.076, 272 280.410 L 278.500 283.500 313.500 283.500 L 348.500 283.500 348.500 243.500 C 348.500 208.301, 348.291 202.825, 346.759 197.876 C 343.159 186.248, 334.966 177.932, 323.651 174.420 C 317.559 172.529, 297.535 171.670, 291 173.020 M 488.402 173.486 C 472.016 177.051, 459.083 188.997, 452.331 206.803 C 450.462 211.734, 449.650 216.189, 449.255 223.695 C 448.572 236.672, 450.008 244.219, 455.159 254.731 C 461.596 267.868, 472.680 276.800, 488.552 281.644 C 493.227 283.071, 497.711 283.444, 509.500 283.390 C 523.150 283.327, 525.236 283.072, 532.678 280.552 C 544.519 276.542, 545 275.919, 545 264.583 C 545 252.297, 544.414 251.796, 535.342 256.319 C 525.655 261.148, 519.866 262.503, 509 262.482 C 500.907 262.467, 498.679 262.081, 493.954 259.881 C 490.904 258.460, 486.842 255.922, 484.928 254.242 C 481.264 251.025, 477.393 244.214, 476.832 240 L 476.500 237.500 512.913 237.237 C 539.716 237.044, 549.713 236.653, 550.792 235.758 C 551.978 234.773, 552.163 232.432, 551.756 223.520 C 550.489 195.734, 536.814 177.192, 514.566 173.093 C 506.818 171.666, 496.023 171.828, 488.402 173.486 M 607.500 173.020 C 587.572 177.009, 571.603 192.364, 565.921 213 C 564.356 218.686, 564.353 235.935, 565.917 242.469 C 567.978 251.080, 572.989 260.144, 579.361 266.788 C 590.367 278.267, 602.366 283.284, 619 283.365 C 630.320 283.420, 637.396 281.860, 646.300 277.348 L 651.186 274.872 650.843 285.263 C 650.536 294.569, 650.218 296.080, 647.799 299.731 C 645.939 302.540, 643.295 304.693, 639.299 306.654 C 633.616 309.443, 633.159 309.500, 616.500 309.500 L 599.500 309.500 599.500 320 L 599.500 330.500 621.500 330.484 C 642.120 330.469, 643.860 330.324, 649.247 328.163 C 657.283 324.941, 665.121 317.481, 669.347 309.032 C 674.518 298.698, 675.219 291.170, 674.811 250.412 L 674.462 215.500 671.764 208.056 C 663.482 185.208, 643.525 171.723, 618.566 172.110 C 614.680 172.170, 609.700 172.579, 607.500 173.020 M 727 173.121 C 709.457 177.837, 695.262 191.755, 692.020 207.418 C 691.367 210.572, 691.069 225.967, 691.234 248 L 691.500 283.500 703.500 283.500 L 715.500 283.500 716 247 C 716.479 212.011, 716.589 210.334, 718.658 206.500 C 723.717 197.126, 731.019 193.637, 744.500 194.155 L 753.500 194.500 753.784 184.306 L 754.069 174.113 750.284 173.062 C 745.698 171.788, 731.827 171.824, 727 173.121 M 801.500 172.954 C 786.371 176.231, 772.568 186.134, 765.498 198.783 C 755.888 215.976, 756.095 240.400, 765.997 257.686 C 772.169 268.462, 784.363 277.726, 797.500 281.620 C 805.631 284.029, 821.396 284.025, 829.500 281.610 C 849.349 275.696, 863.268 260.637, 867.496 240.500 C 872.377 217.249, 863.140 192.640, 845.212 181.136 C 836.252 175.386, 827.625 172.816, 816 172.434 C 810.225 172.243, 803.700 172.478, 801.500 172.954 M 497.500 193.635 C 492.887 194.755, 487.342 197.303, 485.109 199.330 C 481.035 203.028, 477 210.176, 477 213.696 L 477 217 501.031 217 C 528.161 217, 527.188 217.313, 524.944 209.299 C 523.419 203.852, 519.130 198.617, 514.084 196.043 C 510.355 194.141, 501.007 192.783, 497.500 193.635 M 614.500 193.897 C 601.231 197.326, 592.333 209.176, 591.290 224.805 C 590.170 241.601, 598.144 255.689, 611.771 260.988 C 616.493 262.824, 628.470 261.844, 633.628 259.200 C 639.785 256.044, 645.528 248.929, 648.059 241.322 C 649.851 235.939, 650.151 233.201, 649.776 225.650 C 648.825 206.449, 639.447 195.243, 623 193.653 C 619.975 193.361, 616.150 193.470, 614.500 193.897 M 808.500 193.901 C 799.816 196.132, 793.278 201.745, 788.248 211.287 C 785.733 216.058, 785.500 217.433, 785.500 227.500 C 785.500 237.331, 785.784 239.105, 788.170 244.196 C 793.820 256.250, 803.983 262.676, 816.021 261.805 C 835.192 260.418, 847.357 236.608, 840.075 214.725 C 835.275 200.301, 820.785 190.745, 808.500 193.901 M 307 233 C 295.712 233.342, 289.710 233.934, 288 234.875 C 276.037 241.455, 274.488 253.995, 284.768 261.046 C 288.195 263.396, 289.125 263.514, 306.673 263.829 L 325 264.159 325 248.638 C 325 240.102, 324.663 232.979, 324.250 232.809 C 323.837 232.639, 316.075 232.725, 307 233" stroke="none" fill="#fcf7f5" fill-rule="evenodd"/><path d="M 0 225.001 L 0 450.002 550.250 449.751 L 1100.500 449.500 1100.752 224.750 L 1101.004 0 550.502 0 L 0 0 0 225.001 M 0.491 225.500 C 0.491 349.250, 0.608 399.726, 0.750 337.670 C 0.892 275.613, 0.892 174.363, 0.750 112.670 C 0.608 50.976, 0.491 101.750, 0.491 225.500 M 366.472 128.218 C 366.203 128.923, 366.099 164.150, 366.242 206.500 L 366.500 283.500 378.500 283.500 L 390.500 283.500 390.500 205.500 L 390.500 127.500 378.731 127.218 C 369.871 127.006, 366.841 127.253, 366.472 128.218 M 409.607 128.582 C 409.273 129.452, 409 164.237, 409 205.882 C 409 263.440, 409.288 281.888, 410.200 282.800 C 410.982 283.582, 415.089 284, 422 284 C 428.911 284, 433.018 283.582, 433.800 282.800 C 434.712 281.888, 435 263.440, 435 205.882 C 435 164.237, 434.727 129.452, 434.393 128.582 C 433.887 127.263, 431.825 127, 422 127 C 412.175 127, 410.113 127.263, 409.607 128.582 M 291 173.020 C 283.893 174.488, 272.770 178.807, 269.616 181.324 L 266.732 183.625 267.462 192.381 C 268.325 202.744, 269.199 203.509, 275.904 199.768 C 288.279 192.862, 307.102 190.744, 316.038 195.250 C 321.161 197.834, 325.255 204.503, 324.783 209.500 L 324.500 212.500 305 213.082 C 288.661 213.570, 284.446 214.018, 279 215.843 C 266.301 220.100, 256.676 229.110, 253.899 239.343 C 253.252 241.726, 252.970 247.380, 253.238 252.594 C 253.984 267.116, 258.679 274.076, 272 280.410 L 278.500 283.500 313.500 283.500 L 348.500 283.500 348.500 243.500 C 348.500 208.301, 348.291 202.825, 346.759 197.876 C 343.159 186.248, 334.966 177.932, 323.651 174.420 C 317.559 172.529, 297.535 171.670, 291 173.020 M 488.402 173.486 C 472.016 177.051, 459.083 188.997, 452.331 206.803 C 450.462 211.734, 449.650 216.189, 449.255 223.695 C 448.572 236.672, 450.008 244.219, 455.159 254.731 C 461.596 267.868, 472.680 276.800, 488.552 281.644 C 493.227 283.071, 497.711 283.444, 509.500 283.390 C 523.150 283.327, 525.236 283.072, 532.678 280.552 C 544.519 276.542, 545 275.919, 545 264.583 C 545 252.297, 544.414 251.796, 535.342 256.319 C 525.655 261.148, 519.866 262.503, 509 262.482 C 500.907 262.467, 498.679 262.081, 493.954 259.881 C 490.904 258.460, 486.842 255.922, 484.928 254.242 C 481.264 251.025, 477.393 244.214, 476.832 240 L 476.500 237.500 512.913 237.237 C 539.716 237.044, 549.713 236.653, 550.792 235.758 C 551.978 234.773, 552.163 232.432, 551.756 223.520 C 550.489 195.734, 536.814 177.192, 514.566 173.093 C 506.818 171.666, 496.023 171.828, 488.402 173.486 M 607.500 173.020 C 587.572 177.009, 571.603 192.364, 565.921 213 C 564.356 218.686, 564.353 235.935, 565.917 242.469 C 567.978 251.080, 572.989 260.144, 579.361 266.788 C 590.367 278.267, 602.366 283.284, 619 283.365 C 630.320 283.420, 637.396 281.860, 646.300 277.348 L 651.186 274.872 650.843 285.263 C 650.536 294.569, 650.218 296.080, 647.799 299.731 C 645.939 302.540, 643.295 304.693, 639.299 306.654 C 633.616 309.443, 633.159 309.500, 616.500 309.500 L 599.500 309.500 599.500 320 L 599.500 330.500 621.500 330.484 C 642.120 330.469, 643.860 330.324, 649.247 328.163 C 657.283 324.941, 665.121 317.481, 669.347 309.032 C 674.518 298.698, 675.219 291.170, 674.811 250.412 L 674.462 215.500 671.764 208.056 C 663.482 185.208, 643.525 171.723, 618.566 172.110 C 614.680 172.170, 609.700 172.579, 607.500 173.020 M 727 173.121 C 709.457 177.837, 695.262 191.755, 692.020 207.418 C 691.367 210.572, 691.069 225.967, 691.234 248 L 691.500 283.500 703.500 283.500 L 715.500 283.500 716 247 C 716.479 212.011, 716.589 210.334, 718.658 206.500 C 723.717 197.126, 731.019 193.637, 744.500 194.155 L 753.500 194.500 753.784 184.306 L 754.069 174.113 750.284 173.062 C 745.698 171.788, 731.827 171.824, 727 173.121 M 801.500 172.954 C 786.371 176.231, 772.568 186.134, 765.498 198.783 C 755.888 215.976, 756.095 240.400, 765.997 257.686 C 772.169 268.462, 784.363 277.726, 797.500 281.620 C 805.631 284.029, 821.396 284.025, 829.500 281.610 C 849.349 275.696, 863.268 260.637, 867.496 240.500 C 872.377 217.249, 863.140 192.640, 845.212 181.136 C 836.252 175.386, 827.625 172.816, 816 172.434 C 810.225 172.243, 803.700 172.478, 801.500 172.954 M 497.500 193.635 C 492.887 194.755, 487.342 197.303, 485.109 199.330 C 481.035 203.028, 477 210.176, 477 213.696 L 477 217 501.031 217 C 528.161 217, 527.188 217.313, 524.944 209.299 C 523.419 203.852, 519.130 198.617, 514.084 196.043 C 510.355 194.141, 501.007 192.783, 497.500 193.635 M 614.500 193.897 C 601.231 197.326, 592.333 209.176, 591.290 224.805 C 590.170 241.601, 598.144 255.689, 611.771 260.988 C 616.493 262.824, 628.470 261.844, 633.628 259.200 C 639.785 256.044, 645.528 248.929, 648.059 241.322 C 649.851 235.939, 650.151 233.201, 649.776 225.650 C 648.825 206.449, 639.447 195.243, 623 193.653 C 619.975 193.361, 616.150 193.470, 614.500 193.897 M 808.500 193.901 C 799.816 196.132, 793.278 201.745, 788.248 211.287 C 785.733 216.058, 785.500 217.433, 785.500 227.500 C 785.500 237.331, 785.784 239.105, 788.170 244.196 C 793.820 256.250, 803.983 262.676, 816.021 261.805 C 835.192 260.418, 847.357 236.608, 840.075 214.725 C 835.275 200.301, 820.785 190.745, 808.500 193.901 M 307 233 C 295.712 233.342, 289.710 233.934, 288 234.875 C 276.037 241.455, 274.488 253.995, 284.768 261.046 C 288.195 263.396, 289.125 263.514, 306.673 263.829 L 325 264.159 325 248.638 C 325 240.102, 324.663 232.979, 324.250 232.809 C 323.837 232.639, 316.075 232.725, 307 233" stroke="none" fill="#fc5c04" fill-rule="evenodd"/></svg>