<?xml version="1.0" standalone="no"?>
<!DOCTYPE svg PUBLIC "-//W3C//DTD SVG 20010904//EN"
 "http://www.w3.org/TR/2001/REC-SVG-20010904/DTD/svg10.dtd">
<svg version="1.0" xmlns="http://www.w3.org/2000/svg"
 width="1100.000000pt" height="340.000000pt" viewBox="0 0 1100.000000 340.000000"
 preserveAspectRatio="xMidYMid meet">

<g transform="translate(0.000000,340.000000) scale(0.100000,-0.100000)"
fill="#ff5800" stroke="none">
<path d="M0 1700 l0 -1700 5500 0 5500 0 0 1700 0 1700 -5500 0 -5500 0 0
-1700z m3914 974 c11 -29 7 -1534 -4 -1555 -10 -17 -22 -19 -123 -19 -75 0
-117 4 -125 12 -9 9 -12 198 -12 788 0 427 3 780 7 783 3 4 61 7 129 7 102 0
123 -3 128 -16z m436 -3 c15 -29 14 -1512 -2 -1546 l-11 -26 -121 3 -121 3 -3
780 c-1 429 0 786 3 793 3 9 38 12 124 12 109 0 121 -2 131 -19z m-1091 -465
c36 -14 79 -36 97 -48 41 -28 88 -98 116 -173 21 -58 22 -76 26 -452 3 -275 0
-398 -8 -412 -11 -21 -17 -21 -338 -21 -309 0 -332 1 -393 22 -164 54 -239
158 -239 330 0 80 4 98 30 153 49 103 137 168 285 210 42 12 112 19 233 23
l172 5 0 24 c0 29 -26 87 -45 103 -25 21 -119 50 -161 50 -62 0 -198 -37 -261
-71 -79 -43 -96 -38 -106 31 -4 30 -6 77 -5 105 3 46 6 51 43 72 40 23 137 58
205 74 19 4 91 6 160 5 106 -3 135 -8 189 -30z m1959 5 c196 -79 298 -241 309
-493 4 -87 2 -122 -7 -133 -11 -13 -64 -15 -380 -15 l-368 0 14 -46 c20 -68
68 -122 138 -155 56 -27 70 -29 174 -29 93 0 124 4 182 24 38 14 80 32 92 40
29 21 74 21 82 0 10 -26 7 -184 -4 -204 -26 -48 -218 -100 -366 -100 -275 1
-492 139 -571 365 -31 87 -34 107 -34 214 0 257 148 471 369 536 31 10 62 19
67 21 6 2 64 2 130 0 93 -3 132 -9 173 -25z m1190 -9 c163 -67 268 -178 324
-340 23 -66 23 -75 23 -462 0 -423 -2 -442 -53 -545 -48 -97 -130 -169 -234
-204 -55 -19 -85 -21 -263 -21 -143 0 -204 3 -213 12 -14 14 -17 195 -3 216 6
11 35 12 137 7 182 -10 268 8 328 68 32 33 56 112 56 187 l0 70 -47 -24 c-72
-36 -192 -66 -264 -66 -36 0 -99 9 -141 20 -204 53 -344 187 -404 385 -26 87
-25 259 3 340 64 189 187 315 356 365 39 12 77 24 82 26 6 2 62 2 125 0 100
-3 124 -8 188 -34z m1125 19 c14 -11 17 -33 17 -112 0 -67 -4 -100 -12 -106
-7 -4 -61 -8 -120 -8 -102 0 -108 -1 -150 -30 -23 -17 -54 -51 -68 -75 l-25
-45 -3 -360 c-2 -232 -7 -364 -14 -372 -14 -18 -229 -18 -246 -1 -16 16 -17
694 -1 767 32 153 149 276 318 337 57 21 81 24 177 22 76 -2 116 -7 127 -17z
m790 -10 c138 -48 254 -149 315 -274 45 -91 55 -150 50 -301 -4 -129 -17 -181
-58 -246 -6 -8 -14 -25 -20 -37 -18 -43 -134 -149 -199 -181 -82 -42 -198 -72
-276 -72 -78 0 -194 30 -276 72 -80 40 -173 134 -216 216 -41 78 -73 205 -73
287 0 68 28 192 54 240 9 17 16 36 16 43 0 6 4 12 9 12 5 0 14 13 21 29 15 38
111 129 171 164 40 23 114 52 184 71 47 12 240 -3 298 -23z"/>
<path d="M2910 1603 c-103 -40 -152 -149 -98 -218 42 -54 86 -65 266 -65 l162
0 0 145 0 145 -157 -1 c-87 0 -165 -3 -173 -6z"/>
<path d="M4925 1990 c-66 -21 -145 -117 -145 -176 0 -18 9 -19 236 -19 l236 0
-6 37 c-8 50 -40 101 -83 134 -33 25 -47 28 -122 31 -48 1 -99 -2 -116 -7z"/>
<path d="M6146 1998 c-83 -12 -185 -106 -201 -186 -4 -18 -11 -35 -16 -38 -5
-3 -9 -44 -9 -92 0 -146 51 -249 155 -312 34 -21 52 -25 130 -25 73 0 98 4
131 22 45 24 114 95 114 118 0 8 4 15 9 15 12 0 31 112 31 178 0 223 -137 350
-344 320z"/>
<path d="M8087 1999 c-140 -21 -237 -176 -224 -358 12 -175 109 -288 258 -299
60 -4 75 -1 123 22 174 85 223 359 96 535 -58 80 -148 115 -253 100z"/>
</g>
</svg>
