<?xml version="1.0" standalone="no"?>
<!DOCTYPE svg PUBLIC "-//W3C//DTD SVG 20010904//EN"
 "http://www.w3.org/TR/2001/REC-SVG-20010904/DTD/svg10.dtd">
<svg version="1.0" xmlns="http://www.w3.org/2000/svg"
 width="1600.000000pt" height="360.000000pt" viewBox="0 0 1600.000000 310.000000"
 preserveAspectRatio="xMidYMid meet">

<g transform="translate(0.000000,310.000000) scale(0.100000,-0.100000)"
fill="#000000" stroke="none">
<path d="M0 1550 l0 -1550 8000 0 8000 0 0 1550 0 1550 -8000 0 -8000 0 0
-1550z m6867 1173 c57 -32 104 -107 138 -218 24 -80 21 -102 -16 -110 -17 -4
-50 -4 -74 -1 -34 6 -44 12 -49 30 -11 45 -45 76 -82 76 -32 0 -37 -4 -57 -47
-20 -45 -22 -63 -22 -288 0 -226 1 -243 22 -287 16 -35 29 -49 49 -54 29 -7
28 -8 92 76 22 27 29 30 83 30 71 0 78 -9 59 -84 -19 -78 -63 -167 -101 -208
-40 -42 -100 -56 -166 -39 -79 21 -151 124 -174 245 -6 35 -9 175 -7 359 l3
302 29 68 c31 74 99 152 137 160 54 10 106 6 136 -10z m353 -558 l0 -575 -75
0 -75 0 0 575 0 575 75 0 75 0 0 -575z m242 430 c27 -77 70 -202 96 -278 l47
-138 6 118 c4 65 7 191 8 281 l1 163 78 -3 77 -3 3 -573 2 -574 -67 7 c-38 4
-71 10 -74 14 -3 3 -27 67 -53 141 -40 114 -71 202 -128 360 -20 55 -28 -14
-28 -262 l0 -258 -75 0 -75 0 0 575 0 576 66 -3 67 -3 49 -140z m808 25 l0
-120 -140 0 -140 0 0 -105 0 -105 115 0 115 0 0 -115 0 -115 -115 0 -115 0 0
-120 0 -120 140 0 140 0 0 -115 0 -115 -215 0 -215 0 0 575 0 575 215 0 215 0
0 -120z m180 111 c22 -6 29 -24 77 -191 59 -209 85 -290 93 -290 3 0 14 28 24
63 11 34 25 82 33 107 8 25 31 106 51 180 l37 135 78 3 77 3 0 -403 c0 -222 3
-441 7 -488 l6 -85 14 65 c7 36 15 74 17 85 9 38 166 819 166 822 0 5 57 3 87
-3 30 -6 31 -8 51 -112 12 -59 62 -309 112 -556 50 -246 89 -455 86 -462 -4
-10 -25 -14 -76 -14 -38 0 -70 3 -70 8 0 14 -21 137 -26 155 -5 15 -19 17
-108 17 l-103 0 -12 -90 -13 -90 -142 0 -143 0 -6 113 c-4 61 -7 189 -8 282
l-1 170 -34 -105 c-59 -182 -57 -179 -136 -194 -13 -3 -23 19 -48 108 -17 61
-40 136 -50 166 l-18 55 -1 -297 -1 -298 -72 0 -73 0 0 575 0 575 50 -1 c28
-1 61 -4 75 -8z m-350 -1258 c77 -51 112 -105 141 -218 30 -113 29 -115 -37
-115 -56 0 -58 1 -109 56 -58 63 -84 68 -118 22 -29 -39 -36 -99 -36 -319 -1
-218 11 -287 54 -315 39 -25 67 -15 92 35 13 25 28 48 35 53 7 4 41 8 76 8 70
0 69 0 52 -80 -11 -47 -48 -148 -62 -165 -53 -69 -60 -74 -113 -85 -66 -14
-118 -5 -155 26 -32 28 -74 95 -96 157 -22 59 -33 308 -24 534 7 171 10 194
34 253 27 67 69 119 121 151 38 24 112 25 145 2z m368 -560 l2 -573 -70 0 -70
0 0 575 0 576 68 -3 67 -3 3 -572z m602 535 c45 -170 99 -356 108 -372 8 -14
20 15 63 149 22 72 51 159 64 195 l23 65 58 3 c84 3 89 -2 66 -74 -11 -32 -43
-133 -72 -224 -28 -91 -66 -212 -85 -270 -32 -102 -33 -112 -40 -342 l-7 -238
-69 0 -69 0 0 225 c0 164 -4 236 -14 267 -8 24 -28 90 -46 148 -88 291 -71
264 -172 272 l-58 5 0 -459 0 -458 -75 0 -75 0 0 455 0 455 -80 0 -80 0 0 120
0 120 275 0 274 0 11 -42z"/>
<path d="M9187 2270 c-11 -25 -47 -220 -47 -251 0 -28 2 -29 50 -29 l50 0 -1
38 c-1 56 -45 259 -52 242z"/>
</g>
</svg>
