<svg width="326" height="350" viewBox="0 0 326 350" fill="none" xmlns="http://www.w3.org/2000/svg">
<path d="M48.264 343V332.328H53C54.1093 332.328 54.9573 332.6 55.544 333.144C56.1413 333.677 56.44 334.477 56.44 335.544C56.44 336.099 56.328 336.611 56.104 337.08C55.88 337.549 55.5547 337.933 55.128 338.232C54.7013 338.531 54.1947 338.701 53.608 338.744L53.8 338.2L56.968 343H54.776L51.816 338.216L52.632 338.968H50.024V343H48.264ZM50.024 337.528H52.504C53.208 337.528 53.7307 337.373 54.072 337.064C54.424 336.755 54.6 336.285 54.6 335.656C54.6 335.069 54.4613 334.616 54.184 334.296C53.9173 333.976 53.4533 333.816 52.792 333.816H50.024V337.528ZM62.2806 343.24C61.4913 343.24 60.8033 343.08 60.2166 342.76C59.6406 342.44 59.1926 341.965 58.8726 341.336C58.5633 340.707 58.4086 339.939 58.4086 339.032C58.4086 337.635 58.734 336.579 59.3846 335.864C60.046 335.139 60.9633 334.776 62.1366 334.776C63.0006 334.776 63.6993 334.968 64.2326 335.352C64.766 335.736 65.15 336.275 65.3846 336.968C65.63 337.651 65.7473 338.451 65.7366 339.368H59.4166L59.3686 338.12H64.4566L64.0566 338.52C64.0246 337.699 63.854 337.101 63.5446 336.728C63.2353 336.344 62.75 336.152 62.0886 336.152C61.662 336.152 61.2993 336.243 61.0006 336.424C60.702 336.595 60.4726 336.893 60.3126 337.32C60.1633 337.736 60.0886 338.312 60.0886 339.048C60.0886 339.944 60.2966 340.627 60.7126 341.096C61.1286 341.555 61.742 341.784 62.5526 341.784C62.9153 341.784 63.2513 341.752 63.5606 341.688C63.8806 341.624 64.174 341.544 64.4406 341.448C64.7073 341.341 64.9366 341.24 65.1286 341.144V342.696C64.7553 342.856 64.334 342.984 63.8646 343.08C63.3953 343.187 62.8673 343.24 62.2806 343.24ZM69.3324 343H67.6684V331.928H69.3324V343ZM74.6116 343.24C74.1956 343.24 73.7956 343.197 73.4116 343.112C73.0276 343.037 72.6756 342.904 72.3556 342.712C72.0463 342.52 71.7956 342.259 71.6036 341.928C71.4223 341.587 71.3316 341.165 71.3316 340.664C71.3316 340.067 71.449 339.576 71.6836 339.192C71.9183 338.808 72.2543 338.52 72.6916 338.328C73.129 338.136 73.6516 338.04 74.2596 338.04C74.665 338.04 75.0276 338.072 75.3476 338.136C75.6783 338.2 75.9716 338.291 76.2276 338.408C76.4943 338.515 76.7183 338.637 76.8996 338.776L77.0756 339.88C76.841 339.72 76.5263 339.587 76.1316 339.48C75.737 339.363 75.3103 339.304 74.8516 339.304C74.2436 339.304 73.7796 339.411 73.4596 339.624C73.1503 339.837 72.9956 340.157 72.9956 340.584C72.9956 340.904 73.0863 341.165 73.2676 341.368C73.449 341.56 73.673 341.704 73.9396 341.8C74.217 341.885 74.505 341.928 74.8036 341.928C75.433 341.928 75.897 341.885 76.1956 341.8C76.4943 341.715 76.6436 341.517 76.6436 341.208V337.848C76.6436 337.283 76.473 336.872 76.1316 336.616C75.7903 336.349 75.305 336.216 74.6756 336.216C74.2276 336.216 73.7636 336.291 73.2836 336.44C72.8036 336.579 72.409 336.776 72.0996 337.032V335.464C72.3983 335.261 72.8303 335.101 73.3956 334.984C73.9716 334.856 74.5636 334.792 75.1716 334.792C75.4703 334.792 75.769 334.824 76.0676 334.888C76.377 334.941 76.665 335.032 76.9316 335.16C77.1983 335.277 77.433 335.443 77.6356 335.656C77.849 335.859 78.0143 336.109 78.1316 336.408C78.249 336.707 78.3076 337.059 78.3076 337.464V341.304C78.3076 341.827 78.1423 342.232 77.8116 342.52C77.4916 342.797 77.0543 342.984 76.4996 343.08C75.945 343.187 75.3156 343.24 74.6116 343.24ZM81.9804 338.344L85.2604 334.968H87.3244L82.7004 339.368L81.9804 338.344ZM82.3324 343H80.6684V331.928H82.3484L82.3324 343ZM83.0844 337.8L87.7244 343H85.5644L81.9004 338.92L83.0844 337.8ZM91.6915 343.24C91.1155 343.24 90.6248 343.176 90.2195 343.048C89.8248 342.931 89.4355 342.781 89.0515 342.6V341.016C89.3288 341.187 89.6008 341.341 89.8675 341.48C90.1342 341.608 90.4115 341.709 90.6995 341.784C90.9982 341.859 91.3288 341.896 91.6915 341.896C92.1502 341.896 92.5075 341.8 92.7635 341.608C93.0302 341.416 93.1635 341.176 93.1635 340.888C93.1635 340.643 93.0782 340.451 92.9075 340.312C92.7475 340.173 92.5395 340.056 92.2835 339.96C92.0275 339.864 91.7608 339.768 91.4835 339.672C91.1955 339.597 90.9075 339.512 90.6195 339.416C90.3315 339.309 90.0648 339.171 89.8195 339C89.5848 338.819 89.3928 338.589 89.2435 338.312C89.1048 338.035 89.0355 337.693 89.0355 337.288C89.0355 336.84 89.1262 336.461 89.3075 336.152C89.4888 335.832 89.7235 335.576 90.0115 335.384C90.3102 335.181 90.6355 335.037 90.9875 334.952C91.3502 334.856 91.7022 334.808 92.0435 334.808C92.6088 334.819 93.0675 334.888 93.4195 335.016C93.7822 335.144 94.1342 335.299 94.4755 335.48L94.4915 336.92C94.1075 336.717 93.7448 336.541 93.4035 336.392C93.0622 336.243 92.6675 336.168 92.2195 336.168C91.8035 336.168 91.4568 336.248 91.1795 336.408C90.9022 336.557 90.7635 336.781 90.7635 337.08C90.7635 337.336 90.8382 337.539 90.9875 337.688C91.1475 337.837 91.3502 337.955 91.5955 338.04C91.8515 338.125 92.1235 338.211 92.4115 338.296C92.6782 338.381 92.9555 338.472 93.2435 338.568C93.5315 338.653 93.7982 338.781 94.0435 338.952C94.2888 339.123 94.4862 339.347 94.6355 339.624C94.7955 339.901 94.8755 340.264 94.8755 340.712C94.8648 341.309 94.7048 341.795 94.3955 342.168C94.0968 342.541 93.7022 342.813 93.2115 342.984C92.7208 343.155 92.2142 343.24 91.6915 343.24Z" fill="black"/>
<path d="M50.024 313.176V317H48.264V306.328H52.488C53.704 306.328 54.6427 306.611 55.304 307.176C55.976 307.741 56.312 308.584 56.312 309.704C56.312 310.824 55.976 311.683 55.304 312.28C54.6427 312.877 53.704 313.176 52.488 313.176H50.024ZM50.024 311.672H52.264C52.7227 311.672 53.096 311.624 53.384 311.528C53.672 311.421 53.896 311.277 54.056 311.096C54.216 310.904 54.3227 310.696 54.376 310.472C54.44 310.248 54.472 310.013 54.472 309.768C54.472 309.523 54.44 309.283 54.376 309.048C54.3227 308.813 54.216 308.605 54.056 308.424C53.896 308.232 53.672 308.083 53.384 307.976C53.096 307.869 52.7227 307.816 52.264 307.816H50.024V311.672ZM58.3403 317V309.704C58.4789 309.619 58.7349 309.501 59.1083 309.352C59.4816 309.203 59.9243 309.075 60.4363 308.968C60.9483 308.851 61.4656 308.792 61.9883 308.792C62.2549 308.792 62.4736 308.813 62.6443 308.856C62.8149 308.899 62.9589 308.947 63.0763 309V310.344C62.8309 310.312 62.5749 310.291 62.3083 310.28C62.0416 310.259 61.7749 310.259 61.5083 310.28C61.2416 310.291 60.9803 310.312 60.7243 310.344C60.4683 310.376 60.2336 310.408 60.0203 310.44V317H58.3403ZM67.6429 317.24C67.2269 317.24 66.8269 317.197 66.4429 317.112C66.0589 317.037 65.7069 316.904 65.3869 316.712C65.0775 316.52 64.8269 316.259 64.6349 315.928C64.4535 315.587 64.3629 315.165 64.3629 314.664C64.3629 314.067 64.4802 313.576 64.7149 313.192C64.9495 312.808 65.2855 312.52 65.7229 312.328C66.1602 312.136 66.6829 312.04 67.2909 312.04C67.6962 312.04 68.0589 312.072 68.3789 312.136C68.7095 312.2 69.0029 312.291 69.2589 312.408C69.5255 312.515 69.7495 312.637 69.9309 312.776L70.1069 313.88C69.8722 313.72 69.5575 313.587 69.1629 313.48C68.7682 313.363 68.3415 313.304 67.8829 313.304C67.2749 313.304 66.8109 313.411 66.4909 313.624C66.1815 313.837 66.0269 314.157 66.0269 314.584C66.0269 314.904 66.1175 315.165 66.2989 315.368C66.4802 315.56 66.7042 315.704 66.9709 315.8C67.2482 315.885 67.5362 315.928 67.8349 315.928C68.4642 315.928 68.9282 315.885 69.2269 315.8C69.5255 315.715 69.6749 315.517 69.6749 315.208V311.848C69.6749 311.283 69.5042 310.872 69.1629 310.616C68.8215 310.349 68.3362 310.216 67.7069 310.216C67.2589 310.216 66.7949 310.291 66.3149 310.44C65.8349 310.579 65.4402 310.776 65.1309 311.032V309.464C65.4295 309.261 65.8615 309.101 66.4269 308.984C67.0029 308.856 67.5949 308.792 68.2029 308.792C68.5015 308.792 68.8002 308.824 69.0989 308.888C69.4082 308.941 69.6962 309.032 69.9629 309.16C70.2295 309.277 70.4642 309.443 70.6669 309.656C70.8802 309.859 71.0455 310.109 71.1629 310.408C71.2802 310.707 71.3389 311.059 71.3389 311.464V315.304C71.3389 315.827 71.1735 316.232 70.8429 316.52C70.5229 316.797 70.0855 316.984 69.5309 317.08C68.9762 317.187 68.3469 317.24 67.6429 317.24ZM77.2356 317.16C76.745 317.16 76.265 317.091 75.7956 316.952C75.3263 316.813 74.8996 316.589 74.5156 316.28C74.1423 315.96 73.8436 315.539 73.6196 315.016C73.3956 314.483 73.2836 313.821 73.2836 313.032C73.2836 312.221 73.3903 311.544 73.6036 311C73.817 310.456 74.1103 310.024 74.4836 309.704C74.857 309.373 75.2783 309.139 75.7476 309C76.2276 308.861 76.7183 308.792 77.2196 308.792C77.6463 308.792 78.073 308.835 78.4996 308.92C78.9263 308.995 79.321 309.112 79.6836 309.272V310.776C79.321 310.616 78.9583 310.493 78.5956 310.408C78.233 310.312 77.8543 310.264 77.4596 310.264C76.6276 310.264 75.9983 310.472 75.5716 310.888C75.1556 311.304 74.9476 311.976 74.9476 312.904C74.9476 313.864 75.145 314.568 75.5396 315.016C75.945 315.453 76.601 315.672 77.5076 315.672C77.9023 315.672 78.2863 315.624 78.6596 315.528C79.033 315.421 79.3796 315.293 79.6996 315.144V316.648C79.3263 316.819 78.937 316.947 78.5316 317.032C78.1263 317.117 77.6943 317.16 77.2356 317.16ZM84.5491 317.24C84.1331 317.24 83.7331 317.197 83.3491 317.112C82.9651 317.037 82.6131 316.904 82.2931 316.712C81.9838 316.52 81.7331 316.259 81.5411 315.928C81.3598 315.587 81.2691 315.165 81.2691 314.664C81.2691 314.067 81.3865 313.576 81.6211 313.192C81.8558 312.808 82.1918 312.52 82.6291 312.328C83.0665 312.136 83.5891 312.04 84.1971 312.04C84.6025 312.04 84.9651 312.072 85.2851 312.136C85.6158 312.2 85.9091 312.291 86.1651 312.408C86.4318 312.515 86.6558 312.637 86.8371 312.776L87.0131 313.88C86.7785 313.72 86.4638 313.587 86.0691 313.48C85.6745 313.363 85.2478 313.304 84.7891 313.304C84.1811 313.304 83.7171 313.411 83.3971 313.624C83.0878 313.837 82.9331 314.157 82.9331 314.584C82.9331 314.904 83.0238 315.165 83.2051 315.368C83.3865 315.56 83.6105 315.704 83.8771 315.8C84.1545 315.885 84.4425 315.928 84.7411 315.928C85.3705 315.928 85.8345 315.885 86.1331 315.8C86.4318 315.715 86.5811 315.517 86.5811 315.208V311.848C86.5811 311.283 86.4105 310.872 86.0691 310.616C85.7278 310.349 85.2425 310.216 84.6131 310.216C84.1651 310.216 83.7011 310.291 83.2211 310.44C82.7411 310.579 82.3465 310.776 82.0371 311.032V309.464C82.3358 309.261 82.7678 309.101 83.3331 308.984C83.9091 308.856 84.5011 308.792 85.1091 308.792C85.4078 308.792 85.7065 308.824 86.0051 308.888C86.3145 308.941 86.6025 309.032 86.8691 309.16C87.1358 309.277 87.3705 309.443 87.5731 309.656C87.7865 309.859 87.9518 310.109 88.0691 310.408C88.1865 310.707 88.2451 311.059 88.2451 311.464V315.304C88.2451 315.827 88.0798 316.232 87.7491 316.52C87.4291 316.797 86.9918 316.984 86.4371 317.08C85.8825 317.187 85.2531 317.24 84.5491 317.24Z" fill="black"/>
<circle cx="26" cy="338" r="7" fill="#2F3273"/>
<path d="M0 15C0 6.71573 6.71573 0 15 0H300C308.284 0 315 6.71573 315 15V260C315 268.284 308.284 275 300 275H15C6.71573 275 0 268.284 0 260V15Z" fill="#F8F8FE"/>
<path opacity="0.7" d="M264 219V66" stroke="#353A70" stroke-opacity="0.47"/>
<path opacity="0.7" d="M217 219V66" stroke="#353A70" stroke-opacity="0.47"/>
<path opacity="0.7" d="M171 219V66" stroke="#353A70" stroke-opacity="0.47"/>
<path opacity="0.7" d="M122 219V66" stroke="#353A70" stroke-opacity="0.47"/>
<path d="M43.578 254.168C42.29 254.168 41.3287 253.767 40.694 252.964C40.0593 252.161 39.742 250.957 39.742 249.352C39.742 247.756 40.0593 246.557 40.694 245.754C41.3287 244.942 42.29 244.536 43.578 244.536C44.8847 244.536 45.8507 244.942 46.476 245.754C47.1107 246.557 47.428 247.756 47.428 249.352C47.428 250.957 47.1107 252.161 46.476 252.964C45.8507 253.767 44.8847 254.168 43.578 254.168ZM43.578 252.852C43.8487 252.852 44.1193 252.815 44.39 252.74C44.6607 252.656 44.908 252.497 45.132 252.264C45.356 252.021 45.5333 251.671 45.664 251.214C45.804 250.747 45.874 250.127 45.874 249.352C45.874 248.587 45.804 247.971 45.664 247.504C45.5333 247.037 45.356 246.687 45.132 246.454C44.908 246.221 44.6607 246.062 44.39 245.978C44.1193 245.894 43.8487 245.852 43.578 245.852C43.3167 245.852 43.0507 245.894 42.78 245.978C42.5093 246.062 42.262 246.221 42.038 246.454C41.814 246.687 41.632 247.037 41.492 247.504C41.3613 247.971 41.296 248.587 41.296 249.352C41.296 250.127 41.3613 250.747 41.492 251.214C41.632 251.671 41.814 252.021 42.038 252.264C42.262 252.497 42.5093 252.656 42.78 252.74C43.0507 252.815 43.3167 252.852 43.578 252.852ZM73.0809 254V252.81C73.3983 252.595 73.7529 252.334 74.1449 252.026C74.5463 251.709 74.9429 251.359 75.3349 250.976C75.7363 250.593 76.1003 250.197 76.4269 249.786C76.7629 249.366 77.0336 248.955 77.2389 248.554C77.4443 248.143 77.5469 247.751 77.5469 247.378C77.5469 247.098 77.4863 246.841 77.3649 246.608C77.2436 246.375 77.0383 246.188 76.7489 246.048C76.4596 245.908 76.0769 245.838 75.6009 245.838C75.0876 245.838 74.6303 245.936 74.2289 246.132C73.8276 246.319 73.4729 246.524 73.1649 246.748V245.292C73.5009 245.087 73.8976 244.905 74.3549 244.746C74.8123 244.587 75.3396 244.508 75.9369 244.508C76.6743 244.508 77.2763 244.634 77.7429 244.886C78.2096 245.129 78.5503 245.46 78.7649 245.88C78.9889 246.291 79.1009 246.748 79.1009 247.252C79.1009 247.681 79.0029 248.111 78.8069 248.54C78.6109 248.969 78.3496 249.389 78.0229 249.8C77.7056 250.211 77.3556 250.607 76.9729 250.99C76.5903 251.363 76.2029 251.713 75.8109 252.04C75.4283 252.357 75.0736 252.642 74.7469 252.894L74.3829 252.544H79.2549V254H73.0809ZM84.9218 254.168C83.6338 254.168 82.6724 253.767 82.0378 252.964C81.4031 252.161 81.0858 250.957 81.0858 249.352C81.0858 247.756 81.4031 246.557 82.0378 245.754C82.6724 244.942 83.6338 244.536 84.9218 244.536C86.2284 244.536 87.1944 244.942 87.8198 245.754C88.4544 246.557 88.7718 247.756 88.7718 249.352C88.7718 250.957 88.4544 252.161 87.8198 252.964C87.1944 253.767 86.2284 254.168 84.9218 254.168ZM84.9218 252.852C85.1924 252.852 85.4631 252.815 85.7338 252.74C86.0044 252.656 86.2518 252.497 86.4758 252.264C86.6998 252.021 86.8771 251.671 87.0078 251.214C87.1478 250.747 87.2178 250.127 87.2178 249.352C87.2178 248.587 87.1478 247.971 87.0078 247.504C86.8771 247.037 86.6998 246.687 86.4758 246.454C86.2518 246.221 86.0044 246.062 85.7338 245.978C85.4631 245.894 85.1924 245.852 84.9218 245.852C84.6604 245.852 84.3944 245.894 84.1238 245.978C83.8531 246.062 83.6058 246.221 83.3818 246.454C83.1578 246.687 82.9758 247.037 82.8358 247.504C82.7051 247.971 82.6398 248.587 82.6398 249.352C82.6398 250.127 82.7051 250.747 82.8358 251.214C82.9758 251.671 83.1578 252.021 83.3818 252.264C83.6058 252.497 83.8531 252.656 84.1238 252.74C84.3944 252.815 84.6604 252.852 84.9218 252.852ZM118.233 254V251.326H113.921V250.024L118.233 244.662H119.787V250.052H121.061V251.326H119.787V254H118.233ZM115.391 250.052H118.233V246.566L115.391 250.052ZM126.348 254.168C125.06 254.168 124.098 253.767 123.464 252.964C122.829 252.161 122.512 250.957 122.512 249.352C122.512 247.756 122.829 246.557 123.464 245.754C124.098 244.942 125.06 244.536 126.348 244.536C127.654 244.536 128.62 244.942 129.246 245.754C129.88 246.557 130.198 247.756 130.198 249.352C130.198 250.957 129.88 252.161 129.246 252.964C128.62 253.767 127.654 254.168 126.348 254.168ZM126.348 252.852C126.618 252.852 126.889 252.815 127.16 252.74C127.43 252.656 127.678 252.497 127.902 252.264C128.126 252.021 128.303 251.671 128.434 251.214C128.574 250.747 128.644 250.127 128.644 249.352C128.644 248.587 128.574 247.971 128.434 247.504C128.303 247.037 128.126 246.687 127.902 246.454C127.678 246.221 127.43 246.062 127.16 245.978C126.889 245.894 126.618 245.852 126.348 245.852C126.086 245.852 125.82 245.894 125.55 245.978C125.279 246.062 125.032 246.221 124.808 246.454C124.584 246.687 124.402 247.037 124.262 247.504C124.131 247.971 124.066 248.587 124.066 249.352C124.066 250.127 124.131 250.747 124.262 251.214C124.402 251.671 124.584 252.021 124.808 252.264C125.032 252.497 125.279 252.656 125.55 252.74C125.82 252.815 126.086 252.852 126.348 252.852ZM166.943 254.14C165.795 254.14 164.941 253.767 164.381 253.02C163.831 252.264 163.555 251.163 163.555 249.716C163.555 248.783 163.658 248.003 163.863 247.378C164.078 246.743 164.358 246.239 164.703 245.866C165.049 245.483 165.417 245.199 165.809 245.012C166.201 244.816 166.589 244.685 166.971 244.62C167.354 244.545 167.685 244.508 167.965 244.508C168.311 244.508 168.623 244.536 168.903 244.592C169.183 244.639 169.421 244.695 169.617 244.76V246.118C169.393 246.034 169.16 245.969 168.917 245.922C168.675 245.866 168.404 245.838 168.105 245.838C167.881 245.838 167.634 245.871 167.363 245.936C167.093 246.001 166.822 246.113 166.551 246.272C166.29 246.421 166.047 246.631 165.823 246.902C165.609 247.163 165.436 247.495 165.305 247.896C165.175 248.297 165.109 248.783 165.109 249.352C165.109 250.089 165.156 250.687 165.249 251.144C165.343 251.601 165.473 251.951 165.641 252.194C165.819 252.427 166.024 252.586 166.257 252.67C166.491 252.754 166.743 252.796 167.013 252.796C167.415 252.796 167.737 252.731 167.979 252.6C168.222 252.46 168.404 252.292 168.525 252.096C168.656 251.9 168.74 251.699 168.777 251.494C168.824 251.279 168.847 251.102 168.847 250.962C168.847 250.393 168.689 249.959 168.371 249.66C168.063 249.361 167.62 249.212 167.041 249.212C166.659 249.212 166.327 249.273 166.047 249.394C165.767 249.506 165.539 249.651 165.361 249.828C165.184 249.996 165.058 250.169 164.983 250.346L164.773 249.296C164.839 249.184 164.941 249.053 165.081 248.904C165.221 248.745 165.394 248.596 165.599 248.456C165.805 248.316 166.038 248.199 166.299 248.106C166.57 248.013 166.873 247.966 167.209 247.966C168.236 247.966 169.025 248.232 169.575 248.764C170.135 249.287 170.415 250.024 170.415 250.976C170.415 251.377 170.345 251.769 170.205 252.152C170.075 252.525 169.869 252.861 169.589 253.16C169.309 253.459 168.95 253.697 168.511 253.874C168.082 254.051 167.559 254.14 166.943 254.14ZM175.758 254.168C174.47 254.168 173.508 253.767 172.874 252.964C172.239 252.161 171.922 250.957 171.922 249.352C171.922 247.756 172.239 246.557 172.874 245.754C173.508 244.942 174.47 244.536 175.758 244.536C177.064 244.536 178.03 244.942 178.656 245.754C179.29 246.557 179.608 247.756 179.608 249.352C179.608 250.957 179.29 252.161 178.656 252.964C178.03 253.767 177.064 254.168 175.758 254.168ZM175.758 252.852C176.028 252.852 176.299 252.815 176.57 252.74C176.84 252.656 177.088 252.497 177.312 252.264C177.536 252.021 177.713 251.671 177.844 251.214C177.984 250.747 178.054 250.127 178.054 249.352C178.054 248.587 177.984 247.971 177.844 247.504C177.713 247.037 177.536 246.687 177.312 246.454C177.088 246.221 176.84 246.062 176.57 245.978C176.299 245.894 176.028 245.852 175.758 245.852C175.496 245.852 175.23 245.894 174.96 245.978C174.689 246.062 174.442 246.221 174.218 246.454C173.994 246.687 173.812 247.037 173.672 247.504C173.541 247.971 173.476 248.587 173.476 249.352C173.476 250.127 173.541 250.747 173.672 251.214C173.812 251.671 173.994 252.021 174.218 252.264C174.442 252.497 174.689 252.656 174.96 252.74C175.23 252.815 175.496 252.852 175.758 252.852ZM212.431 254.14C211.815 254.14 211.283 254.061 210.835 253.902C210.396 253.743 210.037 253.529 209.757 253.258C209.486 252.987 209.281 252.684 209.141 252.348C209.01 252.012 208.945 251.657 208.945 251.284C208.945 250.901 209.015 250.575 209.155 250.304C209.295 250.033 209.458 249.809 209.645 249.632C209.832 249.455 210.009 249.319 210.177 249.226C210.354 249.133 210.48 249.072 210.555 249.044C210.499 249.025 210.401 248.974 210.261 248.89C210.13 248.797 209.986 248.671 209.827 248.512C209.668 248.353 209.533 248.153 209.421 247.91C209.318 247.667 209.267 247.378 209.267 247.042C209.267 246.575 209.374 246.151 209.589 245.768C209.804 245.385 210.144 245.082 210.611 244.858C211.078 244.625 211.684 244.508 212.431 244.508C213.187 244.508 213.798 244.625 214.265 244.858C214.732 245.082 215.072 245.385 215.287 245.768C215.502 246.151 215.609 246.575 215.609 247.042C215.609 247.387 215.553 247.681 215.441 247.924C215.338 248.167 215.208 248.367 215.049 248.526C214.9 248.675 214.76 248.792 214.629 248.876C214.498 248.96 214.405 249.016 214.349 249.044C214.414 249.072 214.531 249.133 214.699 249.226C214.867 249.319 215.044 249.455 215.231 249.632C215.418 249.809 215.576 250.033 215.707 250.304C215.847 250.575 215.917 250.901 215.917 251.284C215.917 251.657 215.852 252.012 215.721 252.348C215.59 252.684 215.385 252.987 215.105 253.258C214.834 253.529 214.475 253.743 214.027 253.902C213.588 254.061 213.056 254.14 212.431 254.14ZM212.431 252.838C212.851 252.838 213.187 252.777 213.439 252.656C213.691 252.525 213.878 252.367 213.999 252.18C214.13 251.984 214.214 251.793 214.251 251.606C214.298 251.41 214.321 251.251 214.321 251.13C214.321 250.831 214.246 250.57 214.097 250.346C213.957 250.113 213.747 249.935 213.467 249.814C213.187 249.683 212.842 249.618 212.431 249.618C212.03 249.618 211.684 249.683 211.395 249.814C211.115 249.935 210.9 250.113 210.751 250.346C210.611 250.57 210.541 250.831 210.541 251.13C210.541 251.251 210.564 251.41 210.611 251.606C210.658 251.793 210.742 251.984 210.863 252.18C210.994 252.367 211.185 252.525 211.437 252.656C211.689 252.777 212.02 252.838 212.431 252.838ZM212.431 248.554C212.739 248.554 213.014 248.498 213.257 248.386C213.5 248.274 213.686 248.115 213.817 247.91C213.957 247.695 214.027 247.439 214.027 247.14C214.027 246.813 213.948 246.557 213.789 246.37C213.63 246.183 213.43 246.048 213.187 245.964C212.944 245.88 212.692 245.838 212.431 245.838C212.179 245.838 211.927 245.88 211.675 245.964C211.432 246.048 211.232 246.183 211.073 246.37C210.914 246.557 210.835 246.813 210.835 247.14C210.835 247.439 210.905 247.695 211.045 247.91C211.185 248.115 211.372 248.274 211.605 248.386C211.848 248.498 212.123 248.554 212.431 248.554ZM221.217 254.168C219.929 254.168 218.967 253.767 218.333 252.964C217.698 252.161 217.381 250.957 217.381 249.352C217.381 247.756 217.698 246.557 218.333 245.754C218.967 244.942 219.929 244.536 221.217 244.536C222.523 244.536 223.489 244.942 224.115 245.754C224.749 246.557 225.067 247.756 225.067 249.352C225.067 250.957 224.749 252.161 224.115 252.964C223.489 253.767 222.523 254.168 221.217 254.168ZM221.217 252.852C221.487 252.852 221.758 252.815 222.029 252.74C222.299 252.656 222.547 252.497 222.771 252.264C222.995 252.021 223.172 251.671 223.303 251.214C223.443 250.747 223.513 250.127 223.513 249.352C223.513 248.587 223.443 247.971 223.303 247.504C223.172 247.037 222.995 246.687 222.771 246.454C222.547 246.221 222.299 246.062 222.029 245.978C221.758 245.894 221.487 245.852 221.217 245.852C220.955 245.852 220.689 245.894 220.419 245.978C220.148 246.062 219.901 246.221 219.677 246.454C219.453 246.687 219.271 247.037 219.131 247.504C219 247.971 218.935 248.587 218.935 249.352C218.935 250.127 219 250.747 219.131 251.214C219.271 251.671 219.453 252.021 219.677 252.264C219.901 252.497 220.148 252.656 220.419 252.74C220.689 252.815 220.955 252.852 221.217 252.852ZM256.686 254V246.202L254.838 247.336V245.796L256.714 244.662H258.226V254H256.686ZM264.666 254.168C263.378 254.168 262.417 253.767 261.782 252.964C261.147 252.161 260.83 250.957 260.83 249.352C260.83 247.756 261.147 246.557 261.782 245.754C262.417 244.942 263.378 244.536 264.666 244.536C265.973 244.536 266.939 244.942 267.564 245.754C268.199 246.557 268.516 247.756 268.516 249.352C268.516 250.957 268.199 252.161 267.564 252.964C266.939 253.767 265.973 254.168 264.666 254.168ZM264.666 252.852C264.937 252.852 265.207 252.815 265.478 252.74C265.749 252.656 265.996 252.497 266.22 252.264C266.444 252.021 266.621 251.671 266.752 251.214C266.892 250.747 266.962 250.127 266.962 249.352C266.962 248.587 266.892 247.971 266.752 247.504C266.621 247.037 266.444 246.687 266.22 246.454C265.996 246.221 265.749 246.062 265.478 245.978C265.207 245.894 264.937 245.852 264.666 245.852C264.405 245.852 264.139 245.894 263.868 245.978C263.597 246.062 263.35 246.221 263.126 246.454C262.902 246.687 262.72 247.037 262.58 247.504C262.449 247.971 262.384 248.587 262.384 249.352C262.384 250.127 262.449 250.747 262.58 251.214C262.72 251.671 262.902 252.021 263.126 252.264C263.35 252.497 263.597 252.656 263.868 252.74C264.139 252.815 264.405 252.852 264.666 252.852ZM273.84 254.168C272.552 254.168 271.59 253.767 270.956 252.964C270.321 252.161 270.004 250.957 270.004 249.352C270.004 247.756 270.321 246.557 270.956 245.754C271.59 244.942 272.552 244.536 273.84 244.536C275.146 244.536 276.112 244.942 276.738 245.754C277.372 246.557 277.69 247.756 277.69 249.352C277.69 250.957 277.372 252.161 276.738 252.964C276.112 253.767 275.146 254.168 273.84 254.168ZM273.84 252.852C274.11 252.852 274.381 252.815 274.652 252.74C274.922 252.656 275.17 252.497 275.394 252.264C275.618 252.021 275.795 251.671 275.926 251.214C276.066 250.747 276.136 250.127 276.136 249.352C276.136 248.587 276.066 247.971 275.926 247.504C275.795 247.037 275.618 246.687 275.394 246.454C275.17 246.221 274.922 246.062 274.652 245.978C274.381 245.894 274.11 245.852 273.84 245.852C273.578 245.852 273.312 245.894 273.042 245.978C272.771 246.062 272.524 246.221 272.3 246.454C272.076 246.687 271.894 247.037 271.754 247.504C271.623 247.971 271.558 248.587 271.558 249.352C271.558 250.127 271.623 250.747 271.754 251.214C271.894 251.671 272.076 252.021 272.3 252.264C272.524 252.497 272.771 252.656 273.042 252.74C273.312 252.815 273.578 252.852 273.84 252.852Z" fill="black"/>
<path d="M274.704 220.706C275.096 220.317 275.099 219.684 274.71 219.292L268.374 212.9C267.985 212.508 267.352 212.505 266.96 212.894C266.568 213.283 266.565 213.916 266.954 214.308L272.586 219.99L266.904 225.622C266.512 226.011 266.509 226.644 266.898 227.036C267.287 227.428 267.92 227.431 268.312 227.042L274.704 220.706ZM44.9957 220L273.996 220.996L274.004 218.996L45.0043 218L44.9957 220Z" fill="#353A70"/>
<circle cx="26" cy="311" r="7" fill="#777DF2"/>
<path d="M118.456 26V17.088L116.344 18.384V16.624L118.488 15.328H120.216V26H118.456ZM126.04 26.16C125.634 26.16 125.272 26.128 124.952 26.064C124.642 26.0107 124.376 25.9467 124.152 25.872V24.32C124.408 24.416 124.674 24.496 124.952 24.56C125.229 24.6133 125.538 24.64 125.88 24.64C126.136 24.64 126.418 24.6027 126.728 24.528C127.037 24.4533 127.341 24.3307 127.64 24.16C127.938 23.9787 128.216 23.7387 128.472 23.44C128.728 23.1307 128.93 22.7467 129.08 22.288C129.229 21.8187 129.304 21.264 129.304 20.624C129.304 19.7813 129.25 19.0987 129.144 18.576C129.037 18.0533 128.882 17.6587 128.68 17.392C128.477 17.1147 128.242 16.928 127.976 16.832C127.709 16.736 127.416 16.688 127.096 16.688C126.648 16.688 126.285 16.768 126.008 16.928C125.73 17.0773 125.522 17.264 125.384 17.488C125.245 17.712 125.149 17.9467 125.096 18.192C125.042 18.4267 125.016 18.624 125.016 18.784C125.016 19.4347 125.197 19.9307 125.56 20.272C125.922 20.6133 126.434 20.784 127.096 20.784C127.533 20.784 127.906 20.72 128.216 20.592C128.536 20.4533 128.797 20.288 129 20.096C129.213 19.8933 129.362 19.6907 129.448 19.488L129.688 20.688C129.602 20.816 129.48 20.9707 129.32 21.152C129.17 21.3227 128.978 21.488 128.744 21.648C128.509 21.808 128.237 21.9413 127.928 22.048C127.618 22.1547 127.277 22.208 126.904 22.208C125.73 22.208 124.824 21.9093 124.184 21.312C123.554 20.704 123.24 19.856 123.24 18.768C123.24 18.2987 123.314 17.8507 123.464 17.424C123.613 16.9973 123.848 16.6133 124.168 16.272C124.488 15.9307 124.888 15.6587 125.368 15.456C125.848 15.2533 126.424 15.152 127.096 15.152C128.461 15.152 129.464 15.5787 130.104 16.432C130.754 17.2853 131.08 18.544 131.08 20.208C131.08 21.2747 130.957 22.1707 130.712 22.896C130.466 23.6107 130.146 24.1867 129.752 24.624C129.368 25.0507 128.952 25.376 128.504 25.6C128.056 25.8133 127.613 25.9573 127.176 26.032C126.738 26.1173 126.36 26.16 126.04 26.16ZM133.167 26V24.128H135.071V26H133.167ZM141.435 26.192C139.963 26.192 138.864 25.7333 138.139 24.816C137.414 23.8987 137.051 22.5227 137.051 20.688C137.051 18.864 137.414 17.4933 138.139 16.576C138.864 15.648 139.963 15.184 141.435 15.184C142.928 15.184 144.032 15.648 144.747 16.576C145.472 17.4933 145.835 18.864 145.835 20.688C145.835 22.5227 145.472 23.8987 144.747 24.816C144.032 25.7333 142.928 26.192 141.435 26.192ZM141.435 24.688C141.744 24.688 142.054 24.6453 142.363 24.56C142.672 24.464 142.955 24.2827 143.211 24.016C143.467 23.7387 143.67 23.3387 143.819 22.816C143.979 22.2827 144.059 21.5733 144.059 20.688C144.059 19.8133 143.979 19.1093 143.819 18.576C143.67 18.0427 143.467 17.6427 143.211 17.376C142.955 17.1093 142.672 16.928 142.363 16.832C142.054 16.736 141.744 16.688 141.435 16.688C141.136 16.688 140.832 16.736 140.523 16.832C140.214 16.928 139.931 17.1093 139.675 17.376C139.419 17.6427 139.211 18.0427 139.051 18.576C138.902 19.1093 138.827 19.8133 138.827 20.688C138.827 21.5733 138.902 22.2827 139.051 22.816C139.211 23.3387 139.419 23.7387 139.675 24.016C139.931 24.2827 140.214 24.464 140.523 24.56C140.832 24.6453 141.136 24.688 141.435 24.688ZM151.456 26.16C150.144 26.16 149.168 25.7333 148.528 24.88C147.898 24.016 147.584 22.7573 147.584 21.104C147.584 20.0373 147.701 19.1467 147.936 18.432C148.181 17.7067 148.501 17.1307 148.896 16.704C149.29 16.2667 149.712 15.9413 150.16 15.728C150.608 15.504 151.05 15.3547 151.488 15.28C151.925 15.1947 152.304 15.152 152.624 15.152C153.018 15.152 153.376 15.184 153.696 15.248C154.016 15.3013 154.288 15.3653 154.512 15.44V16.992C154.256 16.896 153.989 16.8213 153.712 16.768C153.434 16.704 153.125 16.672 152.784 16.672C152.528 16.672 152.245 16.7093 151.936 16.784C151.626 16.8587 151.317 16.9867 151.008 17.168C150.709 17.3387 150.432 17.5787 150.176 17.888C149.93 18.1867 149.733 18.5653 149.584 19.024C149.434 19.4827 149.36 20.0373 149.36 20.688C149.36 21.5307 149.413 22.2133 149.52 22.736C149.626 23.2587 149.776 23.6587 149.968 23.936C150.17 24.2027 150.405 24.384 150.672 24.48C150.938 24.576 151.226 24.624 151.536 24.624C151.994 24.624 152.362 24.5493 152.64 24.4C152.917 24.24 153.125 24.048 153.264 23.824C153.413 23.6 153.509 23.3707 153.552 23.136C153.605 22.8907 153.632 22.688 153.632 22.528C153.632 21.8773 153.45 21.3813 153.088 21.04C152.736 20.6987 152.229 20.528 151.568 20.528C151.13 20.528 150.752 20.5973 150.432 20.736C150.112 20.864 149.85 21.0293 149.648 21.232C149.445 21.424 149.301 21.6213 149.216 21.824L148.976 20.624C149.05 20.496 149.168 20.3467 149.328 20.176C149.488 19.9947 149.685 19.824 149.92 19.664C150.154 19.504 150.421 19.3707 150.72 19.264C151.029 19.1573 151.376 19.104 151.76 19.104C152.933 19.104 153.834 19.408 154.464 20.016C155.104 20.6133 155.424 21.456 155.424 22.544C155.424 23.0027 155.344 23.4507 155.184 23.888C155.034 24.3147 154.8 24.6987 154.48 25.04C154.16 25.3813 153.749 25.6533 153.248 25.856C152.757 26.0587 152.16 26.16 151.456 26.16ZM157.433 26V24.128H159.337V26H157.433ZM161.653 26V24.64C162.015 24.3947 162.421 24.096 162.869 23.744C163.327 23.3813 163.781 22.9813 164.229 22.544C164.687 22.1067 165.103 21.6533 165.477 21.184C165.861 20.704 166.17 20.2347 166.405 19.776C166.639 19.3067 166.757 18.8587 166.757 18.432C166.757 18.112 166.687 17.8187 166.549 17.552C166.41 17.2853 166.175 17.072 165.845 16.912C165.514 16.752 165.077 16.672 164.533 16.672C163.946 16.672 163.423 16.784 162.965 17.008C162.506 17.2213 162.101 17.456 161.749 17.712V16.048C162.133 15.8133 162.586 15.6053 163.109 15.424C163.631 15.2427 164.234 15.152 164.917 15.152C165.759 15.152 166.447 15.296 166.981 15.584C167.514 15.8613 167.903 16.24 168.149 16.72C168.405 17.1893 168.533 17.712 168.533 18.288C168.533 18.7787 168.421 19.2693 168.197 19.76C167.973 20.2507 167.674 20.7307 167.301 21.2C166.938 21.6693 166.538 22.1227 166.101 22.56C165.663 22.9867 165.221 23.3867 164.773 23.76C164.335 24.1227 163.93 24.448 163.557 24.736L163.141 24.336H168.709V26H161.653ZM175.185 26.192C173.713 26.192 172.614 25.7333 171.889 24.816C171.164 23.8987 170.801 22.5227 170.801 20.688C170.801 18.864 171.164 17.4933 171.889 16.576C172.614 15.648 173.713 15.184 175.185 15.184C176.678 15.184 177.782 15.648 178.497 16.576C179.222 17.4933 179.585 18.864 179.585 20.688C179.585 22.5227 179.222 23.8987 178.497 24.816C177.782 25.7333 176.678 26.192 175.185 26.192ZM175.185 24.688C175.494 24.688 175.804 24.6453 176.113 24.56C176.422 24.464 176.705 24.2827 176.961 24.016C177.217 23.7387 177.42 23.3387 177.569 22.816C177.729 22.2827 177.809 21.5733 177.809 20.688C177.809 19.8133 177.729 19.1093 177.569 18.576C177.42 18.0427 177.217 17.6427 176.961 17.376C176.705 17.1093 176.422 16.928 176.113 16.832C175.804 16.736 175.494 16.688 175.185 16.688C174.886 16.688 174.582 16.736 174.273 16.832C173.964 16.928 173.681 17.1093 173.425 17.376C173.169 17.6427 172.961 18.0427 172.801 18.576C172.652 19.1093 172.577 19.8133 172.577 20.688C172.577 21.5733 172.652 22.2827 172.801 22.816C172.961 23.3387 173.169 23.7387 173.425 24.016C173.681 24.2827 173.964 24.464 174.273 24.56C174.582 24.6453 174.886 24.688 175.185 24.688ZM181.622 26V24.64C181.984 24.3947 182.39 24.096 182.838 23.744C183.296 23.3813 183.75 22.9813 184.198 22.544C184.656 22.1067 185.072 21.6533 185.446 21.184C185.83 20.704 186.139 20.2347 186.374 19.776C186.608 19.3067 186.726 18.8587 186.726 18.432C186.726 18.112 186.656 17.8187 186.518 17.552C186.379 17.2853 186.144 17.072 185.814 16.912C185.483 16.752 185.046 16.672 184.502 16.672C183.915 16.672 183.392 16.784 182.934 17.008C182.475 17.2213 182.07 17.456 181.718 17.712V16.048C182.102 15.8133 182.555 15.6053 183.078 15.424C183.6 15.2427 184.203 15.152 184.886 15.152C185.728 15.152 186.416 15.296 186.95 15.584C187.483 15.8613 187.872 16.24 188.118 16.72C188.374 17.1893 188.502 17.712 188.502 18.288C188.502 18.7787 188.39 19.2693 188.166 19.76C187.942 20.2507 187.643 20.7307 187.27 21.2C186.907 21.6693 186.507 22.1227 186.07 22.56C185.632 22.9867 185.19 23.3867 184.742 23.76C184.304 24.1227 183.899 24.448 183.526 24.736L183.11 24.336H188.678V26H181.622ZM194.13 26.128C193.543 26.128 192.999 26.0587 192.498 25.92C192.007 25.7707 191.559 25.5947 191.154 25.392V23.776C191.549 23.9893 191.975 24.1867 192.434 24.368C192.903 24.5387 193.421 24.624 193.986 24.624C194.797 24.624 195.421 24.48 195.858 24.192C196.295 23.8933 196.514 23.4667 196.514 22.912C196.514 22.3467 196.301 21.9093 195.874 21.6C195.458 21.28 194.807 21.12 193.922 21.12H192.594V19.664H193.97C194.642 19.664 195.143 19.536 195.474 19.28C195.815 19.0133 195.986 18.6507 195.986 18.192C195.986 17.8507 195.895 17.5733 195.714 17.36C195.543 17.136 195.293 16.9707 194.962 16.864C194.631 16.7573 194.242 16.704 193.794 16.704C193.357 16.704 192.946 16.7573 192.562 16.864C192.178 16.96 191.789 17.104 191.394 17.296V15.792C191.746 15.6213 192.141 15.4773 192.578 15.36C193.015 15.2427 193.479 15.184 193.97 15.184C194.557 15.184 195.074 15.2587 195.522 15.408C195.981 15.5467 196.365 15.7493 196.674 16.016C196.994 16.272 197.229 16.576 197.378 16.928C197.538 17.28 197.618 17.664 197.618 18.08C197.618 18.432 197.554 18.7413 197.426 19.008C197.309 19.2747 197.159 19.4987 196.978 19.68C196.807 19.8507 196.642 19.984 196.482 20.08C196.333 20.1653 196.226 20.2133 196.162 20.224C196.258 20.2453 196.407 20.32 196.61 20.448C196.823 20.5653 197.047 20.736 197.282 20.96C197.517 21.184 197.714 21.4667 197.874 21.808C198.045 22.1387 198.13 22.528 198.13 22.976C198.13 23.4347 198.039 23.856 197.858 24.24C197.687 24.624 197.431 24.96 197.09 25.248C196.749 25.5253 196.327 25.744 195.826 25.904C195.335 26.0533 194.77 26.128 194.13 26.128Z" fill="black"/>
<path d="M44 60.2265L38.2265 66L44 71.7735L49.7735 66L44 60.2265ZM43 66L43 220L45 220L45 66L43 66Z" fill="#353A70"/>
<path d="M276.66 207.66C275.941 207.66 275.405 207.445 275.05 207.016C274.705 206.577 274.532 205.933 274.532 205.084C274.532 204.225 274.705 203.581 275.05 203.152C275.405 202.723 275.941 202.508 276.66 202.508C277.379 202.508 277.911 202.723 278.256 203.152C278.601 203.581 278.774 204.225 278.774 205.084C278.774 205.933 278.601 206.577 278.256 207.016C277.911 207.445 277.379 207.66 276.66 207.66ZM276.66 206.75C276.781 206.75 276.917 206.713 277.066 206.638C277.225 206.554 277.36 206.395 277.472 206.162C277.593 205.919 277.654 205.56 277.654 205.084C277.654 204.599 277.593 204.239 277.472 204.006C277.36 203.763 277.225 203.605 277.066 203.53C276.917 203.446 276.781 203.404 276.66 203.404C276.539 203.404 276.399 203.446 276.24 203.53C276.091 203.605 275.955 203.763 275.834 204.006C275.722 204.239 275.666 204.599 275.666 205.084C275.666 205.56 275.722 205.919 275.834 206.162C275.955 206.395 276.091 206.554 276.24 206.638C276.399 206.713 276.539 206.75 276.66 206.75ZM282.372 212.112C281.653 212.112 281.117 211.897 280.762 211.468C280.417 211.029 280.244 210.385 280.244 209.536C280.244 208.677 280.417 208.033 280.762 207.604C281.117 207.175 281.653 206.96 282.372 206.96C283.091 206.96 283.623 207.175 283.968 207.604C284.313 208.033 284.486 208.677 284.486 209.536C284.486 210.385 284.313 211.029 283.968 211.468C283.623 211.897 283.091 212.112 282.372 212.112ZM282.372 211.202C282.493 211.202 282.629 211.165 282.778 211.09C282.937 211.006 283.072 210.847 283.184 210.614C283.305 210.371 283.366 210.012 283.366 209.536C283.366 209.051 283.305 208.691 283.184 208.458C283.072 208.215 282.937 208.057 282.778 207.982C282.629 207.898 282.493 207.856 282.372 207.856C282.251 207.856 282.111 207.898 281.952 207.982C281.803 208.057 281.667 208.215 281.546 208.458C281.434 208.691 281.378 209.051 281.378 209.536C281.378 210.012 281.434 210.371 281.546 210.614C281.667 210.847 281.803 211.006 281.952 211.09C282.111 211.165 282.251 211.202 282.372 211.202ZM276.03 212.308L281.728 202.41H282.918L277.22 212.308H276.03Z" fill="black" fill-opacity="0.38"/>
<path opacity="0.7" d="M80 219V66" stroke="#353A70" stroke-opacity="0.47"/>
<path d="M140.5 175C144.09 175 147 177.91 147 181.5V181.5C147 185.09 144.09 188 140.5 188L45 188V175L140.5 175Z" fill="#2F3273"/>
<path d="M185.5 123C189.09 123 192 125.91 192 129.5V129.5C192 133.09 189.09 136 185.5 136L45 136V123L185.5 123Z" fill="#777DF2"/>
</svg>
