<svg width="52" height="52" viewBox="0 0 52 52" fill="none" xmlns="http://www.w3.org/2000/svg">
<path d="M16.2907 15.3684C16.2907 15.3684 17.3267 14.7672 17.9076 14.5072L26.9426 17.8303L41.5554 18.2244C41.5554 18.2244 42.6523 19.3619 42.9773 19.7519L45.6301 27.365L47.771 28.2222C47.771 28.2222 48.2626 29.6928 48.4007 30.2494L47.9579 33.7594L26.776 39.0122L9.76636 34.84L9.81917 24.3831L15.0192 17.6109L16.2907 15.3684Z" fill="#2F2F2F"/>
<path d="M29.7131 24.2003C29.6725 26.2559 29.5587 32.1628 29.5993 35.5916C30.2778 35.6078 31.0212 35.5712 31.8418 35.4859C32.9387 35.3762 34.0843 35.1569 35.1893 34.9456L35.8922 34.8116C37.0256 34.5963 38.0737 34.3281 39.0975 33.9909C40.6778 33.4709 42.4247 32.8006 44.0009 31.8297C42.8431 27.7956 40.7672 24.7691 40.1009 23.8631C35.6322 23.5097 31.3503 23.9809 29.7131 24.2003ZM41.5918 22.9612C42.384 24.0459 44.2853 26.9141 45.4959 30.7694C46.3815 30.0341 47.1453 29.1566 47.7303 28.1206C47.1859 26.6053 46.5278 25.1347 45.7397 23.7331C44.9473 22.3211 44.0237 20.9867 42.9812 19.7478C42.5953 21.0113 41.9818 22.2462 41.5918 22.9612ZM18.3625 17.3428C20.0931 18.005 26.0203 20.3613 29.0834 22.5347C30.4037 22.3397 35.0512 21.7384 40.0684 22.1203C40.7184 20.9219 41.4009 19.3131 41.5512 18.2203C41.4903 18.1594 41.4375 18.0944 41.3765 18.0375C39.2925 16.0794 36.6518 15.0028 33.9868 14.1009C30.2656 12.8416 26.2153 12.3987 22.3356 13.0934C20.8 13.3697 19.3172 13.845 17.9075 14.5072L18.3625 17.3428Z" fill="#757F3F"/>
<path d="M48.3884 30.2616C47.58 31.2975 46.6009 32.1587 45.5528 32.8737C45.5325 32.89 45.5081 32.9022 45.4919 32.9184C43.5662 34.2184 41.4172 35.0553 39.6419 35.6363C38.545 35.9978 37.4278 36.2862 36.2172 36.5137L35.5144 36.6478C34.3687 36.8672 33.1906 37.0947 32.0166 37.2166C31.3259 37.2856 30.6109 37.3425 29.8919 37.3425C27.7469 37.3425 25.5937 36.8387 24.0216 34.6897C23.3878 33.8163 22.6809 33.0809 21.9294 32.5041L21.6166 32.2603C21.1412 31.8825 20.2516 31.1756 19.7925 31.1634L19.8372 29.4288C20.8772 29.4572 21.9294 30.29 22.6972 30.8994L22.9816 31.1228C23.8631 31.7972 24.6878 32.6503 25.4231 33.6619C26.0853 34.5678 26.8937 35.0837 27.8647 35.3559C27.8322 31.6916 27.95 25.5978 27.9866 23.8834C25.0128 21.7994 19.0328 19.4472 17.6069 18.9028C17.0462 19.2481 15.6 20.4506 13.8978 22.1853C13.7272 22.36 13.4997 22.4453 13.2762 22.4453C13.0569 22.4453 12.8375 22.3641 12.6709 22.1975C12.3297 21.8644 12.3216 21.3159 12.6587 20.9706C13.7353 19.8778 15.4416 18.2244 16.6359 17.485L16.2906 15.3644C13.3819 17.1031 10.5097 19.8006 8.78312 22.9369C7.05249 26.0691 6.46749 29.6319 8.11687 33.0809C8.65718 34.1981 9.74187 36.075 10.8306 36.725C11.7934 37.3019 12.8131 37.7934 13.8531 38.2241C14.7753 38.6059 15.5553 39.0853 16.5019 39.3616C17.3469 39.6134 18.2203 39.8856 19.0775 40.0766C19.9428 40.2716 20.8406 40.3325 21.71 40.495C22.4819 40.6372 23.2619 40.7672 24.0419 40.7794C28.0434 40.8322 32.0897 41.0434 36.0181 40.0928C38.4069 39.5159 40.7753 38.7969 43.0219 37.8056C44.1594 37.31 45.2684 36.7413 46.3125 36.075C47.1616 35.5388 48.2787 35.0106 48.7216 34.0519C49.1887 33.0403 48.7906 31.8175 48.5428 30.7938C48.4981 30.6231 48.4372 30.4403 48.3884 30.2616Z" fill="#757F3F"/>
<path d="M12.1672 39.9628C11.7691 39.7272 11.2003 39.6459 10.4284 39.5362C9.41281 39.3941 8.30781 39.1097 7.29219 39.2925C6.41875 39.4509 6.32531 39.6744 6.04094 40.4828C5.59812 41.7544 4.31031 45.565 5.30969 46.7675C5.5575 47.0641 6.13437 47.1697 6.48781 47.2753C7.5075 47.5841 8.59219 47.6531 9.66469 47.7262C10.5787 47.7872 11.4806 47.6206 12.3541 47.3769C13.0081 47.1941 13.2966 47.0397 13.3494 46.3166C13.4672 44.7728 13.1219 43.2494 12.9837 41.7178C12.8862 40.7266 12.6425 40.2391 12.1672 39.9628ZM47.4419 35.3844C47.0641 35.6362 46.6619 35.8597 46.3084 36.0831C45.2644 36.7453 44.1553 37.3141 43.0178 37.8137C40.7712 38.805 38.4028 39.5241 36.0141 40.1009C32.0856 41.0516 28.0394 40.8403 24.0378 40.7875C23.2537 40.7753 22.4737 40.6453 21.7059 40.5031C21.4906 40.4625 21.2794 40.43 21.0641 40.3975L21.2753 42.6522C21.2753 42.6522 22.0391 42.7091 23.4041 42.6237C23.14 45.2359 23.0547 48.0553 23.7209 48.5916C24.0216 48.8353 24.6594 48.88 25.0494 48.945C26.195 49.1359 27.3812 49.1075 28.5594 49.0872C29.5628 49.0709 30.5297 48.8516 31.4559 48.5672C32.1506 48.3559 32.4512 48.2016 32.4391 47.5637C32.4269 46.7472 32.1506 44.1228 31.8703 41.8762C34.4459 41.5391 37.6188 40.9012 40.4869 39.7109C40.5275 40.6128 40.5641 41.3847 40.56 41.5431C40.5356 42.1647 40.5275 43.0137 41.0759 43.4931C42.6034 44.8378 46.3856 44.0537 48.1406 43.4687C49.4487 43.0381 49.0466 41.5147 48.7866 40.625C48.6362 40.0928 48.0309 37.3222 47.4419 35.3844ZM51.6222 26.1137C50.9397 25.4719 49.8184 26.3006 49.1928 26.6337C48.6322 26.9344 48.0756 27.2309 47.5069 27.5112C47.9172 28.5878 48.2747 29.6847 48.5428 30.8059C48.6647 31.3056 48.8191 31.8541 48.8962 32.4025C48.9166 32.3781 48.9369 32.3537 48.9572 32.3334C49.1644 32.0978 49.3512 31.8581 49.5341 31.6022C50.245 30.5947 50.7853 29.4816 51.3662 28.4009C51.6466 27.8606 52.1625 26.6256 51.6222 26.1137Z" fill="#BDCF46"/>
<path d="M21.2794 42.6522C20.8204 42.6684 20.3573 42.6644 19.8819 42.6644C16.4979 42.6644 13.2723 42.575 9.941 41.8194C4.88319 40.6778 0.942567 37.6513 0.256004 32.24C-0.166496 28.9047 0.507879 24.9519 3.0835 22.6159C5.50069 20.4222 9.84757 19.8169 12.8254 20.8284C16.2948 22.0147 18.8216 24.8666 20.2638 28.1572C21.3729 30.6922 22.1244 32.9672 22.5916 35.7013C22.6607 36.1197 23.4285 42.445 22.5307 42.5628C22.1163 42.6116 21.6979 42.64 21.2794 42.6522Z" fill="#BDCF46"/>
<path d="M12.289 25.7847C13.2884 25.6059 14.2675 26.3778 14.4746 27.5153C14.6818 28.6488 14.04 29.7213 13.0406 29.9041C12.0453 30.0828 11.0662 29.3109 10.855 28.1775C10.6478 27.04 11.2896 25.9716 12.289 25.7847ZM3.14433 27.2878C3.42871 26.1706 4.46465 25.4678 5.44371 25.7197C6.42683 25.9716 6.99152 27.0847 6.70715 28.2019C6.41871 29.3191 5.3909 30.0219 4.40777 29.77C3.42871 29.5141 2.85996 28.405 3.14433 27.2878ZM9.66871 32.2116C9.20558 32.4634 8.80746 32.7316 8.26715 32.5325C7.95433 32.4188 7.65777 32.3294 7.38558 32.1263C7.19059 31.9841 6.97121 31.8662 6.77621 31.7241C6.67465 31.6509 6.57715 31.5738 6.47558 31.5006C6.36183 31.4153 6.32121 31.3788 6.17496 31.3584C6.05715 31.3463 5.82558 31.3381 5.73621 31.4356C5.35433 31.8622 5.89058 32.4959 6.17902 32.7844C6.60965 33.2028 7.22308 33.6781 7.78777 33.9219C8.34027 34.1616 8.88871 34.45 9.47777 34.1575C10.1237 33.8325 10.6843 33.3613 11.2531 32.9266C11.6268 32.6422 12.4637 32.1425 12.3175 31.5859C12.2159 31.1797 11.7446 31.265 11.4359 31.3625C11.0459 31.4803 10.6965 31.6794 10.335 31.8622C10.1115 31.9719 9.89215 32.0938 9.66871 32.2116Z" fill="#2F2F2F"/>
</svg>
