<svg width="45" height="45" viewBox="0 0 45 45" fill="none" xmlns="http://www.w3.org/2000/svg">
<path d="M40.4351 17.4987C40.4351 17.4987 44.7413 6.48375 42.4988 2.50124C41.7438 1.15999 32.4988 4.99874 29.0951 9.30374C29.0951 9.30374 25.8626 8.22874 22.5001 8.22874C19.1376 8.22874 15.9051 9.30374 15.9051 9.30374C12.5013 4.99874 3.2563 1.15999 2.5013 2.50124C0.258802 6.48375 4.56505 17.4987 4.56505 17.4987C3.4438 19.6512 3.0238 22.93 2.6213 26.4487C2.1788 30.3062 3.0588 33.3812 3.4438 34.06C3.8813 34.8312 6.09755 37.3162 9.0488 39.4425C13.5326 42.6712 20.2576 43.7487 22.5001 43.7487C24.7426 43.7487 31.4676 42.6725 35.9513 39.4425C38.9026 37.3162 41.1188 34.8312 41.5563 34.06C41.9413 33.3812 42.8213 30.3062 42.3801 26.4487C41.9751 22.9312 41.5563 19.6512 40.4351 17.4987Z" fill="#FFCC4D"/>
<path d="M2.94867 3.71375C3.19867 2.965 9.63367 6.43 11.0962 10.4687C11.0962 10.4687 6.33617 13.7487 5.43617 16.2487C5.43617 16.2487 1.69867 7.46375 2.94867 3.71375Z" fill="#F18F26"/>
<path d="M7.4751 9.07625C7.4751 7.30875 14.2963 12.4925 13.0463 13.7425C11.7963 14.9925 11.4776 14.6425 10.2276 15.8925C8.9776 17.1425 7.4751 10.3263 7.4751 9.07625Z" fill="#FFCC4D"/>
<path d="M42.0513 3.71375C41.8013 2.965 35.3663 6.43 33.9038 10.4687C33.9038 10.4687 38.6638 13.7487 39.5638 16.2487C39.5638 16.2487 43.3013 7.46375 42.0513 3.71375Z" fill="#F18F26"/>
<path d="M37.525 9.07625C37.525 7.30875 30.7038 12.4925 31.9538 13.7425C33.2038 14.9925 33.5225 14.6425 34.7725 15.8925C36.0225 17.1425 37.525 10.3263 37.525 9.07625Z" fill="#FFCC4D"/>
<path d="M17.5012 25.0012C17.5118 25.336 17.455 25.6695 17.3342 25.982C17.2134 26.2944 17.031 26.5793 16.7979 26.8199C16.5649 27.0605 16.2858 27.2517 15.9774 27.3824C15.6689 27.513 15.3374 27.5803 15.0024 27.5803C14.6675 27.5803 14.3359 27.513 14.0275 27.3824C13.7191 27.2517 13.44 27.0605 13.2069 26.8199C12.9739 26.5793 12.7915 26.2944 12.6707 25.982C12.5499 25.6695 12.4931 25.336 12.5037 25.0012C12.5286 24.3554 12.8025 23.7444 13.2682 23.2962C13.7338 22.848 14.3549 22.5976 15.0012 22.5974C15.6475 22.5973 16.2687 22.8474 16.7346 23.2953C17.2005 23.7433 17.4748 24.3542 17.4999 25M32.4974 25C32.508 25.3348 32.4512 25.6683 32.3304 25.9807C32.2096 26.2931 32.0273 26.5781 31.7942 26.8186C31.5611 27.0592 31.2821 27.2505 30.9736 27.3811C30.6652 27.5117 30.3337 27.579 29.9987 27.579C29.6637 27.579 29.3322 27.5117 29.0238 27.3811C28.7153 27.2505 28.4363 27.0592 28.2032 26.8186C27.9701 26.5781 27.7878 26.2931 27.667 25.9807C27.5461 25.6683 27.4894 25.3348 27.4999 25C27.5205 24.351 27.7927 23.7354 28.2591 23.2835C28.7255 22.8317 29.3493 22.579 29.9987 22.579C30.648 22.579 31.2719 22.8317 31.7383 23.2835C32.2047 23.7354 32.4769 24.351 32.4974 25Z" fill="#292F33"/>
<path d="M2.75115 38.0725C2.62141 38.0724 2.49492 38.0319 2.38922 37.9567C2.28352 37.8815 2.20385 37.7752 2.16126 37.6527C2.11867 37.5301 2.11527 37.3974 2.15154 37.2728C2.1878 37.1482 2.26193 37.038 2.36365 36.9575C2.56615 36.7987 7.38865 33.0575 15.6736 33.7012C15.8387 33.714 15.9919 33.7917 16.0997 33.9173C16.2075 34.0429 16.2611 34.2062 16.2486 34.3712C16.2224 34.715 15.9274 34.9975 15.5774 34.9462C7.78615 34.3537 3.18365 37.9037 3.13865 37.94C3.0273 38.0251 2.89128 38.0716 2.75115 38.0725ZM13.8361 32.2437C13.773 32.2438 13.7103 32.2345 13.6499 32.2162C7.6624 30.345 2.72865 31.7825 2.67865 31.7962C2.6001 31.8199 2.51767 31.8278 2.43605 31.8196C2.35444 31.8114 2.27524 31.7872 2.20299 31.7483C2.13073 31.7095 2.06683 31.6568 2.01493 31.5933C1.96304 31.5298 1.92416 31.4567 1.90052 31.3781C1.87688 31.2996 1.86895 31.2171 1.87717 31.1355C1.88539 31.0539 1.9096 30.9747 1.94843 30.9025C1.98726 30.8302 2.03993 30.7663 2.10346 30.7144C2.16698 30.6625 2.2401 30.6236 2.31865 30.6C2.5349 30.535 7.67615 29.0412 14.0211 31.0225C14.1634 31.0672 14.285 31.1613 14.364 31.2878C14.4429 31.4143 14.4741 31.5649 14.4517 31.7124C14.4294 31.8598 14.3551 31.9944 14.2422 32.0919C14.1293 32.1893 13.9853 32.2432 13.8361 32.2437ZM42.2486 38.0725C42.3784 38.0724 42.5049 38.0319 42.6106 37.9567C42.7163 37.8815 42.7959 37.7752 42.8385 37.6527C42.8811 37.5301 42.8845 37.3974 42.8483 37.2728C42.812 37.1482 42.7379 37.038 42.6361 36.9575C42.4336 36.7987 37.6111 33.0575 29.3261 33.7012C29.1611 33.714 29.0079 33.7917 28.9001 33.9173C28.7923 34.0429 28.7387 34.2062 28.7511 34.3712C28.7786 34.715 29.0724 34.9975 29.4224 34.9462C37.2136 34.3537 41.8161 37.9037 41.8611 37.94C41.9774 38.0275 42.1136 38.0725 42.2486 38.0725ZM31.1636 32.2437C31.2249 32.2437 31.2886 32.235 31.3499 32.2162C37.3374 30.345 42.2711 31.7825 42.3211 31.7962C42.3997 31.8199 42.4821 31.8278 42.5637 31.8196C42.6454 31.8114 42.7245 31.7872 42.7968 31.7483C42.8691 31.7095 42.933 31.6568 42.9849 31.5933C43.0368 31.5298 43.0756 31.4567 43.0993 31.3781C43.1229 31.2996 43.1308 31.2171 43.1226 31.1355C43.1144 31.0539 43.0902 30.9747 43.0514 30.9025C43.0125 30.8302 42.9599 30.7663 42.8963 30.7144C42.8328 30.6625 42.7597 30.6236 42.6811 30.6C42.4649 30.535 37.3236 29.0412 30.9786 31.0225C30.8364 31.0672 30.7148 31.1613 30.6358 31.2878C30.5568 31.4143 30.5257 31.5649 30.5481 31.7124C30.5704 31.8598 30.6447 31.9944 30.7576 32.0919C30.8705 32.1893 31.0145 32.2432 31.1636 32.2437Z" fill="#FEE7B8"/>
<path d="M30.92 38.6225C30.8621 38.4672 30.7449 38.3412 30.5942 38.2723C30.4435 38.2034 30.2715 38.1972 30.1162 38.255C29.4262 38.5125 28.7712 38.6438 28.1675 38.6438C26.7275 38.6438 26.2162 38.2613 25.6262 37.82C25.0625 37.3975 24.4312 36.9263 23.1387 36.8163V33.8925C23.1387 33.7267 23.0729 33.5678 22.9557 33.4506C22.8385 33.3333 22.6795 33.2675 22.5137 33.2675C22.348 33.2675 22.189 33.3333 22.0718 33.4506C21.9546 33.5678 21.8887 33.7267 21.8887 33.8925V36.8588C20.8762 37.0025 20.2062 37.4075 19.6187 37.7875C18.9087 38.2463 18.295 38.6438 17.015 38.6438C16.4125 38.6438 15.7575 38.5138 15.0675 38.255C14.9138 38.2047 14.7467 38.2157 14.601 38.2859C14.4553 38.356 14.3424 38.4797 14.2859 38.6312C14.2293 38.7827 14.2336 38.9502 14.2977 39.0986C14.3619 39.247 14.4809 39.3649 14.63 39.4275C15.46 39.7363 16.2625 39.8938 17.0137 39.8938C18.6625 39.8938 19.5312 39.3325 20.2975 38.8375C20.9525 38.4138 21.5225 38.0488 22.6075 38.0438C23.8475 38.0538 24.305 38.3913 24.8762 38.82C25.5487 39.3238 26.31 39.8938 28.1675 39.8938C28.9187 39.8938 29.7225 39.7363 30.5525 39.4275C30.6295 39.3989 30.7002 39.3553 30.7604 39.2993C30.8205 39.2433 30.8691 39.176 30.9032 39.1012C30.9374 39.0265 30.9564 38.9457 30.9593 38.8635C30.9622 38.7814 30.9488 38.6995 30.92 38.6225Z" fill="#67757F"/>
<path d="M24.2499 31.0087H20.7499C19.9499 31.0087 19.2961 31.6625 19.2961 32.4625C19.2961 33.2612 19.9499 33.9162 20.7499 33.9162H21.0461V34.3475C21.0461 35.1462 21.6999 35.8012 22.4999 35.8012C23.2999 35.8012 23.9536 35.1475 23.9536 34.3475V33.9162H24.2499C25.0486 33.9162 25.7036 33.2625 25.7036 32.4625C25.7036 31.6625 25.0486 31.0087 24.2499 31.0087Z" fill="#E75A70"/>
<path d="M22.5275 21.4425C22.3618 21.4425 22.2028 21.3766 22.0856 21.2594C21.9684 21.1422 21.9025 20.9833 21.9025 20.8175V10.4625C21.9025 10.2967 21.9684 10.1378 22.0856 10.0206C22.2028 9.90334 22.3618 9.83749 22.5275 9.83749C22.6933 9.83749 22.8523 9.90334 22.9695 10.0206C23.0867 10.1378 23.1525 10.2967 23.1525 10.4625V20.8175C23.1525 21.1637 22.8738 21.4425 22.5275 21.4425ZM26.25 19.465C26.0843 19.465 25.9253 19.3991 25.8081 19.2819C25.6909 19.1647 25.625 19.0058 25.625 18.84C25.625 15.2375 27.165 12.3275 27.2313 12.205C27.3107 12.0608 27.4438 11.9537 27.6016 11.907C27.7595 11.8604 27.9294 11.8779 28.0744 11.9557C28.2195 12.0336 28.328 12.1656 28.3763 12.3229C28.4246 12.4803 28.4089 12.6504 28.3325 12.7962C28.3175 12.8225 26.875 15.5625 26.875 18.84C26.875 19.0058 26.8092 19.1647 26.692 19.2819C26.5748 19.3991 26.4158 19.465 26.25 19.465ZM18.75 19.465C18.5843 19.465 18.4253 19.3991 18.3081 19.2819C18.1909 19.1647 18.125 19.0058 18.125 18.84C18.125 15.5612 16.6813 12.8225 16.6663 12.7962C16.6001 12.6515 16.5916 12.487 16.6423 12.3361C16.6931 12.1853 16.7994 12.0595 16.9396 11.9842C17.0799 11.9089 17.2435 11.8898 17.3973 11.9308C17.551 11.9719 17.6834 12.0699 17.7675 12.205C17.8338 12.3275 19.3738 15.2375 19.3738 18.84C19.3739 18.922 19.3579 19.0033 19.3267 19.0791C19.2954 19.1549 19.2495 19.2238 19.1915 19.2819C19.1336 19.3399 19.0648 19.386 18.989 19.4174C18.9133 19.4488 18.832 19.465 18.75 19.465Z" fill="#F18F26"/>
</svg>
