<svg width="44" height="44" viewBox="0 0 44 44" fill="none" xmlns="http://www.w3.org/2000/svg">
<path d="M18.3333 33V40.3333C18.3333 40.3333 18.3333 44 21.9999 44C25.6666 44 25.6666 40.3333 25.6666 40.3333V33H18.3333Z" fill="#DD2E44"/>
<path d="M18.3333 40.3333L18.3345 40.3786C19.6068 40.3358 20.7985 40.0437 21.5514 38.8068C21.5973 38.7284 21.6629 38.6635 21.7417 38.6183C21.8205 38.5732 21.9097 38.5494 22.0005 38.5494C22.0913 38.5494 22.1806 38.5732 22.2594 38.6183C22.3382 38.6635 22.4038 38.7284 22.4497 38.8068C23.2026 40.0424 24.3943 40.3358 25.6666 40.3786V33H18.3333V40.3333Z" fill="#BE1931"/>
<path d="M39.055 26.4232C39.055 34.0939 32.9439 34.0939 32.9439 34.0939H10.9439C10.9439 34.0939 4.83276 34.0939 4.83276 26.4232C4.83276 18.205 10.9439 3.66666 21.9439 3.66666C32.9439 3.66666 39.055 19.4272 39.055 26.4232Z" fill="#D99E82"/>
<path d="M22.0001 24.4444C13.4445 24.4444 9.77783 28.7552 9.77783 32.2606C9.77783 34.0434 10.4861 35.7532 11.7467 37.0139C13.0074 38.2745 14.7172 38.9828 16.5001 38.9828C18.4617 38.9828 20.2181 38.1712 21.4488 35.6009C21.4969 35.4952 21.5744 35.4056 21.6721 35.3428C21.7697 35.28 21.8833 35.2466 21.9994 35.2466C22.1155 35.2466 22.2292 35.28 22.3268 35.3428C22.4245 35.4056 22.5019 35.4952 22.5501 35.6009C23.7808 38.1712 25.5384 38.9828 27.4988 38.9828C29.2817 38.9828 30.9915 38.2745 32.2522 37.0139C33.5128 35.7532 34.2211 34.0434 34.2211 32.2606C34.2223 28.7552 30.5556 24.4444 22.0001 24.4444Z" fill="#F4C7B5"/>
<path d="M18.3332 27.9828C17.111 29.205 20.7777 32.8717 21.9999 32.8717C23.2221 32.8717 26.8888 29.205 25.6666 27.9828C24.4443 26.7606 19.5554 26.7606 18.3332 27.9828ZM15.8888 23.2222C14.5443 23.2222 13.4443 22.1222 13.4443 20.7778V18.3333C13.4443 16.9889 14.5443 15.8889 15.8888 15.8889C17.2332 15.8889 18.3332 16.9889 18.3332 18.3333V20.7778C18.3332 22.1222 17.2332 23.2222 15.8888 23.2222ZM28.111 23.2222C26.7666 23.2222 25.6666 22.1222 25.6666 20.7778V18.3333C25.6666 16.9889 26.7666 15.8889 28.111 15.8889C29.4554 15.8889 30.5554 16.9889 30.5554 18.3333V20.7778C30.5554 22.1222 29.4554 23.2222 28.111 23.2222Z" fill="#292F33"/>
<path d="M18.3332 4.40978C17.0389 2.68767 14.2767 1.07678 3.45633 5.13333C-1.60856 7.03267 0.865215 21.7604 4.80933 22.715C6.1611 22.715 10.2189 22.715 10.2189 11.8959C10.2189 11.627 10.2164 11.3789 10.2128 11.132C12.6499 7.69756 15.2777 5.93633 18.3332 4.40978ZM40.5434 5.13333C29.7231 1.07678 26.9609 2.68767 25.6665 4.40978C28.7221 5.93755 31.3499 7.69878 33.787 11.1332C33.7833 11.3789 33.7809 11.627 33.7809 11.8971C33.7809 22.7162 37.8374 22.7162 39.1904 22.7162C43.1345 21.7604 45.6083 7.03267 40.5434 5.13333Z" fill="#662113"/>
<path d="M28.7222 31.7778C29.0597 31.7778 29.3333 31.5042 29.3333 31.1667C29.3333 30.8292 29.0597 30.5556 28.7222 30.5556C28.3847 30.5556 28.1111 30.8292 28.1111 31.1667C28.1111 31.5042 28.3847 31.7778 28.7222 31.7778Z" fill="#D99E82"/>
<path d="M14.0554 31.7778C14.393 31.7778 14.6666 31.5042 14.6666 31.1667C14.6666 30.8292 14.393 30.5556 14.0554 30.5556C13.7179 30.5556 13.4443 30.8292 13.4443 31.1667C13.4443 31.5042 13.7179 31.7778 14.0554 31.7778Z" fill="#D99E82"/>
<path d="M31.1668 34.2222C31.5043 34.2222 31.7779 33.9486 31.7779 33.6111C31.7779 33.2736 31.5043 33 31.1668 33C30.8293 33 30.5557 33.2736 30.5557 33.6111C30.5557 33.9486 30.8293 34.2222 31.1668 34.2222Z" fill="#D99E82"/>
<path d="M12.8333 34.2222C13.1708 34.2222 13.4444 33.9486 13.4444 33.6111C13.4444 33.2736 13.1708 33 12.8333 33C12.4958 33 12.2222 33.2736 12.2222 33.6111C12.2222 33.9486 12.4958 34.2222 12.8333 34.2222Z" fill="#D99E82"/>
<path d="M28.1111 35.4444C28.7862 35.4444 29.3334 34.8972 29.3334 34.2222C29.3334 33.5472 28.7862 33 28.1111 33C27.4361 33 26.8889 33.5472 26.8889 34.2222C26.8889 34.8972 27.4361 35.4444 28.1111 35.4444Z" fill="#D99E82"/>
<path d="M15.889 35.4444C16.564 35.4444 17.1112 34.8972 17.1112 34.2222C17.1112 33.5472 16.564 33 15.889 33C15.214 33 14.6667 33.5472 14.6667 34.2222C14.6667 34.8972 15.214 35.4444 15.889 35.4444Z" fill="#D99E82"/>
<path d="M12.0791 8.83911C11.7626 8.01656 11.3043 7.13167 10.6418 6.46922C10.5283 6.35575 10.3936 6.26573 10.2454 6.20432C10.0971 6.14291 9.93818 6.1113 9.7777 6.1113C9.61722 6.1113 9.45831 6.14291 9.31005 6.20432C9.16178 6.26573 9.02707 6.35575 8.91359 6.46922C8.80011 6.5827 8.7101 6.71742 8.64869 6.86568C8.58727 7.01395 8.55566 7.17285 8.55566 7.33334C8.55566 7.49382 8.58727 7.65272 8.64869 7.80099C8.7101 7.94925 8.80011 8.08397 8.91359 8.19745C9.61026 8.89411 10.2165 10.5612 10.2189 11.0648C10.3961 10.571 11.2444 9.65922 12.0791 8.83911ZM31.8999 8.83911C32.2165 8.01778 32.6748 7.13167 33.3373 6.46922C33.4507 6.35575 33.5855 6.26573 33.7337 6.20432C33.882 6.14291 34.0409 6.1113 34.2014 6.1113C34.3618 6.1113 34.5208 6.14291 34.669 6.20432C34.8173 6.26573 34.952 6.35575 35.0655 6.46922C35.179 6.5827 35.269 6.71742 35.3304 6.86568C35.3918 7.01395 35.4234 7.17285 35.4234 7.33334C35.4234 7.49382 35.3918 7.65272 35.3304 7.80099C35.269 7.94925 35.179 8.08397 35.0655 8.19745C34.3688 8.89411 33.7626 10.5612 33.7601 11.0648C33.5829 10.571 32.7347 9.65922 31.8999 8.83911Z" fill="#380F09"/>
</svg>
