<svg width="92" height="85" viewBox="0 0 92 85" fill="none" xmlns="http://www.w3.org/2000/svg">
<path d="M28.2152 16.3928C24.5723 9.56248 0.590192 11.6875 0.590192 11.6875C0.590192 11.6875 -2.29374 35.9732 4.68841 39.7678C10.0009 42.6518 31.0991 21.8571 28.2152 16.3928Z" fill="#FC97B2"/>
<path d="M23.6618 20.0357C21.385 15.7857 6.51001 17.1518 6.51001 17.1518C6.51001 17.1518 4.84037 32.3304 9.09037 34.6072C12.4297 36.4286 25.4832 23.5268 23.6618 20.0357Z" fill="#FFD7E4"/>
<path d="M86.0456 39.6161C92.8759 35.9732 90.7509 12.1429 90.7509 12.1429C90.7509 12.1429 66.3134 9.25894 62.5188 16.2411C59.6349 21.5536 80.4295 42.5 86.0456 39.6161Z" fill="#FC97B2"/>
<path d="M82.2509 35.0625C86.5009 32.7857 85.1348 18.0625 85.1348 18.0625C85.1348 18.0625 69.9562 16.2411 67.5277 20.6428C65.858 23.9821 78.9116 36.8839 82.2509 35.0625Z" fill="#FFD7E4"/>
<path d="M86.1972 53.7321C86.1972 80.1429 67.9829 85 45.5187 85C23.0544 85 4.84009 80.1429 4.84009 53.7321C4.84009 27.3214 29.8847 8.34821 45.5187 8.34821C61.1526 8.34821 86.1972 27.3214 86.1972 53.7321Z" fill="#FC97B2"/>
<path d="M66.7686 69.5178C66.7686 81.8125 57.2061 80.4464 45.5186 80.4464C33.8311 80.4464 24.2686 81.8125 24.2686 69.5178C24.2686 57.2232 33.8311 51.1518 45.5186 51.1518C57.2061 51.1518 66.7686 57.2232 66.7686 69.5178Z" fill="#FFD7E4"/>
<path d="M35.9561 76.3482C38.8063 76.3482 41.1168 72.0669 41.1168 66.7857C41.1168 61.5045 38.8063 57.2232 35.9561 57.2232C33.1059 57.2232 30.7954 61.5045 30.7954 66.7857C30.7954 72.0669 33.1059 76.3482 35.9561 76.3482Z" fill="#BF7B90"/>
<path d="M55.0814 76.3482C57.9315 76.3482 60.2421 72.0669 60.2421 66.7857C60.2421 61.5045 57.9315 57.2232 55.0814 57.2232C52.2312 57.2232 49.9207 61.5045 49.9207 66.7857C49.9207 72.0669 52.2312 76.3482 55.0814 76.3482Z" fill="#BF7B90"/>
<path d="M45.5186 28.2321C45.5186 28.2321 40.9651 13.0536 30.7954 10.1696C30.7954 10.1696 35.349 7.58929 38.6883 8.80357C38.6883 8.80357 38.8401 6.07143 35.9561 4.09821C35.9561 4.09821 42.4829 2.73214 45.8222 7.28571C45.8222 7.28571 46.2776 2.42857 45.0633 0C45.0633 0 55.8401 2.58036 58.724 11.8393C58.724 11.8393 47.6436 15.0268 45.5186 28.2321Z" fill="#BF7B90"/>
<path d="M20.6258 54.9464C23.2245 54.9464 25.3311 51.1408 25.3311 46.4464C25.3311 41.752 23.2245 37.9464 20.6258 37.9464C18.0271 37.9464 15.9204 41.752 15.9204 46.4464C15.9204 51.1408 18.0271 54.9464 20.6258 54.9464Z" fill="#493B30"/>
<path d="M70.4117 54.6428C73.0104 54.6428 75.117 50.8372 75.117 46.1428C75.117 41.4484 73.0104 37.6428 70.4117 37.6428C67.813 37.6428 65.7063 41.4484 65.7063 46.1428C65.7063 50.8372 67.813 54.6428 70.4117 54.6428Z" fill="#493B30"/>
</svg>
