<svg width="45" height="45" viewBox="0 0 45 45" fill="none" xmlns="http://www.w3.org/2000/svg">
<path d="M4.97771 9.21893C4.97771 9.21893 0 11.7078 0 22.9076C0 22.9076 7.46657 21.6632 8.711 19.1744C8.711 19.1744 11.1999 3.93011 4.97771 9.21893ZM39.8155 9.27244C39.8155 9.27244 44.7932 11.7613 44.7932 22.9612C44.7932 22.9612 37.3266 21.718 36.0822 19.2291C36.0822 19.2291 33.5933 3.98362 39.8155 9.27244Z" fill="#99AAB5"/>
<path d="M1.24438 0.50793C-0.0124972 1.73991 2.4888 10.4634 7.46652 11.7078C12.4442 12.9522 12.4442 5.48564 11.1998 5.48564C6.22209 5.48564 3.7855 -1.98093 1.24438 0.50793ZM43.9245 0.50793C45.1827 1.73991 42.6801 10.4634 37.7024 11.7078C32.7247 12.9522 32.7247 5.48564 33.9691 5.48564C38.9468 5.48564 41.3847 -1.98093 43.9245 0.50793Z" fill="#FFE8B6"/>
<path d="M27.3474 37.8408H17.4529C10.5625 37.8408 4.97754 32.2558 4.97754 25.3666V14.2278C4.97754 7.33736 10.5625 1.75237 17.4529 1.75237H27.3474C34.2365 1.75237 39.8215 7.33736 39.8215 14.2278V25.3666C39.8215 32.2558 34.2365 37.8408 27.3474 37.8408Z" fill="#CCD6DD"/>
<path d="M43.555 34.1075C43.555 40.9792 37.9824 44.0629 31.1107 44.0629H13.6887C6.81569 44.0629 1.24438 40.9792 1.24438 34.1075C1.24438 27.2358 6.81569 21.6632 13.6887 21.6632H31.1107C37.9824 21.6632 43.555 27.2358 43.555 34.1075Z" fill="#E6AAAA"/>
<path d="M11.8222 35.3519C12.8531 35.3519 13.6889 33.6805 13.6889 31.6186C13.6889 29.5568 12.8531 27.8854 11.8222 27.8854C10.7913 27.8854 9.95557 29.5568 9.95557 31.6186C9.95557 33.6805 10.7913 35.3519 11.8222 35.3519Z" fill="#C1694F"/>
<path d="M32.9772 35.3519C34.0082 35.3519 34.8439 33.6805 34.8439 31.6186C34.8439 29.5568 34.0082 27.8854 32.9772 27.8854C31.9463 27.8854 31.1106 29.5568 31.1106 31.6186C31.1106 33.6805 31.9463 35.3519 32.9772 35.3519Z" fill="#C1694F"/>
<path d="M13.6887 14.1966C13.6887 14.1966 13.6887 11.7078 16.1776 11.7078C18.6664 11.7078 18.6664 14.1966 18.6664 14.1966V16.6855C18.6664 16.6855 18.6664 19.1744 16.1776 19.1744C13.6887 19.1744 13.6887 16.6855 13.6887 16.6855V14.1966ZM26.133 14.1966C26.133 14.1966 26.133 11.7078 28.6219 11.7078C31.1107 11.7078 31.1107 14.1966 31.1107 14.1966V16.6855C31.1107 16.6855 31.1107 19.1744 28.6219 19.1744C26.133 19.1744 26.133 16.6855 26.133 16.6855V14.1966Z" fill="#272B2B"/>
</svg>
