<svg width="45" height="47" viewBox="0 0 45 47" fill="none" xmlns="http://www.w3.org/2000/svg">
<g filter="url(#filter0_d_38_194)">
<path d="M41 11.7624V11.8975C41 13.4885 41 14.2858 40.6171 14.937C40.2341 15.5882 39.5367 15.9749 38.1455 16.75L36.6784 17.564C37.6885 14.1452 38.0271 10.4711 38.151 7.32983L38.1695 6.92098L38.1732 6.82478C39.3776 7.24288 40.0546 7.55553 40.4764 8.14013C41 8.86718 41 9.83288 41 11.7624ZM4 11.7624V11.8975C4 13.4885 4 14.2858 4.38295 14.937C4.7659 15.5882 5.46335 15.9749 6.85455 16.75L8.32345 17.564C7.3115 14.1452 6.97295 10.4711 6.849 7.32983L6.8305 6.92098L6.82865 6.82478C5.62245 7.24288 4.94535 7.55553 4.52355 8.14013C4 8.86718 4 9.83472 4 11.7624Z" fill="#FFCA63"/>
<path fill-rule="evenodd" clip-rule="evenodd" d="M22.4999 0.36274C25.8003 0.36274 28.5179 0.65319 30.5973 1.00469C32.7045 1.35989 33.7571 1.53749 34.6377 2.62159C35.5183 3.70569 35.4702 4.87674 35.3777 7.21884C35.0595 15.2645 33.3242 25.3118 23.8874 26.1998V32.7377H26.5329C26.9604 32.738 27.3746 32.8863 27.7051 33.1575C28.0357 33.4286 28.2621 33.8059 28.3459 34.2251L28.6974 35.9752H33.5999C33.9678 35.9752 34.3208 36.1214 34.581 36.3816C34.8412 36.6418 34.9874 36.9948 34.9874 37.3627C34.9874 37.7307 34.8412 38.0836 34.581 38.3438C34.3208 38.6041 33.9678 38.7502 33.5999 38.7502H11.3999C11.0319 38.7502 10.6789 38.6041 10.4187 38.3438C10.1585 38.0836 10.0124 37.7307 10.0124 37.3627C10.0124 36.9948 10.1585 36.6418 10.4187 36.3816C10.6789 36.1214 11.0319 35.9752 11.3999 35.9752H16.3024L16.6539 34.2251C16.7376 33.8059 16.9641 33.4286 17.2946 33.1575C17.6251 32.8863 18.0393 32.738 18.4669 32.7377H21.1124V26.1998C11.6774 25.3118 9.94205 15.2626 9.62385 7.21884C9.5295 4.87674 9.48325 3.70384 10.3639 2.62159C11.2426 1.53749 12.2953 1.35989 14.4024 1.00469C17.079 0.566011 19.7875 0.351284 22.4999 0.36274ZM24.2611 8.13089L24.0798 7.80529C23.3768 6.54174 23.0253 5.91274 22.4999 5.91274C21.9745 5.91274 21.623 6.54174 20.92 7.80529L20.7387 8.13089C20.5389 8.48979 20.439 8.66739 20.2836 8.78579C20.1263 8.90419 19.9321 8.94859 19.5436 9.03554L19.1921 9.11694C17.8268 9.42589 17.1441 9.57944 16.9813 10.1011C16.8185 10.6247 17.2847 11.1686 18.2153 12.2564L18.4558 12.5376C18.7203 12.8465 18.8535 13.0001 18.9127 13.1925C18.9719 13.3849 18.9516 13.5902 18.9127 14.0028L18.8757 14.3783C18.7351 15.8306 18.6648 16.5576 19.0885 16.8795C19.514 17.2014 20.1541 16.9073 21.4324 16.319L21.7617 16.1673C22.1262 16.0008 22.3075 15.9175 22.4999 15.9175C22.6923 15.9175 22.8736 16.0008 23.238 16.1673L23.5673 16.319C24.8457 16.9091 25.4858 17.2014 25.9113 16.8795C26.3368 16.5576 26.2646 15.8306 26.124 14.3783L26.087 14.0028C26.0482 13.5902 26.0278 13.3849 26.087 13.1925C26.1462 13.0019 26.2794 12.8465 26.544 12.5376L26.7845 12.2564C27.715 11.1686 28.1812 10.6247 28.0184 10.1011C27.8556 9.57944 27.173 9.42589 25.8077 9.11694L25.4562 9.03554C25.0677 8.94859 24.8734 8.90604 24.7162 8.78579C24.5608 8.66739 24.4609 8.48979 24.2611 8.13089Z" fill="#FFCA63"/>
</g>
<defs>
<filter id="filter0_d_38_194" x="0" y="0.362305" width="45" height="46.3879" filterUnits="userSpaceOnUse" color-interpolation-filters="sRGB">
<feFlood flood-opacity="0" result="BackgroundImageFix"/>
<feColorMatrix in="SourceAlpha" type="matrix" values="0 0 0 0 0 0 0 0 0 0 0 0 0 0 0 0 0 0 127 0" result="hardAlpha"/>
<feOffset dy="4"/>
<feGaussianBlur stdDeviation="2"/>
<feComposite in2="hardAlpha" operator="out"/>
<feColorMatrix type="matrix" values="0 0 0 0 0 0 0 0 0 0 0 0 0 0 0 0 0 0 0.25 0"/>
<feBlend mode="normal" in2="BackgroundImageFix" result="effect1_dropShadow_38_194"/>
<feBlend mode="normal" in="SourceGraphic" in2="effect1_dropShadow_38_194" result="shape"/>
</filter>
</defs>
</svg>
