<svg width="315" height="350" viewBox="0 0 315 350" fill="none" xmlns="http://www.w3.org/2000/svg">
<path d="M48.264 343V332.328H53C54.1093 332.328 54.9573 332.6 55.544 333.144C56.1413 333.677 56.44 334.477 56.44 335.544C56.44 336.099 56.328 336.611 56.104 337.08C55.88 337.549 55.5547 337.933 55.128 338.232C54.7013 338.531 54.1947 338.701 53.608 338.744L53.8 338.2L56.968 343H54.776L51.816 338.216L52.632 338.968H50.024V343H48.264ZM50.024 337.528H52.504C53.208 337.528 53.7307 337.373 54.072 337.064C54.424 336.755 54.6 336.285 54.6 335.656C54.6 335.069 54.4613 334.616 54.184 334.296C53.9173 333.976 53.4533 333.816 52.792 333.816H50.024V337.528ZM62.2806 343.24C61.4913 343.24 60.8033 343.08 60.2166 342.76C59.6406 342.44 59.1926 341.965 58.8726 341.336C58.5633 340.707 58.4086 339.939 58.4086 339.032C58.4086 337.635 58.734 336.579 59.3846 335.864C60.046 335.139 60.9633 334.776 62.1366 334.776C63.0006 334.776 63.6993 334.968 64.2326 335.352C64.766 335.736 65.15 336.275 65.3846 336.968C65.63 337.651 65.7473 338.451 65.7366 339.368H59.4166L59.3686 338.12H64.4566L64.0566 338.52C64.0246 337.699 63.854 337.101 63.5446 336.728C63.2353 336.344 62.75 336.152 62.0886 336.152C61.662 336.152 61.2993 336.243 61.0006 336.424C60.702 336.595 60.4726 336.893 60.3126 337.32C60.1633 337.736 60.0886 338.312 60.0886 339.048C60.0886 339.944 60.2966 340.627 60.7126 341.096C61.1286 341.555 61.742 341.784 62.5526 341.784C62.9153 341.784 63.2513 341.752 63.5606 341.688C63.8806 341.624 64.174 341.544 64.4406 341.448C64.7073 341.341 64.9366 341.24 65.1286 341.144V342.696C64.7553 342.856 64.334 342.984 63.8646 343.08C63.3953 343.187 62.8673 343.24 62.2806 343.24ZM69.3324 343H67.6684V331.928H69.3324V343ZM74.6116 343.24C74.1956 343.24 73.7956 343.197 73.4116 343.112C73.0276 343.037 72.6756 342.904 72.3556 342.712C72.0463 342.52 71.7956 342.259 71.6036 341.928C71.4223 341.587 71.3316 341.165 71.3316 340.664C71.3316 340.067 71.449 339.576 71.6836 339.192C71.9183 338.808 72.2543 338.52 72.6916 338.328C73.129 338.136 73.6516 338.04 74.2596 338.04C74.665 338.04 75.0276 338.072 75.3476 338.136C75.6783 338.2 75.9716 338.291 76.2276 338.408C76.4943 338.515 76.7183 338.637 76.8996 338.776L77.0756 339.88C76.841 339.72 76.5263 339.587 76.1316 339.48C75.737 339.363 75.3103 339.304 74.8516 339.304C74.2436 339.304 73.7796 339.411 73.4596 339.624C73.1503 339.837 72.9956 340.157 72.9956 340.584C72.9956 340.904 73.0863 341.165 73.2676 341.368C73.449 341.56 73.673 341.704 73.9396 341.8C74.217 341.885 74.505 341.928 74.8036 341.928C75.433 341.928 75.897 341.885 76.1956 341.8C76.4943 341.715 76.6436 341.517 76.6436 341.208V337.848C76.6436 337.283 76.473 336.872 76.1316 336.616C75.7903 336.349 75.305 336.216 74.6756 336.216C74.2276 336.216 73.7636 336.291 73.2836 336.44C72.8036 336.579 72.409 336.776 72.0996 337.032V335.464C72.3983 335.261 72.8303 335.101 73.3956 334.984C73.9716 334.856 74.5636 334.792 75.1716 334.792C75.4703 334.792 75.769 334.824 76.0676 334.888C76.377 334.941 76.665 335.032 76.9316 335.16C77.1983 335.277 77.433 335.443 77.6356 335.656C77.849 335.859 78.0143 336.109 78.1316 336.408C78.249 336.707 78.3076 337.059 78.3076 337.464V341.304C78.3076 341.827 78.1423 342.232 77.8116 342.52C77.4916 342.797 77.0543 342.984 76.4996 343.08C75.945 343.187 75.3156 343.24 74.6116 343.24ZM81.9804 338.344L85.2604 334.968H87.3244L82.7004 339.368L81.9804 338.344ZM82.3324 343H80.6684V331.928H82.3484L82.3324 343ZM83.0844 337.8L87.7244 343H85.5644L81.9004 338.92L83.0844 337.8ZM91.6915 343.24C91.1155 343.24 90.6248 343.176 90.2195 343.048C89.8248 342.931 89.4355 342.781 89.0515 342.6V341.016C89.3288 341.187 89.6008 341.341 89.8675 341.48C90.1342 341.608 90.4115 341.709 90.6995 341.784C90.9982 341.859 91.3288 341.896 91.6915 341.896C92.1502 341.896 92.5075 341.8 92.7635 341.608C93.0302 341.416 93.1635 341.176 93.1635 340.888C93.1635 340.643 93.0782 340.451 92.9075 340.312C92.7475 340.173 92.5395 340.056 92.2835 339.96C92.0275 339.864 91.7608 339.768 91.4835 339.672C91.1955 339.597 90.9075 339.512 90.6195 339.416C90.3315 339.309 90.0648 339.171 89.8195 339C89.5848 338.819 89.3928 338.589 89.2435 338.312C89.1048 338.035 89.0355 337.693 89.0355 337.288C89.0355 336.84 89.1262 336.461 89.3075 336.152C89.4888 335.832 89.7235 335.576 90.0115 335.384C90.3102 335.181 90.6355 335.037 90.9875 334.952C91.3502 334.856 91.7022 334.808 92.0435 334.808C92.6088 334.819 93.0675 334.888 93.4195 335.016C93.7822 335.144 94.1342 335.299 94.4755 335.48L94.4915 336.92C94.1075 336.717 93.7448 336.541 93.4035 336.392C93.0622 336.243 92.6675 336.168 92.2195 336.168C91.8035 336.168 91.4568 336.248 91.1795 336.408C90.9022 336.557 90.7635 336.781 90.7635 337.08C90.7635 337.336 90.8382 337.539 90.9875 337.688C91.1475 337.837 91.3502 337.955 91.5955 338.04C91.8515 338.125 92.1235 338.211 92.4115 338.296C92.6782 338.381 92.9555 338.472 93.2435 338.568C93.5315 338.653 93.7982 338.781 94.0435 338.952C94.2888 339.123 94.4862 339.347 94.6355 339.624C94.7955 339.901 94.8755 340.264 94.8755 340.712C94.8648 341.309 94.7048 341.795 94.3955 342.168C94.0968 342.541 93.7022 342.813 93.2115 342.984C92.7208 343.155 92.2142 343.24 91.6915 343.24Z" fill="black"/>
<path d="M50.024 313.176V317H48.264V306.328H52.488C53.704 306.328 54.6427 306.611 55.304 307.176C55.976 307.741 56.312 308.584 56.312 309.704C56.312 310.824 55.976 311.683 55.304 312.28C54.6427 312.877 53.704 313.176 52.488 313.176H50.024ZM50.024 311.672H52.264C52.7227 311.672 53.096 311.624 53.384 311.528C53.672 311.421 53.896 311.277 54.056 311.096C54.216 310.904 54.3227 310.696 54.376 310.472C54.44 310.248 54.472 310.013 54.472 309.768C54.472 309.523 54.44 309.283 54.376 309.048C54.3227 308.813 54.216 308.605 54.056 308.424C53.896 308.232 53.672 308.083 53.384 307.976C53.096 307.869 52.7227 307.816 52.264 307.816H50.024V311.672ZM58.3403 317V309.704C58.4789 309.619 58.7349 309.501 59.1083 309.352C59.4816 309.203 59.9243 309.075 60.4363 308.968C60.9483 308.851 61.4656 308.792 61.9883 308.792C62.2549 308.792 62.4736 308.813 62.6443 308.856C62.8149 308.899 62.9589 308.947 63.0763 309V310.344C62.8309 310.312 62.5749 310.291 62.3083 310.28C62.0416 310.259 61.7749 310.259 61.5083 310.28C61.2416 310.291 60.9803 310.312 60.7243 310.344C60.4683 310.376 60.2336 310.408 60.0203 310.44V317H58.3403ZM67.6429 317.24C67.2269 317.24 66.8269 317.197 66.4429 317.112C66.0589 317.037 65.7069 316.904 65.3869 316.712C65.0775 316.52 64.8269 316.259 64.6349 315.928C64.4535 315.587 64.3629 315.165 64.3629 314.664C64.3629 314.067 64.4802 313.576 64.7149 313.192C64.9495 312.808 65.2855 312.52 65.7229 312.328C66.1602 312.136 66.6829 312.04 67.2909 312.04C67.6962 312.04 68.0589 312.072 68.3789 312.136C68.7095 312.2 69.0029 312.291 69.2589 312.408C69.5255 312.515 69.7495 312.637 69.9309 312.776L70.1069 313.88C69.8722 313.72 69.5575 313.587 69.1629 313.48C68.7682 313.363 68.3415 313.304 67.8829 313.304C67.2749 313.304 66.8109 313.411 66.4909 313.624C66.1815 313.837 66.0269 314.157 66.0269 314.584C66.0269 314.904 66.1175 315.165 66.2989 315.368C66.4802 315.56 66.7042 315.704 66.9709 315.8C67.2482 315.885 67.5362 315.928 67.8349 315.928C68.4642 315.928 68.9282 315.885 69.2269 315.8C69.5255 315.715 69.6749 315.517 69.6749 315.208V311.848C69.6749 311.283 69.5042 310.872 69.1629 310.616C68.8215 310.349 68.3362 310.216 67.7069 310.216C67.2589 310.216 66.7949 310.291 66.3149 310.44C65.8349 310.579 65.4402 310.776 65.1309 311.032V309.464C65.4295 309.261 65.8615 309.101 66.4269 308.984C67.0029 308.856 67.5949 308.792 68.2029 308.792C68.5015 308.792 68.8002 308.824 69.0989 308.888C69.4082 308.941 69.6962 309.032 69.9629 309.16C70.2295 309.277 70.4642 309.443 70.6669 309.656C70.8802 309.859 71.0455 310.109 71.1629 310.408C71.2802 310.707 71.3389 311.059 71.3389 311.464V315.304C71.3389 315.827 71.1735 316.232 70.8429 316.52C70.5229 316.797 70.0855 316.984 69.5309 317.08C68.9762 317.187 68.3469 317.24 67.6429 317.24ZM77.2356 317.16C76.745 317.16 76.265 317.091 75.7956 316.952C75.3263 316.813 74.8996 316.589 74.5156 316.28C74.1423 315.96 73.8436 315.539 73.6196 315.016C73.3956 314.483 73.2836 313.821 73.2836 313.032C73.2836 312.221 73.3903 311.544 73.6036 311C73.817 310.456 74.1103 310.024 74.4836 309.704C74.857 309.373 75.2783 309.139 75.7476 309C76.2276 308.861 76.7183 308.792 77.2196 308.792C77.6463 308.792 78.073 308.835 78.4996 308.92C78.9263 308.995 79.321 309.112 79.6836 309.272V310.776C79.321 310.616 78.9583 310.493 78.5956 310.408C78.233 310.312 77.8543 310.264 77.4596 310.264C76.6276 310.264 75.9983 310.472 75.5716 310.888C75.1556 311.304 74.9476 311.976 74.9476 312.904C74.9476 313.864 75.145 314.568 75.5396 315.016C75.945 315.453 76.601 315.672 77.5076 315.672C77.9023 315.672 78.2863 315.624 78.6596 315.528C79.033 315.421 79.3796 315.293 79.6996 315.144V316.648C79.3263 316.819 78.937 316.947 78.5316 317.032C78.1263 317.117 77.6943 317.16 77.2356 317.16ZM84.5491 317.24C84.1331 317.24 83.7331 317.197 83.3491 317.112C82.9651 317.037 82.6131 316.904 82.2931 316.712C81.9838 316.52 81.7331 316.259 81.5411 315.928C81.3598 315.587 81.2691 315.165 81.2691 314.664C81.2691 314.067 81.3865 313.576 81.6211 313.192C81.8558 312.808 82.1918 312.52 82.6291 312.328C83.0665 312.136 83.5891 312.04 84.1971 312.04C84.6025 312.04 84.9651 312.072 85.2851 312.136C85.6158 312.2 85.9091 312.291 86.1651 312.408C86.4318 312.515 86.6558 312.637 86.8371 312.776L87.0131 313.88C86.7785 313.72 86.4638 313.587 86.0691 313.48C85.6745 313.363 85.2478 313.304 84.7891 313.304C84.1811 313.304 83.7171 313.411 83.3971 313.624C83.0878 313.837 82.9331 314.157 82.9331 314.584C82.9331 314.904 83.0238 315.165 83.2051 315.368C83.3865 315.56 83.6105 315.704 83.8771 315.8C84.1545 315.885 84.4425 315.928 84.7411 315.928C85.3705 315.928 85.8345 315.885 86.1331 315.8C86.4318 315.715 86.5811 315.517 86.5811 315.208V311.848C86.5811 311.283 86.4105 310.872 86.0691 310.616C85.7278 310.349 85.2425 310.216 84.6131 310.216C84.1651 310.216 83.7011 310.291 83.2211 310.44C82.7411 310.579 82.3465 310.776 82.0371 311.032V309.464C82.3358 309.261 82.7678 309.101 83.3331 308.984C83.9091 308.856 84.5011 308.792 85.1091 308.792C85.4078 308.792 85.7065 308.824 86.0051 308.888C86.3145 308.941 86.6025 309.032 86.8691 309.16C87.1358 309.277 87.3705 309.443 87.5731 309.656C87.7865 309.859 87.9518 310.109 88.0691 310.408C88.1865 310.707 88.2451 311.059 88.2451 311.464V315.304C88.2451 315.827 88.0798 316.232 87.7491 316.52C87.4291 316.797 86.9918 316.984 86.4371 317.08C85.8825 317.187 85.2531 317.24 84.5491 317.24Z" fill="black"/>
<circle cx="26" cy="338" r="7" fill="#2F3273"/>
<path d="M0 15C0 6.71573 6.71573 0 15 0H300C308.284 0 315 6.71573 315 15V260C315 268.284 308.284 275 300 275H15C6.71573 275 0 268.284 0 260V15Z" fill="#F8F8FE"/>
<path d="M8.16 91V85.43L6.84 86.24V85.14L8.18 84.33H9.26V91H8.16ZM13.8598 91.12C12.9398 91.12 12.2532 90.8333 11.7998 90.26C11.3465 89.6867 11.1198 88.8267 11.1198 87.68C11.1198 86.54 11.3465 85.6833 11.7998 85.11C12.2532 84.53 12.9398 84.24 13.8598 84.24C14.7932 84.24 15.4832 84.53 15.9298 85.11C16.3832 85.6833 16.6098 86.54 16.6098 87.68C16.6098 88.8267 16.3832 89.6867 15.9298 90.26C15.4832 90.8333 14.7932 91.12 13.8598 91.12ZM13.8598 90.18C14.0532 90.18 14.2465 90.1533 14.4398 90.1C14.6332 90.04 14.8098 89.9267 14.9698 89.76C15.1298 89.5867 15.2565 89.3367 15.3498 89.01C15.4498 88.6767 15.4998 88.2333 15.4998 87.68C15.4998 87.1333 15.4498 86.6933 15.3498 86.36C15.2565 86.0267 15.1298 85.7767 14.9698 85.61C14.8098 85.4433 14.6332 85.33 14.4398 85.27C14.2465 85.21 14.0532 85.18 13.8598 85.18C13.6732 85.18 13.4832 85.21 13.2898 85.27C13.0965 85.33 12.9198 85.4433 12.7598 85.61C12.5998 85.7767 12.4698 86.0267 12.3698 86.36C12.2765 86.6933 12.2298 87.1333 12.2298 87.68C12.2298 88.2333 12.2765 88.6767 12.3698 89.01C12.4698 89.3367 12.5998 89.5867 12.7598 89.76C12.9198 89.9267 13.0965 90.04 13.2898 90.1C13.4832 90.1533 13.6732 90.18 13.8598 90.18ZM20.4126 91.12C19.4926 91.12 18.8059 90.8333 18.3526 90.26C17.8992 89.6867 17.6726 88.8267 17.6726 87.68C17.6726 86.54 17.8992 85.6833 18.3526 85.11C18.8059 84.53 19.4926 84.24 20.4126 84.24C21.3459 84.24 22.0359 84.53 22.4826 85.11C22.9359 85.6833 23.1626 86.54 23.1626 87.68C23.1626 88.8267 22.9359 89.6867 22.4826 90.26C22.0359 90.8333 21.3459 91.12 20.4126 91.12ZM20.4126 90.18C20.6059 90.18 20.7992 90.1533 20.9926 90.1C21.1859 90.04 21.3626 89.9267 21.5226 89.76C21.6826 89.5867 21.8092 89.3367 21.9026 89.01C22.0026 88.6767 22.0526 88.2333 22.0526 87.68C22.0526 87.1333 22.0026 86.6933 21.9026 86.36C21.8092 86.0267 21.6826 85.7767 21.5226 85.61C21.3626 85.4433 21.1859 85.33 20.9926 85.27C20.7992 85.21 20.6059 85.18 20.4126 85.18C20.2259 85.18 20.0359 85.21 19.8426 85.27C19.6492 85.33 19.4726 85.4433 19.3126 85.61C19.1526 85.7767 19.0226 86.0267 18.9226 86.36C18.8292 86.6933 18.7826 87.1333 18.7826 87.68C18.7826 88.2333 18.8292 88.6767 18.9226 89.01C19.0226 89.3367 19.1526 89.5867 19.3126 89.76C19.4726 89.9267 19.6492 90.04 19.8426 90.1C20.0359 90.1533 20.2259 90.18 20.4126 90.18Z" fill="black" fill-opacity="0.38"/>
<path d="M12.46 175V173.09H9.38V172.16L12.46 168.33H13.57V172.18H14.48V173.09H13.57V175H12.46ZM10.43 172.18H12.46V169.69L10.43 172.18ZM18.2563 175.12C17.3363 175.12 16.6497 174.833 16.1963 174.26C15.743 173.687 15.5163 172.827 15.5163 171.68C15.5163 170.54 15.743 169.683 16.1963 169.11C16.6497 168.53 17.3363 168.24 18.2563 168.24C19.1897 168.24 19.8797 168.53 20.3263 169.11C20.7797 169.683 21.0063 170.54 21.0063 171.68C21.0063 172.827 20.7797 173.687 20.3263 174.26C19.8797 174.833 19.1897 175.12 18.2563 175.12ZM18.2563 174.18C18.4497 174.18 18.643 174.153 18.8363 174.1C19.0297 174.04 19.2063 173.927 19.3663 173.76C19.5263 173.587 19.653 173.337 19.7463 173.01C19.8463 172.677 19.8963 172.233 19.8963 171.68C19.8963 171.133 19.8463 170.693 19.7463 170.36C19.653 170.027 19.5263 169.777 19.3663 169.61C19.2063 169.443 19.0297 169.33 18.8363 169.27C18.643 169.21 18.4497 169.18 18.2563 169.18C18.0697 169.18 17.8797 169.21 17.6863 169.27C17.493 169.33 17.3163 169.443 17.1563 169.61C16.9963 169.777 16.8663 170.027 16.7663 170.36C16.673 170.693 16.6263 171.133 16.6263 171.68C16.6263 172.233 16.673 172.677 16.7663 173.01C16.8663 173.337 16.9963 173.587 17.1563 173.76C17.3163 173.927 17.493 174.04 17.6863 174.1C17.8797 174.153 18.0697 174.18 18.2563 174.18Z" fill="black" fill-opacity="0.38"/>
<path d="M11.98 147.1C11.16 147.1 10.55 146.833 10.15 146.3C9.75667 145.76 9.56 144.973 9.56 143.94C9.56 143.273 9.63333 142.717 9.78 142.27C9.93333 141.817 10.1333 141.457 10.38 141.19C10.6267 140.917 10.89 140.713 11.17 140.58C11.45 140.44 11.7267 140.347 12 140.3C12.2733 140.247 12.51 140.22 12.71 140.22C12.9567 140.22 13.18 140.24 13.38 140.28C13.58 140.313 13.75 140.353 13.89 140.4V141.37C13.73 141.31 13.5633 141.263 13.39 141.23C13.2167 141.19 13.0233 141.17 12.81 141.17C12.65 141.17 12.4733 141.193 12.28 141.24C12.0867 141.287 11.8933 141.367 11.7 141.48C11.5133 141.587 11.34 141.737 11.18 141.93C11.0267 142.117 10.9033 142.353 10.81 142.64C10.7167 142.927 10.67 143.273 10.67 143.68C10.67 144.207 10.7033 144.633 10.77 144.96C10.8367 145.287 10.93 145.537 11.05 145.71C11.1767 145.877 11.3233 145.99 11.49 146.05C11.6567 146.11 11.8367 146.14 12.03 146.14C12.3167 146.14 12.5467 146.093 12.72 146C12.8933 145.9 13.0233 145.78 13.11 145.64C13.2033 145.5 13.2633 145.357 13.29 145.21C13.3233 145.057 13.34 144.93 13.34 144.83C13.34 144.423 13.2267 144.113 13 143.9C12.78 143.687 12.4633 143.58 12.05 143.58C11.7767 143.58 11.54 143.623 11.34 143.71C11.14 143.79 10.9767 143.893 10.85 144.02C10.7233 144.14 10.6333 144.263 10.58 144.39L10.43 143.64C10.4767 143.56 10.55 143.467 10.65 143.36C10.75 143.247 10.8733 143.14 11.02 143.04C11.1667 142.94 11.3333 142.857 11.52 142.79C11.7133 142.723 11.93 142.69 12.17 142.69C12.9033 142.69 13.4667 142.88 13.86 143.26C14.26 143.633 14.46 144.16 14.46 144.84C14.46 145.127 14.41 145.407 14.31 145.68C14.2167 145.947 14.07 146.187 13.87 146.4C13.67 146.613 13.4133 146.783 13.1 146.91C12.7933 147.037 12.42 147.1 11.98 147.1ZM18.2759 147.12C17.3559 147.12 16.6692 146.833 16.2159 146.26C15.7625 145.687 15.5359 144.827 15.5359 143.68C15.5359 142.54 15.7625 141.683 16.2159 141.11C16.6692 140.53 17.3559 140.24 18.2759 140.24C19.2092 140.24 19.8992 140.53 20.3459 141.11C20.7992 141.683 21.0259 142.54 21.0259 143.68C21.0259 144.827 20.7992 145.687 20.3459 146.26C19.8992 146.833 19.2092 147.12 18.2759 147.12ZM18.2759 146.18C18.4692 146.18 18.6625 146.153 18.8559 146.1C19.0492 146.04 19.2259 145.927 19.3859 145.76C19.5459 145.587 19.6725 145.337 19.7659 145.01C19.8659 144.677 19.9159 144.233 19.9159 143.68C19.9159 143.133 19.8659 142.693 19.7659 142.36C19.6725 142.027 19.5459 141.777 19.3859 141.61C19.2259 141.443 19.0492 141.33 18.8559 141.27C18.6625 141.21 18.4692 141.18 18.2759 141.18C18.0892 141.18 17.8992 141.21 17.7059 141.27C17.5125 141.33 17.3359 141.443 17.1759 141.61C17.0159 141.777 16.8859 142.027 16.7859 142.36C16.6925 142.693 16.6459 143.133 16.6459 143.68C16.6459 144.233 16.6925 144.677 16.7859 145.01C16.8859 145.337 17.0159 145.587 17.1759 145.76C17.3359 145.927 17.5125 146.04 17.7059 146.1C17.8992 146.153 18.0892 146.18 18.2759 146.18Z" fill="black" fill-opacity="0.38"/>
<path d="M12.02 119.1C11.58 119.1 11.2 119.043 10.88 118.93C10.5667 118.817 10.31 118.663 10.11 118.47C9.91667 118.277 9.77 118.06 9.67 117.82C9.57667 117.58 9.53 117.327 9.53 117.06C9.53 116.787 9.58 116.553 9.68 116.36C9.78 116.167 9.89667 116.007 10.03 115.88C10.1633 115.753 10.29 115.657 10.41 115.59C10.5367 115.523 10.6267 115.48 10.68 115.46C10.64 115.447 10.57 115.41 10.47 115.35C10.3767 115.283 10.2733 115.193 10.16 115.08C10.0467 114.967 9.95 114.823 9.87 114.65C9.79667 114.477 9.76 114.27 9.76 114.03C9.76 113.697 9.83667 113.393 9.99 113.12C10.1433 112.847 10.3867 112.63 10.72 112.47C11.0533 112.303 11.4867 112.22 12.02 112.22C12.56 112.22 12.9967 112.303 13.33 112.47C13.6633 112.63 13.9067 112.847 14.06 113.12C14.2133 113.393 14.29 113.697 14.29 114.03C14.29 114.277 14.25 114.487 14.17 114.66C14.0967 114.833 14.0033 114.977 13.89 115.09C13.7833 115.197 13.6833 115.28 13.59 115.34C13.4967 115.4 13.43 115.44 13.39 115.46C13.4367 115.48 13.52 115.523 13.64 115.59C13.76 115.657 13.8867 115.753 14.02 115.88C14.1533 116.007 14.2667 116.167 14.36 116.36C14.46 116.553 14.51 116.787 14.51 117.06C14.51 117.327 14.4633 117.58 14.37 117.82C14.2767 118.06 14.13 118.277 13.93 118.47C13.7367 118.663 13.48 118.817 13.16 118.93C12.8467 119.043 12.4667 119.1 12.02 119.1ZM12.02 118.17C12.32 118.17 12.56 118.127 12.74 118.04C12.92 117.947 13.0533 117.833 13.14 117.7C13.2333 117.56 13.2933 117.423 13.32 117.29C13.3533 117.15 13.37 117.037 13.37 116.95C13.37 116.737 13.3167 116.55 13.21 116.39C13.11 116.223 12.96 116.097 12.76 116.01C12.56 115.917 12.3133 115.87 12.02 115.87C11.7333 115.87 11.4867 115.917 11.28 116.01C11.08 116.097 10.9267 116.223 10.82 116.39C10.72 116.55 10.67 116.737 10.67 116.95C10.67 117.037 10.6867 117.15 10.72 117.29C10.7533 117.423 10.8133 117.56 10.9 117.7C10.9933 117.833 11.13 117.947 11.31 118.04C11.49 118.127 11.7267 118.17 12.02 118.17ZM12.02 115.11C12.24 115.11 12.4367 115.07 12.61 114.99C12.7833 114.91 12.9167 114.797 13.01 114.65C13.11 114.497 13.16 114.313 13.16 114.1C13.16 113.867 13.1033 113.683 12.99 113.55C12.8767 113.417 12.7333 113.32 12.56 113.26C12.3867 113.2 12.2067 113.17 12.02 113.17C11.84 113.17 11.66 113.2 11.48 113.26C11.3067 113.32 11.1633 113.417 11.05 113.55C10.9367 113.683 10.88 113.867 10.88 114.1C10.88 114.313 10.93 114.497 11.03 114.65C11.13 114.797 11.2633 114.91 11.43 114.99C11.6033 115.07 11.8 115.11 12.02 115.11ZM18.2954 119.12C17.3754 119.12 16.6887 118.833 16.2354 118.26C15.7821 117.687 15.5554 116.827 15.5554 115.68C15.5554 114.54 15.7821 113.683 16.2354 113.11C16.6887 112.53 17.3754 112.24 18.2954 112.24C19.2287 112.24 19.9187 112.53 20.3654 113.11C20.8187 113.683 21.0454 114.54 21.0454 115.68C21.0454 116.827 20.8187 117.687 20.3654 118.26C19.9187 118.833 19.2287 119.12 18.2954 119.12ZM18.2954 118.18C18.4887 118.18 18.6821 118.153 18.8754 118.1C19.0687 118.04 19.2454 117.927 19.4054 117.76C19.5654 117.587 19.6921 117.337 19.7854 117.01C19.8854 116.677 19.9354 116.233 19.9354 115.68C19.9354 115.133 19.8854 114.693 19.7854 114.36C19.6921 114.027 19.5654 113.777 19.4054 113.61C19.2454 113.443 19.0687 113.33 18.8754 113.27C18.6821 113.21 18.4887 113.18 18.2954 113.18C18.1087 113.18 17.9187 113.21 17.7254 113.27C17.5321 113.33 17.3554 113.443 17.1954 113.61C17.0354 113.777 16.9054 114.027 16.8054 114.36C16.7121 114.693 16.6654 115.133 16.6654 115.68C16.6654 116.233 16.7121 116.677 16.8054 117.01C16.9054 117.337 17.0354 117.587 17.1954 117.76C17.3554 117.927 17.5321 118.04 17.7254 118.1C17.9187 118.153 18.1087 118.18 18.2954 118.18Z" fill="black" fill-opacity="0.38"/>
<path d="M9.74 200V199.15C9.96667 198.997 10.22 198.81 10.5 198.59C10.7867 198.363 11.07 198.113 11.35 197.84C11.6367 197.567 11.8967 197.283 12.13 196.99C12.37 196.69 12.5633 196.397 12.71 196.11C12.8567 195.817 12.93 195.537 12.93 195.27C12.93 195.07 12.8867 194.887 12.8 194.72C12.7133 194.553 12.5667 194.42 12.36 194.32C12.1533 194.22 11.88 194.17 11.54 194.17C11.1733 194.17 10.8467 194.24 10.56 194.38C10.2733 194.513 10.02 194.66 9.8 194.82V193.78C10.04 193.633 10.3233 193.503 10.65 193.39C10.9767 193.277 11.3533 193.22 11.78 193.22C12.3067 193.22 12.7367 193.31 13.07 193.49C13.4033 193.663 13.6467 193.9 13.8 194.2C13.96 194.493 14.04 194.82 14.04 195.18C14.04 195.487 13.97 195.793 13.83 196.1C13.69 196.407 13.5033 196.707 13.27 197C13.0433 197.293 12.7933 197.577 12.52 197.85C12.2467 198.117 11.97 198.367 11.69 198.6C11.4167 198.827 11.1633 199.03 10.93 199.21L10.67 198.96H14.15V200H9.74ZM18.1977 200.12C17.2777 200.12 16.5911 199.833 16.1377 199.26C15.6844 198.687 15.4577 197.827 15.4577 196.68C15.4577 195.54 15.6844 194.683 16.1377 194.11C16.5911 193.53 17.2777 193.24 18.1977 193.24C19.1311 193.24 19.8211 193.53 20.2677 194.11C20.7211 194.683 20.9477 195.54 20.9477 196.68C20.9477 197.827 20.7211 198.687 20.2677 199.26C19.8211 199.833 19.1311 200.12 18.1977 200.12ZM18.1977 199.18C18.3911 199.18 18.5844 199.153 18.7777 199.1C18.9711 199.04 19.1477 198.927 19.3077 198.76C19.4677 198.587 19.5944 198.337 19.6877 198.01C19.7877 197.677 19.8377 197.233 19.8377 196.68C19.8377 196.133 19.7877 195.693 19.6877 195.36C19.5944 195.027 19.4677 194.777 19.3077 194.61C19.1477 194.443 18.9711 194.33 18.7777 194.27C18.5844 194.21 18.3911 194.18 18.1977 194.18C18.0111 194.18 17.8211 194.21 17.6277 194.27C17.4344 194.33 17.2577 194.443 17.0977 194.61C16.9377 194.777 16.8077 195.027 16.7077 195.36C16.6144 195.693 16.5677 196.133 16.5677 196.68C16.5677 197.233 16.6144 197.677 16.7077 198.01C16.8077 198.337 16.9377 198.587 17.0977 198.76C17.2577 198.927 17.4344 199.04 17.6277 199.1C17.8211 199.153 18.0111 199.18 18.1977 199.18Z" fill="black" fill-opacity="0.38"/>
<path opacity="0.7" d="M29 87L291 87" stroke="#353A70" stroke-opacity="0.47"/>
<path opacity="0.7" d="M29 171L291 171" stroke="#353A70" stroke-opacity="0.47"/>
<path opacity="0.7" d="M29 143L291 143" stroke="#353A70" stroke-opacity="0.47"/>
<path opacity="0.7" d="M29 115L291 115" stroke="#353A70" stroke-opacity="0.47"/>
<path opacity="0.7" d="M29 196L291 196" stroke="#353A70" stroke-opacity="0.47"/>
<path d="M277.682 246.112C277.169 246.112 276.693 246.051 276.254 245.93C275.825 245.799 275.433 245.645 275.078 245.468V244.054C275.423 244.241 275.797 244.413 276.198 244.572C276.609 244.721 277.061 244.796 277.556 244.796C278.265 244.796 278.811 244.67 279.194 244.418C279.577 244.157 279.768 243.783 279.768 243.298C279.768 242.803 279.581 242.421 279.208 242.15C278.844 241.87 278.275 241.73 277.5 241.73H276.338V240.456H277.542C278.13 240.456 278.569 240.344 278.858 240.12C279.157 239.887 279.306 239.569 279.306 239.168C279.306 238.869 279.227 238.627 279.068 238.44C278.919 238.244 278.699 238.099 278.41 238.006C278.121 237.913 277.78 237.866 277.388 237.866C277.005 237.866 276.646 237.913 276.31 238.006C275.974 238.09 275.633 238.216 275.288 238.384V237.068C275.596 236.919 275.941 236.793 276.324 236.69C276.707 236.587 277.113 236.536 277.542 236.536C278.055 236.536 278.508 236.601 278.9 236.732C279.301 236.853 279.637 237.031 279.908 237.264C280.188 237.488 280.393 237.754 280.524 238.062C280.664 238.37 280.734 238.706 280.734 239.07C280.734 239.378 280.678 239.649 280.566 239.882C280.463 240.115 280.333 240.311 280.174 240.47C280.025 240.619 279.88 240.736 279.74 240.82C279.609 240.895 279.516 240.937 279.46 240.946C279.544 240.965 279.675 241.03 279.852 241.142C280.039 241.245 280.235 241.394 280.44 241.59C280.645 241.786 280.818 242.033 280.958 242.332C281.107 242.621 281.182 242.962 281.182 243.354C281.182 243.755 281.103 244.124 280.944 244.46C280.795 244.796 280.571 245.09 280.272 245.342C279.973 245.585 279.605 245.776 279.166 245.916C278.737 246.047 278.242 246.112 277.682 246.112ZM286.808 246.168C285.52 246.168 284.559 245.767 283.924 244.964C283.29 244.161 282.972 242.957 282.972 241.352C282.972 239.756 283.29 238.557 283.924 237.754C284.559 236.942 285.52 236.536 286.808 236.536C288.115 236.536 289.081 236.942 289.706 237.754C290.341 238.557 290.658 239.756 290.658 241.352C290.658 242.957 290.341 244.161 289.706 244.964C289.081 245.767 288.115 246.168 286.808 246.168ZM286.808 244.852C287.079 244.852 287.35 244.815 287.62 244.74C287.891 244.656 288.138 244.497 288.362 244.264C288.586 244.021 288.764 243.671 288.894 243.214C289.034 242.747 289.104 242.127 289.104 241.352C289.104 240.587 289.034 239.971 288.894 239.504C288.764 239.037 288.586 238.687 288.362 238.454C288.138 238.221 287.891 238.062 287.62 237.978C287.35 237.894 287.079 237.852 286.808 237.852C286.547 237.852 286.281 237.894 286.01 237.978C285.74 238.062 285.492 238.221 285.268 238.454C285.044 238.687 284.862 239.037 284.722 239.504C284.592 239.971 284.526 240.587 284.526 241.352C284.526 242.127 284.592 242.747 284.722 243.214C284.862 243.671 285.044 244.021 285.268 244.264C285.492 244.497 285.74 244.656 286.01 244.74C286.281 244.815 286.547 244.852 286.808 244.852Z" fill="black"/>
<path d="M217.036 246V244.81C217.353 244.595 217.708 244.334 218.1 244.026C218.501 243.709 218.898 243.359 219.29 242.976C219.691 242.593 220.055 242.197 220.382 241.786C220.718 241.366 220.989 240.955 221.194 240.554C221.399 240.143 221.502 239.751 221.502 239.378C221.502 239.098 221.441 238.841 221.32 238.608C221.199 238.375 220.993 238.188 220.704 238.048C220.415 237.908 220.032 237.838 219.556 237.838C219.043 237.838 218.585 237.936 218.184 238.132C217.783 238.319 217.428 238.524 217.12 238.748V237.292C217.456 237.087 217.853 236.905 218.31 236.746C218.767 236.587 219.295 236.508 219.892 236.508C220.629 236.508 221.231 236.634 221.698 236.886C222.165 237.129 222.505 237.46 222.72 237.88C222.944 238.291 223.056 238.748 223.056 239.252C223.056 239.681 222.958 240.111 222.762 240.54C222.566 240.969 222.305 241.389 221.978 241.8C221.661 242.211 221.311 242.607 220.928 242.99C220.545 243.363 220.158 243.713 219.766 244.04C219.383 244.357 219.029 244.642 218.702 244.894L218.338 244.544H223.21V246H217.036ZM227.323 246V238.202L225.475 239.336V237.796L227.351 236.662H228.863V246H227.323Z" fill="black"/>
<path d="M154.024 246V238.202L152.176 239.336V237.796L154.052 236.662H155.564V246H154.024ZM162.27 246V243.326H157.958V242.024L162.27 236.662H163.824V242.052H165.098V243.326H163.824V246H162.27ZM159.428 242.052H162.27V238.566L159.428 242.052Z" fill="black"/>
<path d="M93.044 246L96.936 237.712L97.146 238.132H91.966V236.662H98.476V237.768L94.752 246H93.044Z" fill="black"/>
<path d="M291.707 220.707C292.098 220.317 292.098 219.683 291.707 219.293L285.343 212.929C284.953 212.538 284.319 212.538 283.929 212.929C283.538 213.319 283.538 213.953 283.929 214.343L289.586 220L283.929 225.657C283.538 226.047 283.538 226.681 283.929 227.071C284.319 227.462 284.953 227.462 285.343 227.071L291.707 220.707ZM28 221L291 221L291 219L28 219L28 221Z" fill="#353A70"/>
<circle cx="26" cy="311" r="7" fill="#777DF2"/>
<path d="M109.904 29.176C108.827 29.176 107.909 28.9787 107.152 28.584C106.405 28.1893 105.835 27.5867 105.44 26.776C105.045 25.9547 104.848 24.9147 104.848 23.656C104.848 22.408 105.045 21.3787 105.44 20.568C105.835 19.7467 106.405 19.1387 107.152 18.744C107.909 18.3493 108.821 18.152 109.888 18.152C110.517 18.152 111.131 18.216 111.728 18.344C112.325 18.4613 112.901 18.6427 113.456 18.888V20.584C112.891 20.3067 112.336 20.0773 111.792 19.896C111.248 19.7147 110.688 19.624 110.112 19.624C109.333 19.624 108.683 19.7627 108.16 20.04C107.648 20.3173 107.264 20.7493 107.008 21.336C106.752 21.9227 106.624 22.696 106.624 23.656C106.624 24.6053 106.752 25.3787 107.008 25.976C107.275 26.5733 107.664 27.0107 108.176 27.288C108.688 27.5653 109.312 27.704 110.048 27.704C110.421 27.704 110.779 27.6773 111.12 27.624C111.461 27.56 111.787 27.4747 112.096 27.368V24.824H109.856V23.32H113.856V28.216C113.237 28.536 112.597 28.776 111.936 28.936C111.275 29.096 110.597 29.176 109.904 29.176ZM116.309 29V21.704C116.448 21.6187 116.704 21.5013 117.077 21.352C117.45 21.2027 117.893 21.0747 118.405 20.968C118.917 20.8507 119.434 20.792 119.957 20.792C120.224 20.792 120.442 20.8133 120.613 20.856C120.784 20.8987 120.928 20.9467 121.045 21V22.344C120.8 22.312 120.544 22.2907 120.277 22.28C120.01 22.2587 119.744 22.2587 119.477 22.28C119.21 22.2907 118.949 22.312 118.693 22.344C118.437 22.376 118.202 22.408 117.989 22.44V29H116.309ZM126.252 29.24C125.516 29.24 124.881 29.1227 124.348 28.888C123.825 28.6427 123.42 28.28 123.132 27.8C122.844 27.32 122.7 26.7227 122.7 26.008V20.968H124.38V25.768C124.38 26.4507 124.529 26.9573 124.828 27.288C125.137 27.608 125.612 27.768 126.252 27.768C126.892 27.768 127.361 27.608 127.66 27.288C127.969 26.9573 128.124 26.4507 128.124 25.768V20.968H129.74V26.008C129.74 27.0747 129.43 27.88 128.812 28.424C128.204 28.968 127.35 29.24 126.252 29.24ZM135.658 29.24C135.167 29.24 134.687 29.176 134.218 29.048C133.749 28.9307 133.322 28.7173 132.938 28.408C132.554 28.088 132.25 27.6453 132.026 27.08C131.802 26.5147 131.69 25.784 131.69 24.888C131.69 23.6187 131.999 22.616 132.618 21.88C133.237 21.144 134.175 20.776 135.434 20.776C135.637 20.776 135.887 20.8027 136.186 20.856C136.485 20.9093 136.789 20.9893 137.098 21.096C137.407 21.192 137.669 21.32 137.882 21.48L137.45 22.04V17.608H139.114V27.32C139.114 27.6507 139.007 27.9387 138.794 28.184C138.591 28.4293 138.319 28.632 137.978 28.792C137.637 28.9413 137.263 29.0533 136.858 29.128C136.453 29.2027 136.053 29.24 135.658 29.24ZM135.706 27.784C136.186 27.784 136.597 27.7253 136.938 27.608C137.279 27.4907 137.45 27.336 137.45 27.144V22.68C137.173 22.52 136.879 22.4027 136.57 22.328C136.261 22.2533 135.962 22.216 135.674 22.216C135.151 22.216 134.719 22.3227 134.378 22.536C134.047 22.7387 133.802 23.0427 133.642 23.448C133.482 23.8427 133.402 24.3333 133.402 24.92C133.402 25.4533 133.466 25.9387 133.594 26.376C133.722 26.8027 133.951 27.144 134.282 27.4C134.623 27.656 135.098 27.784 135.706 27.784ZM141.017 29V27.592L145.593 21.88L145.817 22.296H141.113V20.968H147.113V22.344L142.681 28.04L142.649 27.592H147.113V29H141.017ZM149.06 29V21.016H150.74L150.756 29H149.06ZM149.012 19.688V18.168H150.804V19.688H149.012ZM156.624 29.24C155.835 29.24 155.147 29.08 154.56 28.76C153.984 28.44 153.536 27.9653 153.216 27.336C152.907 26.7067 152.752 25.9387 152.752 25.032C152.752 23.6347 153.078 22.5787 153.728 21.864C154.39 21.1387 155.307 20.776 156.48 20.776C157.344 20.776 158.043 20.968 158.576 21.352C159.11 21.736 159.494 22.2747 159.728 22.968C159.974 23.6507 160.091 24.4507 160.08 25.368H153.76L153.712 24.12H158.8L158.4 24.52C158.368 23.6987 158.198 23.1013 157.888 22.728C157.579 22.344 157.094 22.152 156.432 22.152C156.006 22.152 155.643 22.2427 155.344 22.424C155.046 22.5947 154.816 22.8933 154.656 23.32C154.507 23.736 154.432 24.312 154.432 25.048C154.432 25.944 154.64 26.6267 155.056 27.096C155.472 27.5547 156.086 27.784 156.896 27.784C157.259 27.784 157.595 27.752 157.904 27.688C158.224 27.624 158.518 27.544 158.784 27.448C159.051 27.3413 159.28 27.24 159.472 27.144V28.696C159.099 28.856 158.678 28.984 158.208 29.08C157.739 29.1867 157.211 29.24 156.624 29.24ZM162.012 21.624C162.247 21.5067 162.508 21.4 162.796 21.304C163.095 21.1973 163.409 21.1067 163.74 21.032C164.071 20.9573 164.407 20.8987 164.748 20.856C165.089 20.8133 165.42 20.792 165.74 20.792C166.497 20.792 167.116 20.8987 167.596 21.112C168.076 21.3147 168.433 21.6347 168.668 22.072C168.903 22.4987 169.02 23.0373 169.02 23.688V29H167.34V23.912C167.34 23.7093 167.313 23.512 167.26 23.32C167.217 23.1173 167.127 22.936 166.988 22.776C166.86 22.6053 166.668 22.472 166.412 22.376C166.167 22.28 165.841 22.232 165.436 22.232C165.148 22.232 164.849 22.2587 164.54 22.312C164.241 22.3653 163.959 22.44 163.692 22.536V29H162.012V21.624ZM164.972 19.96L165.804 18.072H167.484L165.964 19.96H164.972ZM175.934 29V27.64C176.297 27.3947 176.702 27.096 177.15 26.744C177.609 26.3813 178.062 25.9813 178.51 25.544C178.969 25.1067 179.385 24.6533 179.758 24.184C180.142 23.704 180.451 23.2347 180.686 22.776C180.921 22.3067 181.038 21.8587 181.038 21.432C181.038 21.112 180.969 20.8187 180.83 20.552C180.691 20.2853 180.457 20.072 180.126 19.912C179.795 19.752 179.358 19.672 178.814 19.672C178.227 19.672 177.705 19.784 177.246 20.008C176.787 20.2213 176.382 20.456 176.03 20.712V19.048C176.414 18.8133 176.867 18.6053 177.39 18.424C177.913 18.2427 178.515 18.152 179.198 18.152C180.041 18.152 180.729 18.296 181.262 18.584C181.795 18.8613 182.185 19.24 182.43 19.72C182.686 20.1893 182.814 20.712 182.814 21.288C182.814 21.7787 182.702 22.2693 182.478 22.76C182.254 23.2507 181.955 23.7307 181.582 24.2C181.219 24.6693 180.819 25.1227 180.382 25.56C179.945 25.9867 179.502 26.3867 179.054 26.76C178.617 27.1227 178.211 27.448 177.838 27.736L177.422 27.336H182.99V29H175.934ZM189.466 29.192C187.994 29.192 186.896 28.7333 186.17 27.816C185.445 26.8987 185.082 25.5227 185.082 23.688C185.082 21.864 185.445 20.4933 186.17 19.576C186.896 18.648 187.994 18.184 189.466 18.184C190.96 18.184 192.064 18.648 192.778 19.576C193.504 20.4933 193.866 21.864 193.866 23.688C193.866 25.5227 193.504 26.8987 192.778 27.816C192.064 28.7333 190.96 29.192 189.466 29.192ZM189.466 27.688C189.776 27.688 190.085 27.6453 190.394 27.56C190.704 27.464 190.986 27.2827 191.242 27.016C191.498 26.7387 191.701 26.3387 191.85 25.816C192.01 25.2827 192.09 24.5733 192.09 23.688C192.09 22.8133 192.01 22.1093 191.85 21.576C191.701 21.0427 191.498 20.6427 191.242 20.376C190.986 20.1093 190.704 19.928 190.394 19.832C190.085 19.736 189.776 19.688 189.466 19.688C189.168 19.688 188.864 19.736 188.554 19.832C188.245 19.928 187.962 20.1093 187.706 20.376C187.45 20.6427 187.242 21.0427 187.082 21.576C186.933 22.1093 186.858 22.8133 186.858 23.688C186.858 24.5733 186.933 25.2827 187.082 25.816C187.242 26.3387 187.45 26.7387 187.706 27.016C187.962 27.2827 188.245 27.464 188.554 27.56C188.864 27.6453 189.168 27.688 189.466 27.688ZM195.903 29V27.64C196.265 27.3947 196.671 27.096 197.119 26.744C197.577 26.3813 198.031 25.9813 198.479 25.544C198.937 25.1067 199.353 24.6533 199.727 24.184C200.111 23.704 200.42 23.2347 200.655 22.776C200.889 22.3067 201.007 21.8587 201.007 21.432C201.007 21.112 200.937 20.8187 200.799 20.552C200.66 20.2853 200.425 20.072 200.095 19.912C199.764 19.752 199.327 19.672 198.783 19.672C198.196 19.672 197.673 19.784 197.215 20.008C196.756 20.2213 196.351 20.456 195.999 20.712V19.048C196.383 18.8133 196.836 18.6053 197.359 18.424C197.881 18.2427 198.484 18.152 199.167 18.152C200.009 18.152 200.697 18.296 201.231 18.584C201.764 18.8613 202.153 19.24 202.399 19.72C202.655 20.1893 202.783 20.712 202.783 21.288C202.783 21.7787 202.671 22.2693 202.447 22.76C202.223 23.2507 201.924 23.7307 201.551 24.2C201.188 24.6693 200.788 25.1227 200.351 25.56C199.913 25.9867 199.471 26.3867 199.023 26.76C198.585 27.1227 198.18 27.448 197.807 27.736L197.391 27.336H202.959V29H195.903ZM208.411 29.128C207.824 29.128 207.28 29.0587 206.779 28.92C206.288 28.7707 205.84 28.5947 205.435 28.392V26.776C205.83 26.9893 206.256 27.1867 206.715 27.368C207.184 27.5387 207.702 27.624 208.267 27.624C209.078 27.624 209.702 27.48 210.139 27.192C210.576 26.8933 210.795 26.4667 210.795 25.912C210.795 25.3467 210.582 24.9093 210.155 24.6C209.739 24.28 209.088 24.12 208.203 24.12H206.875V22.664H208.251C208.923 22.664 209.424 22.536 209.755 22.28C210.096 22.0133 210.267 21.6507 210.267 21.192C210.267 20.8507 210.176 20.5733 209.995 20.36C209.824 20.136 209.574 19.9707 209.243 19.864C208.912 19.7573 208.523 19.704 208.075 19.704C207.638 19.704 207.227 19.7573 206.843 19.864C206.459 19.96 206.07 20.104 205.675 20.296V18.792C206.027 18.6213 206.422 18.4773 206.859 18.36C207.296 18.2427 207.76 18.184 208.251 18.184C208.838 18.184 209.355 18.2587 209.803 18.408C210.262 18.5467 210.646 18.7493 210.955 19.016C211.275 19.272 211.51 19.576 211.659 19.928C211.819 20.28 211.899 20.664 211.899 21.08C211.899 21.432 211.835 21.7413 211.707 22.008C211.59 22.2747 211.44 22.4987 211.259 22.68C211.088 22.8507 210.923 22.984 210.763 23.08C210.614 23.1653 210.507 23.2133 210.443 23.224C210.539 23.2453 210.688 23.32 210.891 23.448C211.104 23.5653 211.328 23.736 211.563 23.96C211.798 24.184 211.995 24.4667 212.155 24.808C212.326 25.1387 212.411 25.528 212.411 25.976C212.411 26.4347 212.32 26.856 212.139 27.24C211.968 27.624 211.712 27.96 211.371 28.248C211.03 28.5253 210.608 28.744 210.107 28.904C209.616 29.0533 209.051 29.128 208.411 29.128Z" fill="black"/>
<path d="M29.7071 65.2929C29.3166 64.9024 28.6834 64.9024 28.2929 65.2929L21.9289 71.6569C21.5384 72.0474 21.5384 72.6805 21.9289 73.0711C22.3195 73.4616 22.9526 73.4616 23.3431 73.0711L29 67.4142L34.6569 73.0711C35.0474 73.4616 35.6805 73.4616 36.0711 73.0711C36.4616 72.6805 36.4616 72.0474 36.0711 71.6569L29.7071 65.2929ZM28 66L28 220L30 220L30 66L28 66Z" fill="#353A70"/>
<path d="M12.66 61.66C11.9413 61.66 11.4047 61.4453 11.05 61.016C10.7047 60.5773 10.532 59.9333 10.532 59.084C10.532 58.2253 10.7047 57.5813 11.05 57.152C11.4047 56.7227 11.9413 56.508 12.66 56.508C13.3787 56.508 13.9107 56.7227 14.256 57.152C14.6013 57.5813 14.774 58.2253 14.774 59.084C14.774 59.9333 14.6013 60.5773 14.256 61.016C13.9107 61.4453 13.3787 61.66 12.66 61.66ZM12.66 60.75C12.7813 60.75 12.9167 60.7127 13.066 60.638C13.2247 60.554 13.36 60.3953 13.472 60.162C13.5933 59.9193 13.654 59.56 13.654 59.084C13.654 58.5987 13.5933 58.2393 13.472 58.006C13.36 57.7633 13.2247 57.6047 13.066 57.53C12.9167 57.446 12.7813 57.404 12.66 57.404C12.5387 57.404 12.3987 57.446 12.24 57.53C12.0907 57.6047 11.9553 57.7633 11.834 58.006C11.722 58.2393 11.666 58.5987 11.666 59.084C11.666 59.56 11.722 59.9193 11.834 60.162C11.9553 60.3953 12.0907 60.554 12.24 60.638C12.3987 60.7127 12.5387 60.75 12.66 60.75ZM18.372 66.112C17.6533 66.112 17.1167 65.8973 16.762 65.468C16.4167 65.0293 16.244 64.3853 16.244 63.536C16.244 62.6773 16.4167 62.0333 16.762 61.604C17.1167 61.1747 17.6533 60.96 18.372 60.96C19.0907 60.96 19.6227 61.1747 19.968 61.604C20.3133 62.0333 20.486 62.6773 20.486 63.536C20.486 64.3853 20.3133 65.0293 19.968 65.468C19.6227 65.8973 19.0907 66.112 18.372 66.112ZM18.372 65.202C18.4933 65.202 18.6287 65.1647 18.778 65.09C18.9367 65.006 19.072 64.8473 19.184 64.614C19.3053 64.3713 19.366 64.012 19.366 63.536C19.366 63.0507 19.3053 62.6913 19.184 62.458C19.072 62.2153 18.9367 62.0567 18.778 61.982C18.6287 61.898 18.4933 61.856 18.372 61.856C18.2507 61.856 18.1107 61.898 17.952 61.982C17.8027 62.0567 17.6673 62.2153 17.546 62.458C17.434 62.6913 17.378 63.0507 17.378 63.536C17.378 64.012 17.434 64.3713 17.546 64.614C17.6673 64.8473 17.8027 65.006 17.952 65.09C18.1107 65.1647 18.2507 65.202 18.372 65.202ZM12.03 66.308L17.728 56.41H18.918L13.22 66.308H12.03Z" fill="black" fill-opacity="0.38"/>
<path d="M32.024 245V237.202L30.176 238.336V236.796L32.052 235.662H33.564V245H32.024Z" fill="black"/>
<circle cx="64" cy="123" r="4" fill="#777DF2"/>
<circle cx="189" cy="157" r="4" fill="#777DF2"/>
<circle cx="221" cy="123" r="4" fill="#777DF2"/>
<circle cx="258" cy="105" r="4" fill="#777DF2"/>
<circle cx="126" cy="143" r="4" fill="#777DF2"/>
<circle cx="160" cy="101" r="4" fill="#777DF2"/>
<circle cx="96" cy="116" r="4" fill="#777DF2"/>
<circle cx="287" cy="115" r="4" fill="#777DF2"/>
<circle cx="30" cy="184" r="4" fill="#777DF2"/>
<line x1="258.344" y1="104.061" x2="288.344" y2="115.061" stroke="#777DF2" stroke-width="2"/>
<line x1="220.581" y1="122.092" x2="259.581" y2="104.092" stroke="#777DF2" stroke-width="2"/>
<line x1="188.293" y1="156.293" x2="222.293" y2="122.293" stroke="#777DF2" stroke-width="2"/>
<line x1="160.898" y1="101.559" x2="187.898" y2="156.559" stroke="#777DF2" stroke-width="2"/>
<line x1="125.23" y1="142.362" x2="159.23" y2="101.362" stroke="#777DF2" stroke-width="2"/>
<line x1="63.7983" y1="122.021" x2="97.7983" y2="115.021" stroke="#777DF2" stroke-width="2"/>
<line x1="98.6783" y1="118.265" x2="124.678" y2="142.265" stroke="#777DF2" stroke-width="2"/>
<line x1="29.12" y1="187.525" x2="63.12" y2="124.525" stroke="#777DF2" stroke-width="2"/>
<circle cx="4" cy="4" r="4" transform="matrix(-1 0 0 1 257 147)" fill="#2F3273"/>
<circle cx="4" cy="4" r="4" transform="matrix(-1 0 0 1 132 181)" fill="#2F3273"/>
<circle cx="4" cy="4" r="4" transform="matrix(-1 0 0 1 100 147)" fill="#2F3273"/>
<circle cx="4" cy="4" r="4" transform="matrix(-1 0 0 1 63 129)" fill="#2F3273"/>
<circle cx="4" cy="4" r="4" transform="matrix(-1 0 0 1 195 167)" fill="#2F3273"/>
<circle cx="4" cy="4" r="4" transform="matrix(-1 0 0 1 161 125)" fill="#2F3273"/>
<circle cx="4" cy="4" r="4" transform="matrix(-1 0 0 1 225 140)" fill="#2F3273"/>
<circle cx="4" cy="4" r="4" transform="matrix(-1 0 0 1 34 139)" fill="#2F3273"/>
<circle cx="4" cy="4" r="4" transform="matrix(-1 0 0 1 291 184)" fill="#2F3273"/>
<line y1="-1" x2="31.9531" y2="-1" transform="matrix(-0.938876 0.344255 0.344255 0.938876 59 133)" stroke="#2F3273" stroke-width="2"/>
<line y1="-1" x2="42.9535" y2="-1" transform="matrix(-0.907959 -0.419058 -0.419058 0.907959 96 151)" stroke="#2F3273" stroke-width="2"/>
<line y1="-1" x2="48.0833" y2="-1" transform="matrix(-0.707107 -0.707107 -0.707107 0.707107 128 185)" stroke="#2F3273" stroke-width="2"/>
<line y1="-1" x2="61.2699" y2="-1" transform="matrix(-0.440673 0.897668 0.897668 0.440673 157 130)" stroke="#2F3273" stroke-width="2"/>
<line y1="-1" x2="53.2635" y2="-1" transform="matrix(-0.638336 -0.769758 -0.769758 0.638336 191 171)" stroke="#2F3273" stroke-width="2"/>
<line y1="-1" x2="34.7131" y2="-1" transform="matrix(-0.979457 -0.201653 -0.201653 0.979457 253 151)" stroke="#2F3273" stroke-width="2"/>
<line y1="-1" x2="35.3836" y2="-1" transform="matrix(-0.734803 0.67828 0.67828 0.734803 219 147)" stroke="#2F3273" stroke-width="2"/>
<path d="M287.5 187.5L253.88 152.525" stroke="#2F3273" stroke-width="2"/>
</svg>
