<svg width="315" height="350" viewBox="0 0 315 350" fill="none" xmlns="http://www.w3.org/2000/svg">
<path d="M48.264 343V332.328H53C54.1093 332.328 54.9573 332.6 55.544 333.144C56.1413 333.677 56.44 334.477 56.44 335.544C56.44 336.099 56.328 336.611 56.104 337.08C55.88 337.549 55.5547 337.933 55.128 338.232C54.7013 338.531 54.1947 338.701 53.608 338.744L53.8 338.2L56.968 343H54.776L51.816 338.216L52.632 338.968H50.024V343H48.264ZM50.024 337.528H52.504C53.208 337.528 53.7307 337.373 54.072 337.064C54.424 336.755 54.6 336.285 54.6 335.656C54.6 335.069 54.4613 334.616 54.184 334.296C53.9173 333.976 53.4533 333.816 52.792 333.816H50.024V337.528ZM62.2806 343.24C61.4913 343.24 60.8033 343.08 60.2166 342.76C59.6406 342.44 59.1926 341.965 58.8726 341.336C58.5633 340.707 58.4086 339.939 58.4086 339.032C58.4086 337.635 58.734 336.579 59.3846 335.864C60.046 335.139 60.9633 334.776 62.1366 334.776C63.0006 334.776 63.6993 334.968 64.2326 335.352C64.766 335.736 65.15 336.275 65.3846 336.968C65.63 337.651 65.7473 338.451 65.7366 339.368H59.4166L59.3686 338.12H64.4566L64.0566 338.52C64.0246 337.699 63.854 337.101 63.5446 336.728C63.2353 336.344 62.75 336.152 62.0886 336.152C61.662 336.152 61.2993 336.243 61.0006 336.424C60.702 336.595 60.4726 336.893 60.3126 337.32C60.1633 337.736 60.0886 338.312 60.0886 339.048C60.0886 339.944 60.2966 340.627 60.7126 341.096C61.1286 341.555 61.742 341.784 62.5526 341.784C62.9153 341.784 63.2513 341.752 63.5606 341.688C63.8806 341.624 64.174 341.544 64.4406 341.448C64.7073 341.341 64.9366 341.24 65.1286 341.144V342.696C64.7553 342.856 64.334 342.984 63.8646 343.08C63.3953 343.187 62.8673 343.24 62.2806 343.24ZM69.3324 343H67.6684V331.928H69.3324V343ZM74.6116 343.24C74.1956 343.24 73.7956 343.197 73.4116 343.112C73.0276 343.037 72.6756 342.904 72.3556 342.712C72.0463 342.52 71.7956 342.259 71.6036 341.928C71.4223 341.587 71.3316 341.165 71.3316 340.664C71.3316 340.067 71.449 339.576 71.6836 339.192C71.9183 338.808 72.2543 338.52 72.6916 338.328C73.129 338.136 73.6516 338.04 74.2596 338.04C74.665 338.04 75.0276 338.072 75.3476 338.136C75.6783 338.2 75.9716 338.291 76.2276 338.408C76.4943 338.515 76.7183 338.637 76.8996 338.776L77.0756 339.88C76.841 339.72 76.5263 339.587 76.1316 339.48C75.737 339.363 75.3103 339.304 74.8516 339.304C74.2436 339.304 73.7796 339.411 73.4596 339.624C73.1503 339.837 72.9956 340.157 72.9956 340.584C72.9956 340.904 73.0863 341.165 73.2676 341.368C73.449 341.56 73.673 341.704 73.9396 341.8C74.217 341.885 74.505 341.928 74.8036 341.928C75.433 341.928 75.897 341.885 76.1956 341.8C76.4943 341.715 76.6436 341.517 76.6436 341.208V337.848C76.6436 337.283 76.473 336.872 76.1316 336.616C75.7903 336.349 75.305 336.216 74.6756 336.216C74.2276 336.216 73.7636 336.291 73.2836 336.44C72.8036 336.579 72.409 336.776 72.0996 337.032V335.464C72.3983 335.261 72.8303 335.101 73.3956 334.984C73.9716 334.856 74.5636 334.792 75.1716 334.792C75.4703 334.792 75.769 334.824 76.0676 334.888C76.377 334.941 76.665 335.032 76.9316 335.16C77.1983 335.277 77.433 335.443 77.6356 335.656C77.849 335.859 78.0143 336.109 78.1316 336.408C78.249 336.707 78.3076 337.059 78.3076 337.464V341.304C78.3076 341.827 78.1423 342.232 77.8116 342.52C77.4916 342.797 77.0543 342.984 76.4996 343.08C75.945 343.187 75.3156 343.24 74.6116 343.24ZM81.9804 338.344L85.2604 334.968H87.3244L82.7004 339.368L81.9804 338.344ZM82.3324 343H80.6684V331.928H82.3484L82.3324 343ZM83.0844 337.8L87.7244 343H85.5644L81.9004 338.92L83.0844 337.8ZM91.6915 343.24C91.1155 343.24 90.6248 343.176 90.2195 343.048C89.8248 342.931 89.4355 342.781 89.0515 342.6V341.016C89.3288 341.187 89.6008 341.341 89.8675 341.48C90.1342 341.608 90.4115 341.709 90.6995 341.784C90.9982 341.859 91.3288 341.896 91.6915 341.896C92.1502 341.896 92.5075 341.8 92.7635 341.608C93.0302 341.416 93.1635 341.176 93.1635 340.888C93.1635 340.643 93.0782 340.451 92.9075 340.312C92.7475 340.173 92.5395 340.056 92.2835 339.96C92.0275 339.864 91.7608 339.768 91.4835 339.672C91.1955 339.597 90.9075 339.512 90.6195 339.416C90.3315 339.309 90.0648 339.171 89.8195 339C89.5848 338.819 89.3928 338.589 89.2435 338.312C89.1048 338.035 89.0355 337.693 89.0355 337.288C89.0355 336.84 89.1262 336.461 89.3075 336.152C89.4888 335.832 89.7235 335.576 90.0115 335.384C90.3102 335.181 90.6355 335.037 90.9875 334.952C91.3502 334.856 91.7022 334.808 92.0435 334.808C92.6088 334.819 93.0675 334.888 93.4195 335.016C93.7822 335.144 94.1342 335.299 94.4755 335.48L94.4915 336.92C94.1075 336.717 93.7448 336.541 93.4035 336.392C93.0622 336.243 92.6675 336.168 92.2195 336.168C91.8035 336.168 91.4568 336.248 91.1795 336.408C90.9022 336.557 90.7635 336.781 90.7635 337.08C90.7635 337.336 90.8382 337.539 90.9875 337.688C91.1475 337.837 91.3502 337.955 91.5955 338.04C91.8515 338.125 92.1235 338.211 92.4115 338.296C92.6782 338.381 92.9555 338.472 93.2435 338.568C93.5315 338.653 93.7982 338.781 94.0435 338.952C94.2888 339.123 94.4862 339.347 94.6355 339.624C94.7955 339.901 94.8755 340.264 94.8755 340.712C94.8648 341.309 94.7048 341.795 94.3955 342.168C94.0968 342.541 93.7022 342.813 93.2115 342.984C92.7208 343.155 92.2142 343.24 91.6915 343.24Z" fill="black"/>
<path d="M50.024 313.176V317H48.264V306.328H52.488C53.704 306.328 54.6427 306.611 55.304 307.176C55.976 307.741 56.312 308.584 56.312 309.704C56.312 310.824 55.976 311.683 55.304 312.28C54.6427 312.877 53.704 313.176 52.488 313.176H50.024ZM50.024 311.672H52.264C52.7227 311.672 53.096 311.624 53.384 311.528C53.672 311.421 53.896 311.277 54.056 311.096C54.216 310.904 54.3227 310.696 54.376 310.472C54.44 310.248 54.472 310.013 54.472 309.768C54.472 309.523 54.44 309.283 54.376 309.048C54.3227 308.813 54.216 308.605 54.056 308.424C53.896 308.232 53.672 308.083 53.384 307.976C53.096 307.869 52.7227 307.816 52.264 307.816H50.024V311.672ZM58.3403 317V309.704C58.4789 309.619 58.7349 309.501 59.1083 309.352C59.4816 309.203 59.9243 309.075 60.4363 308.968C60.9483 308.851 61.4656 308.792 61.9883 308.792C62.2549 308.792 62.4736 308.813 62.6443 308.856C62.8149 308.899 62.9589 308.947 63.0763 309V310.344C62.8309 310.312 62.5749 310.291 62.3083 310.28C62.0416 310.259 61.7749 310.259 61.5083 310.28C61.2416 310.291 60.9803 310.312 60.7243 310.344C60.4683 310.376 60.2336 310.408 60.0203 310.44V317H58.3403ZM67.6429 317.24C67.2269 317.24 66.8269 317.197 66.4429 317.112C66.0589 317.037 65.7069 316.904 65.3869 316.712C65.0775 316.52 64.8269 316.259 64.6349 315.928C64.4535 315.587 64.3629 315.165 64.3629 314.664C64.3629 314.067 64.4802 313.576 64.7149 313.192C64.9495 312.808 65.2855 312.52 65.7229 312.328C66.1602 312.136 66.6829 312.04 67.2909 312.04C67.6962 312.04 68.0589 312.072 68.3789 312.136C68.7095 312.2 69.0029 312.291 69.2589 312.408C69.5255 312.515 69.7495 312.637 69.9309 312.776L70.1069 313.88C69.8722 313.72 69.5575 313.587 69.1629 313.48C68.7682 313.363 68.3415 313.304 67.8829 313.304C67.2749 313.304 66.8109 313.411 66.4909 313.624C66.1815 313.837 66.0269 314.157 66.0269 314.584C66.0269 314.904 66.1175 315.165 66.2989 315.368C66.4802 315.56 66.7042 315.704 66.9709 315.8C67.2482 315.885 67.5362 315.928 67.8349 315.928C68.4642 315.928 68.9282 315.885 69.2269 315.8C69.5255 315.715 69.6749 315.517 69.6749 315.208V311.848C69.6749 311.283 69.5042 310.872 69.1629 310.616C68.8215 310.349 68.3362 310.216 67.7069 310.216C67.2589 310.216 66.7949 310.291 66.3149 310.44C65.8349 310.579 65.4402 310.776 65.1309 311.032V309.464C65.4295 309.261 65.8615 309.101 66.4269 308.984C67.0029 308.856 67.5949 308.792 68.2029 308.792C68.5015 308.792 68.8002 308.824 69.0989 308.888C69.4082 308.941 69.6962 309.032 69.9629 309.16C70.2295 309.277 70.4642 309.443 70.6669 309.656C70.8802 309.859 71.0455 310.109 71.1629 310.408C71.2802 310.707 71.3389 311.059 71.3389 311.464V315.304C71.3389 315.827 71.1735 316.232 70.8429 316.52C70.5229 316.797 70.0855 316.984 69.5309 317.08C68.9762 317.187 68.3469 317.24 67.6429 317.24ZM77.2356 317.16C76.745 317.16 76.265 317.091 75.7956 316.952C75.3263 316.813 74.8996 316.589 74.5156 316.28C74.1423 315.96 73.8436 315.539 73.6196 315.016C73.3956 314.483 73.2836 313.821 73.2836 313.032C73.2836 312.221 73.3903 311.544 73.6036 311C73.817 310.456 74.1103 310.024 74.4836 309.704C74.857 309.373 75.2783 309.139 75.7476 309C76.2276 308.861 76.7183 308.792 77.2196 308.792C77.6463 308.792 78.073 308.835 78.4996 308.92C78.9263 308.995 79.321 309.112 79.6836 309.272V310.776C79.321 310.616 78.9583 310.493 78.5956 310.408C78.233 310.312 77.8543 310.264 77.4596 310.264C76.6276 310.264 75.9983 310.472 75.5716 310.888C75.1556 311.304 74.9476 311.976 74.9476 312.904C74.9476 313.864 75.145 314.568 75.5396 315.016C75.945 315.453 76.601 315.672 77.5076 315.672C77.9023 315.672 78.2863 315.624 78.6596 315.528C79.033 315.421 79.3796 315.293 79.6996 315.144V316.648C79.3263 316.819 78.937 316.947 78.5316 317.032C78.1263 317.117 77.6943 317.16 77.2356 317.16ZM84.5491 317.24C84.1331 317.24 83.7331 317.197 83.3491 317.112C82.9651 317.037 82.6131 316.904 82.2931 316.712C81.9838 316.52 81.7331 316.259 81.5411 315.928C81.3598 315.587 81.2691 315.165 81.2691 314.664C81.2691 314.067 81.3865 313.576 81.6211 313.192C81.8558 312.808 82.1918 312.52 82.6291 312.328C83.0665 312.136 83.5891 312.04 84.1971 312.04C84.6025 312.04 84.9651 312.072 85.2851 312.136C85.6158 312.2 85.9091 312.291 86.1651 312.408C86.4318 312.515 86.6558 312.637 86.8371 312.776L87.0131 313.88C86.7785 313.72 86.4638 313.587 86.0691 313.48C85.6745 313.363 85.2478 313.304 84.7891 313.304C84.1811 313.304 83.7171 313.411 83.3971 313.624C83.0878 313.837 82.9331 314.157 82.9331 314.584C82.9331 314.904 83.0238 315.165 83.2051 315.368C83.3865 315.56 83.6105 315.704 83.8771 315.8C84.1545 315.885 84.4425 315.928 84.7411 315.928C85.3705 315.928 85.8345 315.885 86.1331 315.8C86.4318 315.715 86.5811 315.517 86.5811 315.208V311.848C86.5811 311.283 86.4105 310.872 86.0691 310.616C85.7278 310.349 85.2425 310.216 84.6131 310.216C84.1651 310.216 83.7011 310.291 83.2211 310.44C82.7411 310.579 82.3465 310.776 82.0371 311.032V309.464C82.3358 309.261 82.7678 309.101 83.3331 308.984C83.9091 308.856 84.5011 308.792 85.1091 308.792C85.4078 308.792 85.7065 308.824 86.0051 308.888C86.3145 308.941 86.6025 309.032 86.8691 309.16C87.1358 309.277 87.3705 309.443 87.5731 309.656C87.7865 309.859 87.9518 310.109 88.0691 310.408C88.1865 310.707 88.2451 311.059 88.2451 311.464V315.304C88.2451 315.827 88.0798 316.232 87.7491 316.52C87.4291 316.797 86.9918 316.984 86.4371 317.08C85.8825 317.187 85.2531 317.24 84.5491 317.24Z" fill="black"/>
<circle cx="26" cy="338" r="7" fill="#2F3273"/>
<path d="M0 15C0 6.71573 6.71573 0 15 0H300C308.284 0 315 6.71573 315 15V260C315 268.284 308.284 275 300 275H15C6.71573 275 0 268.284 0 260V15Z" fill="#F8F8FE"/>
<path opacity="0.7" d="M17 146H293" stroke="#353A70" stroke-width="2"/>
<path opacity="0.7" d="M17 104H293" stroke="#353A70"/>
<path opacity="0.7" d="M17 189H293" stroke="#353A70"/>
<path d="M271 171.5C271 175.09 273.91 178 277.5 178C281.09 178 284 175.09 284 171.5V146H271V171.5Z" fill="#2F3273"/>
<path d="M271 97.5C271 93.9101 273.91 91 277.5 91C281.09 91 284 93.9101 284 97.5V146H271V97.5Z" fill="#777DF2"/>
<path d="M217 160.5C217 164.09 219.91 167 223.5 167C227.09 167 230 164.09 230 160.5V145H217V160.5Z" fill="#2F3273"/>
<path d="M217 108.5C217 104.91 219.91 102 223.5 102C227.09 102 230 104.91 230 108.5V145H217V108.5Z" fill="#777DF2"/>
<path d="M153 182.5C153 186.09 155.91 189 159.5 189C163.09 189 166 186.09 166 182.5V146H153V182.5Z" fill="#2F3273"/>
<path d="M153 70.5C153 66.9101 155.91 64 159.5 64C163.09 64 166 66.9101 166 70.5V146H153V70.5Z" fill="#777DF2"/>
<path d="M92 171.5C92 175.09 94.9101 178 98.5 178C102.09 178 105 175.09 105 171.5V146H92V171.5Z" fill="#2F3273"/>
<path d="M25.024 244.176V248H23.264V237.328H27.488C28.704 237.328 29.6427 237.611 30.304 238.176C30.976 238.741 31.312 239.584 31.312 240.704C31.312 241.824 30.976 242.683 30.304 243.28C29.6427 243.877 28.704 244.176 27.488 244.176H25.024ZM25.024 242.672H27.264C27.7227 242.672 28.096 242.624 28.384 242.528C28.672 242.421 28.896 242.277 29.056 242.096C29.216 241.904 29.3227 241.696 29.376 241.472C29.44 241.248 29.472 241.013 29.472 240.768C29.472 240.523 29.44 240.283 29.376 240.048C29.3227 239.813 29.216 239.605 29.056 239.424C28.896 239.232 28.672 239.083 28.384 238.976C28.096 238.869 27.7227 238.816 27.264 238.816H25.024V242.672ZM36.7803 248.24C35.4789 248.24 34.5083 247.872 33.8683 247.136C33.2389 246.4 32.9243 245.349 32.9243 243.984C32.9243 242.533 33.2496 241.472 33.9003 240.8C34.5616 240.117 35.5109 239.776 36.7483 239.776C37.6336 239.776 38.3643 239.941 38.9403 240.272C39.5163 240.592 39.9429 241.067 40.2203 241.696C40.4976 242.325 40.6363 243.088 40.6363 243.984C40.6363 245.339 40.3003 246.389 39.6283 247.136C38.9669 247.872 38.0176 248.24 36.7803 248.24ZM36.7643 246.816C37.3083 246.816 37.7403 246.699 38.0603 246.464C38.3803 246.219 38.6096 245.883 38.7483 245.456C38.8976 245.029 38.9723 244.539 38.9723 243.984C38.9723 243.365 38.8976 242.848 38.7483 242.432C38.5989 242.016 38.3643 241.707 38.0443 241.504C37.7243 241.291 37.2976 241.184 36.7643 241.184C36.2309 241.184 35.8043 241.296 35.4843 241.52C35.1643 241.744 34.9349 242.064 34.7963 242.48C34.6576 242.896 34.5883 243.397 34.5883 243.984C34.5883 244.869 34.7536 245.563 35.0843 246.064C35.4149 246.565 35.9749 246.816 36.7643 246.816ZM42.5903 240.624C42.8249 240.507 43.0863 240.4 43.3743 240.304C43.6729 240.197 43.9876 240.107 44.3183 240.032C44.6489 239.957 44.9849 239.899 45.3263 239.856C45.6676 239.813 45.9983 239.792 46.3183 239.792C47.0756 239.792 47.6943 239.899 48.1743 240.112C48.6543 240.315 49.0116 240.635 49.2463 241.072C49.4809 241.499 49.5983 242.037 49.5983 242.688V248H47.9183V242.912C47.9183 242.709 47.8916 242.512 47.8383 242.32C47.7956 242.117 47.7049 241.936 47.5663 241.776C47.4383 241.605 47.2463 241.472 46.9903 241.376C46.7449 241.28 46.4196 241.232 46.0143 241.232C45.7263 241.232 45.4276 241.259 45.1183 241.312C44.8196 241.365 44.5369 241.44 44.2703 241.536V248H42.5903V240.624ZM86.2414 248L83.0094 237.328H84.9134L87.4574 246.416H87.0894L89.7774 237.328H91.2974L94.0494 246.544H93.6014L96.1454 237.328H98.0494L94.8014 248H93.0414L90.3214 239.296H90.7534L88.0174 248H86.2414ZM102.501 248.208C101.776 248.208 101.2 248.016 100.773 247.632C100.357 247.248 100.149 246.683 100.149 245.936V241.36H98.8531V239.968H100.149V237.728H101.877V239.968H103.829V241.36H101.877V245.6C101.877 245.973 101.941 246.256 102.069 246.448C102.208 246.629 102.458 246.72 102.821 246.72C103.002 246.72 103.184 246.699 103.365 246.656C103.546 246.603 103.701 246.539 103.829 246.464V247.952C103.637 248.037 103.418 248.101 103.173 248.144C102.938 248.187 102.714 248.208 102.501 248.208ZM105.778 248V240.704C105.916 240.619 106.172 240.501 106.546 240.352C106.919 240.203 107.362 240.075 107.874 239.968C108.386 239.851 108.903 239.792 109.426 239.792C109.692 239.792 109.911 239.813 110.082 239.856C110.252 239.899 110.396 239.947 110.514 240V241.344C110.268 241.312 110.012 241.291 109.746 241.28C109.479 241.259 109.212 241.259 108.946 241.28C108.679 241.291 108.418 241.312 108.162 241.344C107.906 241.376 107.671 241.408 107.458 241.44V248H105.778ZM151.887 248.176C151.354 248.176 150.885 248.144 150.479 248.08C150.074 248.027 149.706 247.936 149.375 247.808C149.045 247.68 148.703 247.525 148.351 247.344V245.584C148.767 245.915 149.269 246.187 149.855 246.4C150.453 246.613 151.093 246.72 151.775 246.72C152.437 246.72 152.927 246.587 153.247 246.32C153.578 246.043 153.743 245.664 153.743 245.184C153.743 244.811 153.621 244.512 153.375 244.288C153.141 244.053 152.826 243.856 152.431 243.696C152.037 243.536 151.615 243.376 151.167 243.216C150.826 243.088 150.49 242.955 150.159 242.816C149.829 242.667 149.53 242.485 149.263 242.272C148.997 242.048 148.783 241.765 148.623 241.424C148.463 241.083 148.383 240.661 148.383 240.16C148.383 239.808 148.453 239.451 148.591 239.088C148.73 238.725 148.938 238.4 149.215 238.112C149.503 237.813 149.877 237.579 150.335 237.408C150.805 237.227 151.365 237.136 152.015 237.136C152.442 237.136 152.81 237.163 153.119 237.216C153.439 237.269 153.738 237.355 154.015 237.472C154.303 237.579 154.613 237.712 154.943 237.872V239.6C154.677 239.429 154.405 239.269 154.127 239.12C153.861 238.971 153.567 238.848 153.247 238.752C152.927 238.656 152.57 238.603 152.175 238.592C151.727 238.581 151.359 238.635 151.071 238.752C150.783 238.869 150.565 239.035 150.415 239.248C150.266 239.461 150.191 239.707 150.191 239.984C150.191 240.357 150.282 240.656 150.463 240.88C150.655 241.093 150.922 241.275 151.263 241.424C151.605 241.563 151.999 241.701 152.447 241.84C152.842 241.968 153.226 242.112 153.599 242.272C153.973 242.432 154.303 242.629 154.591 242.864C154.879 243.088 155.109 243.371 155.279 243.712C155.461 244.053 155.551 244.475 155.551 244.976C155.551 245.531 155.423 246.053 155.167 246.544C154.922 247.024 154.527 247.419 153.983 247.728C153.45 248.027 152.751 248.176 151.887 248.176ZM151.567 236.224L152.335 234.4H154.079L152.511 236.224H151.567ZM157.575 248V240.704C157.713 240.619 157.969 240.501 158.343 240.352C158.716 240.203 159.159 240.075 159.671 239.968C160.183 239.851 160.7 239.792 161.223 239.792C161.489 239.792 161.708 239.813 161.879 239.856C162.049 239.899 162.193 239.947 162.311 240V241.344C162.065 241.312 161.809 241.291 161.543 241.28C161.276 241.259 161.009 241.259 160.743 241.28C160.476 241.291 160.215 241.312 159.959 241.344C159.703 241.376 159.468 241.408 159.255 241.44V248H157.575ZM214.09 248.16C212.415 248.16 211.151 247.707 210.298 246.8C209.445 245.893 209.018 244.512 209.018 242.656C209.018 240.832 209.439 239.461 210.282 238.544C211.125 237.616 212.394 237.152 214.09 237.152C214.655 237.152 215.215 237.221 215.77 237.36C216.335 237.499 216.879 237.691 217.402 237.936V239.52C216.879 239.211 216.357 238.987 215.834 238.848C215.322 238.699 214.815 238.624 214.314 238.624C213.535 238.624 212.885 238.763 212.362 239.04C211.85 239.317 211.466 239.749 211.21 240.336C210.965 240.923 210.842 241.701 210.842 242.672C210.842 243.621 210.97 244.395 211.226 244.992C211.482 245.579 211.866 246.011 212.378 246.288C212.901 246.555 213.562 246.688 214.362 246.688C214.842 246.688 215.338 246.619 215.85 246.48C216.362 246.331 216.879 246.107 217.402 245.808V247.392C217.082 247.552 216.735 247.691 216.362 247.808C215.989 247.925 215.61 248.011 215.226 248.064C214.842 248.128 214.463 248.16 214.09 248.16ZM218.97 248V246.592L223.546 240.88L223.77 241.296H219.066V239.968H225.066V241.344L220.634 247.04L220.602 246.592H225.066V248H218.97ZM228.949 248L226.277 239.968H228.069L230.101 246.832L229.605 246.928L231.557 239.968H232.949L234.885 246.736H234.485L236.517 239.968H238.245L235.557 248H233.973L232.069 241.712L232.373 241.856L230.533 248H228.949ZM273.571 244.176V248H271.811V237.328H276.035C277.251 237.328 278.19 237.611 278.851 238.176C279.523 238.741 279.859 239.584 279.859 240.704C279.859 241.824 279.523 242.683 278.851 243.28C278.19 243.877 277.251 244.176 276.035 244.176H273.571ZM273.571 242.672H275.811C276.27 242.672 276.643 242.624 276.931 242.528C277.219 242.421 277.443 242.277 277.603 242.096C277.763 241.904 277.87 241.696 277.923 241.472C277.987 241.248 278.019 241.013 278.019 240.768C278.019 240.523 277.987 240.283 277.923 240.048C277.87 239.813 277.763 239.605 277.603 239.424C277.443 239.232 277.219 239.083 276.931 238.976C276.643 238.869 276.27 238.816 275.811 238.816H273.571V242.672ZM284.751 248.208C284.026 248.208 283.45 248.016 283.023 247.632C282.607 247.248 282.399 246.683 282.399 245.936V241.36H281.103V239.968H282.399V237.728H284.127V239.968H286.079V241.36H284.127V245.6C284.127 245.973 284.191 246.256 284.319 246.448C284.458 246.629 284.708 246.72 285.071 246.72C285.252 246.72 285.434 246.699 285.615 246.656C285.796 246.603 285.951 246.539 286.079 246.464V247.952C285.887 248.037 285.668 248.101 285.423 248.144C285.188 248.187 284.964 248.208 284.751 248.208Z" fill="black"/>
<path d="M81.456 34V25.088L79.344 26.384V24.624L81.488 23.328H83.216V34H81.456ZM86.5278 34V32.64C86.8904 32.3947 87.2958 32.096 87.7438 31.744C88.2024 31.3813 88.6558 30.9813 89.1038 30.544C89.5624 30.1067 89.9784 29.6533 90.3518 29.184C90.7358 28.704 91.0451 28.2347 91.2798 27.776C91.5144 27.3067 91.6318 26.8587 91.6318 26.432C91.6318 26.112 91.5624 25.8187 91.4238 25.552C91.2851 25.2853 91.0504 25.072 90.7198 24.912C90.3891 24.752 89.9518 24.672 89.4078 24.672C88.8211 24.672 88.2984 24.784 87.8398 25.008C87.3811 25.2213 86.9758 25.456 86.6238 25.712V24.048C87.0078 23.8133 87.4611 23.6053 87.9838 23.424C88.5064 23.2427 89.1091 23.152 89.7918 23.152C90.6344 23.152 91.3224 23.296 91.8558 23.584C92.3891 23.8613 92.7784 24.24 93.0238 24.72C93.2798 25.1893 93.4078 25.712 93.4078 26.288C93.4078 26.7787 93.2958 27.2693 93.0718 27.76C92.8478 28.2507 92.5491 28.7307 92.1758 29.2C91.8131 29.6693 91.4131 30.1227 90.9758 30.56C90.5384 30.9867 90.0958 31.3867 89.6478 31.76C89.2104 32.1227 88.8051 32.448 88.4318 32.736L88.0158 32.336H93.5838V34H86.5278ZM95.9641 34V32.128H97.8681V34H95.9641ZM104.232 34.192C102.76 34.192 101.661 33.7333 100.936 32.816C100.211 31.8987 99.848 30.5227 99.848 28.688C99.848 26.864 100.211 25.4933 100.936 24.576C101.661 23.648 102.76 23.184 104.232 23.184C105.725 23.184 106.829 23.648 107.544 24.576C108.269 25.4933 108.632 26.864 108.632 28.688C108.632 30.5227 108.269 31.8987 107.544 32.816C106.829 33.7333 105.725 34.192 104.232 34.192ZM104.232 32.688C104.541 32.688 104.851 32.6453 105.16 32.56C105.469 32.464 105.752 32.2827 106.008 32.016C106.264 31.7387 106.467 31.3387 106.616 30.816C106.776 30.2827 106.856 29.5733 106.856 28.688C106.856 27.8133 106.776 27.1093 106.616 26.576C106.467 26.0427 106.264 25.6427 106.008 25.376C105.752 25.1093 105.469 24.928 105.16 24.832C104.851 24.736 104.541 24.688 104.232 24.688C103.933 24.688 103.629 24.736 103.32 24.832C103.011 24.928 102.728 25.1093 102.472 25.376C102.216 25.6427 102.008 26.0427 101.848 26.576C101.699 27.1093 101.624 27.8133 101.624 28.688C101.624 29.5733 101.699 30.2827 101.848 30.816C102.008 31.3387 102.216 31.7387 102.472 32.016C102.728 32.2827 103.011 32.464 103.32 32.56C103.629 32.6453 103.933 32.688 104.232 32.688ZM114.252 34.16C112.94 34.16 111.964 33.7333 111.324 32.88C110.695 32.016 110.38 30.7573 110.38 29.104C110.38 28.0373 110.498 27.1467 110.732 26.432C110.978 25.7067 111.298 25.1307 111.692 24.704C112.087 24.2667 112.508 23.9413 112.956 23.728C113.404 23.504 113.847 23.3547 114.284 23.28C114.722 23.1947 115.1 23.152 115.42 23.152C115.815 23.152 116.172 23.184 116.492 23.248C116.812 23.3013 117.084 23.3653 117.308 23.44V24.992C117.052 24.896 116.786 24.8213 116.508 24.768C116.231 24.704 115.922 24.672 115.58 24.672C115.324 24.672 115.042 24.7093 114.732 24.784C114.423 24.8587 114.114 24.9867 113.804 25.168C113.506 25.3387 113.228 25.5787 112.972 25.888C112.727 26.1867 112.53 26.5653 112.38 27.024C112.231 27.4827 112.156 28.0373 112.156 28.688C112.156 29.5307 112.21 30.2133 112.316 30.736C112.423 31.2587 112.572 31.6587 112.764 31.936C112.967 32.2027 113.202 32.384 113.468 32.48C113.735 32.576 114.023 32.624 114.332 32.624C114.791 32.624 115.159 32.5493 115.436 32.4C115.714 32.24 115.922 32.048 116.06 31.824C116.21 31.6 116.306 31.3707 116.348 31.136C116.402 30.8907 116.428 30.688 116.428 30.528C116.428 29.8773 116.247 29.3813 115.884 29.04C115.532 28.6987 115.026 28.528 114.364 28.528C113.927 28.528 113.548 28.5973 113.228 28.736C112.908 28.864 112.647 29.0293 112.444 29.232C112.242 29.424 112.098 29.6213 112.012 29.824L111.772 28.624C111.847 28.496 111.964 28.3467 112.124 28.176C112.284 27.9947 112.482 27.824 112.716 27.664C112.951 27.504 113.218 27.3707 113.516 27.264C113.826 27.1573 114.172 27.104 114.556 27.104C115.73 27.104 116.631 27.408 117.26 28.016C117.9 28.6133 118.22 29.456 118.22 30.544C118.22 31.0027 118.14 31.4507 117.98 31.888C117.831 32.3147 117.596 32.6987 117.276 33.04C116.956 33.3813 116.546 33.6533 116.044 33.856C115.554 34.0587 114.956 34.16 114.252 34.16ZM124.905 29.856V28.512H129.785V29.856H124.905ZM139.065 34V25.088L136.953 26.384V24.624L139.097 23.328H140.825V34H139.065ZM146.649 34.16C146.244 34.16 145.881 34.128 145.561 34.064C145.252 34.0107 144.985 33.9467 144.761 33.872V32.32C145.017 32.416 145.284 32.496 145.561 32.56C145.838 32.6133 146.148 32.64 146.489 32.64C146.745 32.64 147.028 32.6027 147.337 32.528C147.646 32.4533 147.95 32.3307 148.249 32.16C148.548 31.9787 148.825 31.7387 149.081 31.44C149.337 31.1307 149.54 30.7467 149.689 30.288C149.838 29.8187 149.913 29.264 149.913 28.624C149.913 27.7813 149.86 27.0987 149.753 26.576C149.646 26.0533 149.492 25.6587 149.289 25.392C149.086 25.1147 148.852 24.928 148.585 24.832C148.318 24.736 148.025 24.688 147.705 24.688C147.257 24.688 146.894 24.768 146.617 24.928C146.34 25.0773 146.132 25.264 145.993 25.488C145.854 25.712 145.758 25.9467 145.705 26.192C145.652 26.4267 145.625 26.624 145.625 26.784C145.625 27.4347 145.806 27.9307 146.169 28.272C146.532 28.6133 147.044 28.784 147.705 28.784C148.142 28.784 148.516 28.72 148.825 28.592C149.145 28.4533 149.406 28.288 149.609 28.096C149.822 27.8933 149.972 27.6907 150.057 27.488L150.297 28.688C150.212 28.816 150.089 28.9707 149.929 29.152C149.78 29.3227 149.588 29.488 149.353 29.648C149.118 29.808 148.846 29.9413 148.537 30.048C148.228 30.1547 147.886 30.208 147.513 30.208C146.34 30.208 145.433 29.9093 144.793 29.312C144.164 28.704 143.849 27.856 143.849 26.768C143.849 26.2987 143.924 25.8507 144.073 25.424C144.222 24.9973 144.457 24.6133 144.777 24.272C145.097 23.9307 145.497 23.6587 145.977 23.456C146.457 23.2533 147.033 23.152 147.705 23.152C149.07 23.152 150.073 23.5787 150.713 24.432C151.364 25.2853 151.689 26.544 151.689 28.208C151.689 29.2747 151.566 30.1707 151.321 30.896C151.076 31.6107 150.756 32.1867 150.361 32.624C149.977 33.0507 149.561 33.376 149.113 33.6C148.665 33.8133 148.222 33.9573 147.785 34.032C147.348 34.1173 146.969 34.16 146.649 34.16ZM153.777 34V32.128H155.681V34H153.777ZM162.045 34.192C160.573 34.192 159.474 33.7333 158.749 32.816C158.023 31.8987 157.661 30.5227 157.661 28.688C157.661 26.864 158.023 25.4933 158.749 24.576C159.474 23.648 160.573 23.184 162.045 23.184C163.538 23.184 164.642 23.648 165.357 24.576C166.082 25.4933 166.445 26.864 166.445 28.688C166.445 30.5227 166.082 31.8987 165.357 32.816C164.642 33.7333 163.538 34.192 162.045 34.192ZM162.045 32.688C162.354 32.688 162.663 32.6453 162.973 32.56C163.282 32.464 163.565 32.2827 163.821 32.016C164.077 31.7387 164.279 31.3387 164.429 30.816C164.589 30.2827 164.669 29.5733 164.669 28.688C164.669 27.8133 164.589 27.1093 164.429 26.576C164.279 26.0427 164.077 25.6427 163.821 25.376C163.565 25.1093 163.282 24.928 162.973 24.832C162.663 24.736 162.354 24.688 162.045 24.688C161.746 24.688 161.442 24.736 161.133 24.832C160.823 24.928 160.541 25.1093 160.285 25.376C160.029 25.6427 159.821 26.0427 159.661 26.576C159.511 27.1093 159.437 27.8133 159.437 28.688C159.437 29.5733 159.511 30.2827 159.661 30.816C159.821 31.3387 160.029 31.7387 160.285 32.016C160.541 32.2827 160.823 32.464 161.133 32.56C161.442 32.6453 161.746 32.688 162.045 32.688ZM172.065 34.16C170.753 34.16 169.777 33.7333 169.137 32.88C168.508 32.016 168.193 30.7573 168.193 29.104C168.193 28.0373 168.31 27.1467 168.545 26.432C168.79 25.7067 169.11 25.1307 169.505 24.704C169.9 24.2667 170.321 23.9413 170.769 23.728C171.217 23.504 171.66 23.3547 172.097 23.28C172.534 23.1947 172.913 23.152 173.233 23.152C173.628 23.152 173.985 23.184 174.305 23.248C174.625 23.3013 174.897 23.3653 175.121 23.44V24.992C174.865 24.896 174.598 24.8213 174.321 24.768C174.044 24.704 173.734 24.672 173.393 24.672C173.137 24.672 172.854 24.7093 172.545 24.784C172.236 24.8587 171.926 24.9867 171.617 25.168C171.318 25.3387 171.041 25.5787 170.785 25.888C170.54 26.1867 170.342 26.5653 170.193 27.024C170.044 27.4827 169.969 28.0373 169.969 28.688C169.969 29.5307 170.022 30.2133 170.129 30.736C170.236 31.2587 170.385 31.6587 170.577 31.936C170.78 32.2027 171.014 32.384 171.281 32.48C171.548 32.576 171.836 32.624 172.145 32.624C172.604 32.624 172.972 32.5493 173.249 32.4C173.526 32.24 173.734 32.048 173.873 31.824C174.022 31.6 174.118 31.3707 174.161 31.136C174.214 30.8907 174.241 30.688 174.241 30.528C174.241 29.8773 174.06 29.3813 173.697 29.04C173.345 28.6987 172.838 28.528 172.177 28.528C171.74 28.528 171.361 28.5973 171.041 28.736C170.721 28.864 170.46 29.0293 170.257 29.232C170.054 29.424 169.91 29.6213 169.825 29.824L169.585 28.624C169.66 28.496 169.777 28.3467 169.937 28.176C170.097 27.9947 170.294 27.824 170.529 27.664C170.764 27.504 171.03 27.3707 171.329 27.264C171.638 27.1573 171.985 27.104 172.369 27.104C173.542 27.104 174.444 27.408 175.073 28.016C175.713 28.6133 176.033 29.456 176.033 30.544C176.033 31.0027 175.953 31.4507 175.793 31.888C175.644 32.3147 175.409 32.6987 175.089 33.04C174.769 33.3813 174.358 33.6533 173.857 33.856C173.366 34.0587 172.769 34.16 172.065 34.16ZM178.042 34V32.128H179.946V34H178.042ZM186.809 34V32.64C187.172 32.3947 187.577 32.096 188.025 31.744C188.484 31.3813 188.937 30.9813 189.385 30.544C189.844 30.1067 190.26 29.6533 190.633 29.184C191.017 28.704 191.326 28.2347 191.561 27.776C191.796 27.3067 191.913 26.8587 191.913 26.432C191.913 26.112 191.844 25.8187 191.705 25.552C191.566 25.2853 191.332 25.072 191.001 24.912C190.67 24.752 190.233 24.672 189.689 24.672C189.102 24.672 188.58 24.784 188.121 25.008C187.662 25.2213 187.257 25.456 186.905 25.712V24.048C187.289 23.8133 187.742 23.6053 188.265 23.424C188.788 23.2427 189.39 23.152 190.073 23.152C190.916 23.152 191.604 23.296 192.137 23.584C192.67 23.8613 193.06 24.24 193.305 24.72C193.561 25.1893 193.689 25.712 193.689 26.288C193.689 26.7787 193.577 27.2693 193.353 27.76C193.129 28.2507 192.83 28.7307 192.457 29.2C192.094 29.6693 191.694 30.1227 191.257 30.56C190.82 30.9867 190.377 31.3867 189.929 31.76C189.492 32.1227 189.086 32.448 188.713 32.736L188.297 32.336H193.865V34H186.809ZM200.341 34.192C198.869 34.192 197.771 33.7333 197.045 32.816C196.32 31.8987 195.957 30.5227 195.957 28.688C195.957 26.864 196.32 25.4933 197.045 24.576C197.771 23.648 198.869 23.184 200.341 23.184C201.835 23.184 202.939 23.648 203.653 24.576C204.379 25.4933 204.741 26.864 204.741 28.688C204.741 30.5227 204.379 31.8987 203.653 32.816C202.939 33.7333 201.835 34.192 200.341 34.192ZM200.341 32.688C200.651 32.688 200.96 32.6453 201.269 32.56C201.579 32.464 201.861 32.2827 202.117 32.016C202.373 31.7387 202.576 31.3387 202.725 30.816C202.885 30.2827 202.965 29.5733 202.965 28.688C202.965 27.8133 202.885 27.1093 202.725 26.576C202.576 26.0427 202.373 25.6427 202.117 25.376C201.861 25.1093 201.579 24.928 201.269 24.832C200.96 24.736 200.651 24.688 200.341 24.688C200.043 24.688 199.739 24.736 199.429 24.832C199.12 24.928 198.837 25.1093 198.581 25.376C198.325 25.6427 198.117 26.0427 197.957 26.576C197.808 27.1093 197.733 27.8133 197.733 28.688C197.733 29.5733 197.808 30.2827 197.957 30.816C198.117 31.3387 198.325 31.7387 198.581 32.016C198.837 32.2827 199.12 32.464 199.429 32.56C199.739 32.6453 200.043 32.688 200.341 32.688ZM206.778 34V32.64C207.14 32.3947 207.546 32.096 207.994 31.744C208.452 31.3813 208.906 30.9813 209.354 30.544C209.812 30.1067 210.228 29.6533 210.602 29.184C210.986 28.704 211.295 28.2347 211.53 27.776C211.764 27.3067 211.882 26.8587 211.882 26.432C211.882 26.112 211.812 25.8187 211.674 25.552C211.535 25.2853 211.3 25.072 210.97 24.912C210.639 24.752 210.202 24.672 209.658 24.672C209.071 24.672 208.548 24.784 208.09 25.008C207.631 25.2213 207.226 25.456 206.874 25.712V24.048C207.258 23.8133 207.711 23.6053 208.234 23.424C208.756 23.2427 209.359 23.152 210.042 23.152C210.884 23.152 211.572 23.296 212.106 23.584C212.639 23.8613 213.028 24.24 213.274 24.72C213.53 25.1893 213.658 25.712 213.658 26.288C213.658 26.7787 213.546 27.2693 213.322 27.76C213.098 28.2507 212.799 28.7307 212.426 29.2C212.063 29.6693 211.663 30.1227 211.226 30.56C210.788 30.9867 210.346 31.3867 209.898 31.76C209.46 32.1227 209.055 32.448 208.682 32.736L208.266 32.336H213.834V34H206.778ZM219.286 34.128C218.699 34.128 218.155 34.0587 217.654 33.92C217.163 33.7707 216.715 33.5947 216.31 33.392V31.776C216.705 31.9893 217.131 32.1867 217.59 32.368C218.059 32.5387 218.577 32.624 219.142 32.624C219.953 32.624 220.577 32.48 221.014 32.192C221.451 31.8933 221.67 31.4667 221.67 30.912C221.67 30.3467 221.457 29.9093 221.03 29.6C220.614 29.28 219.963 29.12 219.078 29.12H217.75V27.664H219.126C219.798 27.664 220.299 27.536 220.63 27.28C220.971 27.0133 221.142 26.6507 221.142 26.192C221.142 25.8507 221.051 25.5733 220.87 25.36C220.699 25.136 220.449 24.9707 220.118 24.864C219.787 24.7573 219.398 24.704 218.95 24.704C218.513 24.704 218.102 24.7573 217.718 24.864C217.334 24.96 216.945 25.104 216.55 25.296V23.792C216.902 23.6213 217.297 23.4773 217.734 23.36C218.171 23.2427 218.635 23.184 219.126 23.184C219.713 23.184 220.23 23.2587 220.678 23.408C221.137 23.5467 221.521 23.7493 221.83 24.016C222.15 24.272 222.385 24.576 222.534 24.928C222.694 25.28 222.774 25.664 222.774 26.08C222.774 26.432 222.71 26.7413 222.582 27.008C222.465 27.2747 222.315 27.4987 222.134 27.68C221.963 27.8507 221.798 27.984 221.638 28.08C221.489 28.1653 221.382 28.2133 221.318 28.224C221.414 28.2453 221.563 28.32 221.766 28.448C221.979 28.5653 222.203 28.736 222.438 28.96C222.673 29.184 222.87 29.4667 223.03 29.808C223.201 30.1387 223.286 30.528 223.286 30.976C223.286 31.4347 223.195 31.856 223.014 32.24C222.843 32.624 222.587 32.96 222.246 33.248C221.905 33.5253 221.483 33.744 220.982 33.904C220.491 34.0533 219.926 34.128 219.286 34.128Z" fill="black"/>
<path d="M40 210.5C40 214.09 42.9101 217 46.5 217C50.0899 217 53 214.09 53 210.5V146H40V210.5Z" fill="#2F3273"/>
<path d="M40 81.5C40 77.9101 42.9101 75 46.5 75C50.0899 75 53 77.9101 53 81.5V146H40V81.5Z" fill="#777DF2"/>
<path d="M92 97.5C92 93.9101 94.9101 91 98.5 91C102.09 91 105 93.9101 105 97.5V146H92V97.5Z" fill="#777DF2"/>
<circle cx="26" cy="311" r="7" fill="#777DF2"/>
</svg>
