<svg width="42" height="42" viewBox="0 0 42 42" fill="none" xmlns="http://www.w3.org/2000/svg">
<path d="M39.9394 21.3905C38.4793 18.8541 37.5343 15.7763 36.2743 12.938C39.5063 12.4852 42.1444 9.34501 41.4586 5.92594C40.7827 2.56594 36.1824 -0.193587 33.1013 2.17548C31.8774 3.11719 31.1457 3.99657 30.5485 5.35501C30.496 5.47313 30.4336 5.59782 30.3647 5.72907C27.5232 4.15079 24.2616 3.35672 21 3.35672C17.7352 3.35672 14.4802 4.15407 11.6354 5.72907C11.5665 5.59782 11.5041 5.47313 11.4516 5.35501C10.8479 3.99657 10.1227 3.11719 8.89551 2.17548C5.8177 -0.190306 1.21411 2.56594 0.541451 5.92594C-0.14433 9.34501 2.49051 12.4884 5.72583 12.938C4.46911 15.7763 3.52411 18.8508 2.05739 21.3905C-0.981049 26.6602 -0.374017 32.3138 4.2427 36.4383C7.0777 38.9648 10.756 40.0608 14.5885 40.4841C16.7147 40.717 18.8902 40.74 21 40.6842C23.1066 40.74 25.2788 40.717 27.4083 40.4841C31.2408 40.0608 34.9158 38.9648 37.7541 36.4383C42.3741 32.3138 42.9811 26.6602 39.9394 21.3905Z" fill="#F79329"/>
<path d="M17.7712 32.9339C17.5481 33.9609 17.9747 35.2013 18.2011 36.1758C18.3159 36.6778 18.4636 37.2947 18.8409 37.6097C19.0607 37.8 19.3167 37.8624 19.5792 37.8788C20.1075 37.905 20.6193 38.0363 20.895 37.3406C20.9704 37.1536 21.105 36.8419 21.3084 37.0256C21.4954 37.1995 21.4298 37.5014 21.6464 37.6688C22.3158 38.1741 23.3756 38.01 23.7431 37.0847C24.1598 36.0281 24.255 34.9486 24.4387 33.833L23.5233 32.3663L20.9672 31.6116L17.7712 32.9339Z" fill="white"/>
<path d="M13.1415 24.4092C13.1382 26.0958 12.062 27.4542 10.7561 27.4509C9.44356 27.4378 8.38043 26.0695 8.38699 24.3731C8.40012 22.6898 9.46981 21.3248 10.7823 21.3347C12.0882 21.3412 13.1514 22.7226 13.1415 24.4092ZM28.862 24.4092C28.8653 26.0958 29.9382 27.4542 31.2475 27.4509C32.56 27.4378 33.6231 26.0695 33.6165 24.3731C33.6034 22.6898 32.5304 21.3248 31.2212 21.3347C29.912 21.3412 28.8521 22.7226 28.862 24.4092ZM27.602 32.2645C27.2968 31.6706 26.4142 32.1825 25.9515 32.3039C25.6136 32.3892 25.2493 32.363 24.8917 32.363C24.1961 32.363 23.484 32.3269 22.8343 32.0545C22.6014 31.9561 22.2732 31.8019 22.1256 31.5787C21.6662 30.8995 22.2601 29.4689 21.3906 29.0489C20.9082 28.8159 20.3734 29.0587 20.2651 29.528C20.2192 29.7347 20.1798 29.9709 20.1864 30.1842C20.1995 30.4041 20.1503 30.5451 20.1175 30.7683C20.0945 30.9258 20.0945 31.0406 20.0453 31.1784C19.9665 31.4048 19.7729 31.6673 19.5629 31.815C19.0839 32.1562 18.5457 32.363 17.9781 32.468C17.3678 32.5762 16.7115 32.5434 16.134 32.3761C15.737 32.2612 15.3006 31.8708 14.8937 31.8675C14.5196 31.8642 14.2998 32.1891 14.3261 32.5336C14.3917 33.3441 15.2186 33.6131 15.8748 33.8198C16.8493 34.125 17.9453 34.1283 18.9132 33.7837C19.5006 33.5737 20.1142 33.3014 20.7475 33.1931C21.3676 33.0881 21.7286 33.3572 22.2962 33.5147C22.9196 33.6919 23.507 33.9445 24.1567 34.0167C24.8261 34.0922 25.5118 34.02 26.1582 33.8198C26.68 33.6558 27.8382 33.2489 27.6775 32.4778C27.6578 32.3958 27.6315 32.3236 27.602 32.2645Z" fill="#2F2F2F"/>
<path d="M18.329 27.0867C17.6892 27.0834 17.2888 27.3295 17.7154 28.2351C18.5981 30.1055 21.1017 30.9553 22.8768 29.843C23.1656 29.6625 23.5396 29.4525 23.7824 29.2162C24.0843 28.9275 24.2976 28.4287 24.4354 28.0416C24.6093 27.5658 24.6388 26.9325 24.0187 26.8242C23.5331 26.7389 23.0507 27.1392 22.5946 27.2475C21.9876 27.3984 21.2296 27.4641 20.6062 27.4641C20.2288 27.4673 19.1099 27.0933 18.329 27.0867Z" fill="#2F2F2F"/>
<path d="M9.41717 8.11782C9.32529 8.3836 9.17764 8.65923 9.02014 8.87907C8.75436 9.24985 8.52139 9.71579 8.11451 9.9586C7.69123 10.208 7.05795 9.96188 6.63795 9.79126C6.07357 9.56157 5.42389 9.23017 5.0367 8.74782C4.83491 8.50428 4.67016 8.23229 4.54779 7.94063C3.98998 6.52642 5.44686 4.96126 6.84795 5.29595C7.54357 5.46329 8.12436 5.92595 8.60342 6.4411C8.82654 6.68391 9.00373 6.9136 9.13826 7.2122C9.25967 7.47798 9.49264 7.74048 9.43357 8.04563C9.43357 8.0686 9.42701 8.09485 9.41717 8.11782ZM34.3481 9.9586C33.9412 9.71907 33.705 9.24985 33.4359 8.87907C33.2817 8.65923 33.1373 8.38032 33.0455 8.11782L33.0258 8.04563C32.9667 7.7372 33.1964 7.47798 33.3211 7.2122C33.4556 6.9136 33.6295 6.68391 33.8559 6.4411C34.335 5.92595 34.919 5.46329 35.6114 5.29595C37.0092 4.96126 38.4694 6.5297 37.905 7.94063C37.7901 8.23595 37.6195 8.49845 37.4226 8.74782C37.0354 9.23017 36.3825 9.56157 35.8214 9.79126C35.4047 9.96188 34.7714 10.208 34.3481 9.9586Z" fill="white"/>
</svg>
