<svg xmlns="http://www.w3.org/2000/svg" width="1920" height="1088" viewBox="0 0 1920 1088" version="1.1"><path d="M 735.465 435.451 C 734.934 436.196, 729.375 442.587, 723.111 449.653 C 674.158 504.874, 651.626 546.658, 649.308 586.518 C 647.414 619.067, 665.774 645.507, 696.161 653.993 C 718.738 660.299, 747.714 657.792, 782.781 646.501 C 802.404 640.182, 800.720 640.884, 967 569.731 C 1205.649 467.610, 1227.090 458.440, 1255.500 446.329 C 1280.594 435.633, 1286.521 432.879, 1281.500 434.251 C 1280.400 434.551, 1260.825 439.815, 1238 445.948 C 1215.175 452.081, 1184.125 460.428, 1169 464.497 C 1153.875 468.566, 1136.550 473.212, 1130.500 474.821 C 1112.350 479.649, 971.497 517.369, 943 525.033 C 928.425 528.953, 904.125 535.467, 889 539.508 C 873.875 543.549, 852.275 549.334, 841 552.363 C 806.790 561.553, 802.128 562.334, 781 562.423 C 766.317 562.484, 761.202 562.141, 756.207 560.760 C 745.950 557.923, 739.009 553.982, 731.976 547 C 720.406 535.514, 715.661 523.133, 715.689 504.500 C 715.715 486.857, 720.495 469.001, 731.054 447.099 C 736.525 435.751, 737.972 431.928, 735.465 435.451" stroke="none" fill="#fafafa" fill-rule="evenodd"/><path d="M 0 544.001 L 0 1088.001 960.250 1087.751 L 1920.500 1087.500 1920.751 543.750 L 1921.002 0 960.501 0 L 0 0 0 544.001 M 0.496 544.500 C 0.496 843.700, 0.610 965.951, 0.750 816.168 C 0.889 666.385, 0.889 421.585, 0.750 272.168 C 0.610 122.751, 0.496 245.300, 0.496 544.500 M 735.465 435.451 C 734.934 436.196, 729.375 442.587, 723.111 449.653 C 674.158 504.874, 651.626 546.658, 649.308 586.518 C 647.414 619.067, 665.774 645.507, 696.161 653.993 C 718.738 660.299, 747.714 657.792, 782.781 646.501 C 802.404 640.182, 800.720 640.884, 967 569.731 C 1205.649 467.610, 1227.090 458.440, 1255.500 446.329 C 1280.594 435.633, 1286.521 432.879, 1281.500 434.251 C 1280.400 434.551, 1260.825 439.815, 1238 445.948 C 1215.175 452.081, 1184.125 460.428, 1169 464.497 C 1153.875 468.566, 1136.550 473.212, 1130.500 474.821 C 1112.350 479.649, 971.497 517.369, 943 525.033 C 928.425 528.953, 904.125 535.467, 889 539.508 C 873.875 543.549, 852.275 549.334, 841 552.363 C 806.790 561.553, 802.128 562.334, 781 562.423 C 766.317 562.484, 761.202 562.141, 756.207 560.760 C 745.950 557.923, 739.009 553.982, 731.976 547 C 720.406 535.514, 715.661 523.133, 715.689 504.500 C 715.715 486.857, 720.495 469.001, 731.054 447.099 C 736.525 435.751, 737.972 431.928, 735.465 435.451" stroke="none" fill="#141414" fill-rule="evenodd"/></svg>