<svg width="41" height="12" viewBox="0 0 41 12" fill="none" xmlns="http://www.w3.org/2000/svg">
<path d="M2.024 7.176V11H0.264V0.327999H4.488C5.704 0.327999 6.64267 0.610666 7.304 1.176C7.976 1.74133 8.312 2.584 8.312 3.704C8.312 4.824 7.976 5.68267 7.304 6.28C6.64267 6.87733 5.704 7.176 4.488 7.176H2.024ZM2.024 5.672H4.264C4.72267 5.672 5.096 5.624 5.384 5.528C5.672 5.42133 5.896 5.27733 6.056 5.096C6.216 4.904 6.32267 4.696 6.376 4.472C6.44 4.248 6.472 4.01333 6.472 3.768C6.472 3.52267 6.44 3.28267 6.376 3.048C6.32267 2.81333 6.216 2.60533 6.056 2.424C5.896 2.232 5.672 2.08267 5.384 1.976C5.096 1.86933 4.72267 1.816 4.264 1.816H2.024V5.672ZM10.3403 11V3.704C10.4789 3.61867 10.7349 3.50133 11.1083 3.352C11.4816 3.20267 11.9243 3.07467 12.4363 2.968C12.9483 2.85067 13.4656 2.792 13.9883 2.792C14.2549 2.792 14.4736 2.81333 14.6443 2.856C14.8149 2.89867 14.9589 2.94667 15.0763 3V4.344C14.8309 4.312 14.5749 4.29067 14.3083 4.28C14.0416 4.25867 13.7749 4.25867 13.5083 4.28C13.2416 4.29067 12.9803 4.312 12.7243 4.344C12.4683 4.376 12.2336 4.408 12.0203 4.44V11H10.3403ZM19.6429 11.24C19.2269 11.24 18.8269 11.1973 18.4429 11.112C18.0589 11.0373 17.7069 10.904 17.3869 10.712C17.0775 10.52 16.8269 10.2587 16.6349 9.928C16.4535 9.58667 16.3629 9.16533 16.3629 8.664C16.3629 8.06667 16.4802 7.576 16.7149 7.192C16.9495 6.808 17.2855 6.52 17.7229 6.328C18.1602 6.136 18.6829 6.04 19.2909 6.04C19.6962 6.04 20.0589 6.072 20.3789 6.136C20.7095 6.2 21.0029 6.29067 21.2589 6.408C21.5255 6.51467 21.7495 6.63733 21.9309 6.776L22.1069 7.88C21.8722 7.72 21.5575 7.58667 21.1629 7.48C20.7682 7.36267 20.3415 7.304 19.8829 7.304C19.2749 7.304 18.8109 7.41067 18.4909 7.624C18.1815 7.83733 18.0269 8.15733 18.0269 8.584C18.0269 8.904 18.1175 9.16533 18.2989 9.368C18.4802 9.56 18.7042 9.704 18.9709 9.8C19.2482 9.88533 19.5362 9.928 19.8349 9.928C20.4642 9.928 20.9282 9.88533 21.2269 9.8C21.5255 9.71467 21.6749 9.51733 21.6749 9.208V5.848C21.6749 5.28267 21.5042 4.872 21.1629 4.616C20.8215 4.34933 20.3362 4.216 19.7069 4.216C19.2589 4.216 18.7949 4.29067 18.3149 4.44C17.8349 4.57867 17.4402 4.776 17.1309 5.032V3.464C17.4295 3.26133 17.8615 3.10133 18.4269 2.984C19.0029 2.856 19.5949 2.792 20.2029 2.792C20.5015 2.792 20.8002 2.824 21.0989 2.888C21.4082 2.94133 21.6962 3.032 21.9629 3.16C22.2295 3.27733 22.4642 3.44267 22.6669 3.656C22.8802 3.85867 23.0455 4.10933 23.1629 4.408C23.2802 4.70667 23.3389 5.05867 23.3389 5.464V9.304C23.3389 9.82667 23.1735 10.232 22.8429 10.52C22.5229 10.7973 22.0855 10.984 21.5309 11.08C20.9762 11.1867 20.3469 11.24 19.6429 11.24ZM29.2356 11.16C28.745 11.16 28.265 11.0907 27.7956 10.952C27.3263 10.8133 26.8996 10.5893 26.5156 10.28C26.1423 9.96 25.8436 9.53867 25.6196 9.016C25.3956 8.48267 25.2836 7.82133 25.2836 7.032C25.2836 6.22133 25.3903 5.544 25.6036 5C25.817 4.456 26.1103 4.024 26.4836 3.704C26.857 3.37333 27.2783 3.13867 27.7476 3C28.2276 2.86133 28.7183 2.792 29.2196 2.792C29.6463 2.792 30.073 2.83467 30.4996 2.92C30.9263 2.99467 31.321 3.112 31.6836 3.272V4.776C31.321 4.616 30.9583 4.49333 30.5956 4.408C30.233 4.312 29.8543 4.264 29.4596 4.264C28.6276 4.264 27.9983 4.472 27.5716 4.888C27.1556 5.304 26.9476 5.976 26.9476 6.904C26.9476 7.864 27.145 8.568 27.5396 9.016C27.945 9.45333 28.601 9.672 29.5076 9.672C29.9023 9.672 30.2863 9.624 30.6596 9.528C31.033 9.42133 31.3796 9.29333 31.6996 9.144V10.648C31.3263 10.8187 30.937 10.9467 30.5316 11.032C30.1263 11.1173 29.6943 11.16 29.2356 11.16ZM36.5491 11.24C36.1331 11.24 35.7331 11.1973 35.3491 11.112C34.9651 11.0373 34.6131 10.904 34.2931 10.712C33.9838 10.52 33.7331 10.2587 33.5411 9.928C33.3598 9.58667 33.2691 9.16533 33.2691 8.664C33.2691 8.06667 33.3865 7.576 33.6211 7.192C33.8558 6.808 34.1918 6.52 34.6291 6.328C35.0665 6.136 35.5891 6.04 36.1971 6.04C36.6025 6.04 36.9651 6.072 37.2851 6.136C37.6158 6.2 37.9091 6.29067 38.1651 6.408C38.4318 6.51467 38.6558 6.63733 38.8371 6.776L39.0131 7.88C38.7785 7.72 38.4638 7.58667 38.0691 7.48C37.6745 7.36267 37.2478 7.304 36.7891 7.304C36.1811 7.304 35.7171 7.41067 35.3971 7.624C35.0878 7.83733 34.9331 8.15733 34.9331 8.584C34.9331 8.904 35.0238 9.16533 35.2051 9.368C35.3865 9.56 35.6105 9.704 35.8771 9.8C36.1545 9.88533 36.4425 9.928 36.7411 9.928C37.3705 9.928 37.8345 9.88533 38.1331 9.8C38.4318 9.71467 38.5811 9.51733 38.5811 9.208V5.848C38.5811 5.28267 38.4105 4.872 38.0691 4.616C37.7278 4.34933 37.2425 4.216 36.6131 4.216C36.1651 4.216 35.7011 4.29067 35.2211 4.44C34.7411 4.57867 34.3465 4.776 34.0371 5.032V3.464C34.3358 3.26133 34.7678 3.10133 35.3331 2.984C35.9091 2.856 36.5011 2.792 37.1091 2.792C37.4078 2.792 37.7065 2.824 38.0051 2.888C38.3145 2.94133 38.6025 3.032 38.8691 3.16C39.1358 3.27733 39.3705 3.44267 39.5731 3.656C39.7865 3.85867 39.9518 4.10933 40.0691 4.408C40.1865 4.70667 40.2451 5.05867 40.2451 5.464V9.304C40.2451 9.82667 40.0798 10.232 39.7491 10.52C39.4291 10.7973 38.9918 10.984 38.4371 11.08C37.8825 11.1867 37.2531 11.24 36.5491 11.24Z" fill="black"/>
</svg>
