<svg width="47" height="13" viewBox="0 0 47 13" fill="none" xmlns="http://www.w3.org/2000/svg">
<path d="M0.264 12V1.328H5C6.10933 1.328 6.95733 1.6 7.544 2.144C8.14133 2.67733 8.44 3.47733 8.44 4.544C8.44 5.09867 8.328 5.61067 8.104 6.08C7.88 6.54933 7.55467 6.93333 7.128 7.232C6.70133 7.53067 6.19467 7.70133 5.608 7.744L5.8 7.2L8.968 12H6.776L3.816 7.216L4.632 7.968H2.024V12H0.264ZM2.024 6.528H4.504C5.208 6.528 5.73067 6.37333 6.072 6.064C6.424 5.75467 6.6 5.28533 6.6 4.656C6.6 4.06933 6.46133 3.616 6.184 3.296C5.91733 2.976 5.45333 2.816 4.792 2.816H2.024V6.528ZM14.2806 12.24C13.4913 12.24 12.8033 12.08 12.2166 11.76C11.6406 11.44 11.1926 10.9653 10.8726 10.336C10.5633 9.70667 10.4086 8.93867 10.4086 8.032C10.4086 6.63467 10.734 5.57867 11.3846 4.864C12.046 4.13867 12.9633 3.776 14.1366 3.776C15.0006 3.776 15.6993 3.968 16.2326 4.352C16.766 4.736 17.15 5.27467 17.3846 5.968C17.63 6.65067 17.7473 7.45067 17.7366 8.368H11.4166L11.3686 7.12H16.4566L16.0566 7.52C16.0246 6.69867 15.854 6.10133 15.5446 5.728C15.2353 5.344 14.75 5.152 14.0886 5.152C13.662 5.152 13.2993 5.24267 13.0006 5.424C12.702 5.59467 12.4726 5.89333 12.3126 6.32C12.1633 6.736 12.0886 7.312 12.0886 8.048C12.0886 8.944 12.2966 9.62667 12.7126 10.096C13.1286 10.5547 13.742 10.784 14.5526 10.784C14.9153 10.784 15.2513 10.752 15.5606 10.688C15.8806 10.624 16.174 10.544 16.4406 10.448C16.7073 10.3413 16.9366 10.24 17.1286 10.144V11.696C16.7553 11.856 16.334 11.984 15.8646 12.08C15.3953 12.1867 14.8673 12.24 14.2806 12.24ZM21.3324 12H19.6684V0.927999H21.3324V12ZM26.6116 12.24C26.1956 12.24 25.7956 12.1973 25.4116 12.112C25.0276 12.0373 24.6756 11.904 24.3556 11.712C24.0463 11.52 23.7956 11.2587 23.6036 10.928C23.4223 10.5867 23.3316 10.1653 23.3316 9.664C23.3316 9.06667 23.449 8.576 23.6836 8.192C23.9183 7.808 24.2543 7.52 24.6916 7.328C25.129 7.136 25.6516 7.04 26.2596 7.04C26.665 7.04 27.0276 7.072 27.3476 7.136C27.6783 7.2 27.9716 7.29067 28.2276 7.408C28.4943 7.51467 28.7183 7.63733 28.8996 7.776L29.0756 8.88C28.841 8.72 28.5263 8.58667 28.1316 8.48C27.737 8.36267 27.3103 8.304 26.8516 8.304C26.2436 8.304 25.7796 8.41067 25.4596 8.624C25.1503 8.83733 24.9956 9.15733 24.9956 9.584C24.9956 9.904 25.0863 10.1653 25.2676 10.368C25.449 10.56 25.673 10.704 25.9396 10.8C26.217 10.8853 26.505 10.928 26.8036 10.928C27.433 10.928 27.897 10.8853 28.1956 10.8C28.4943 10.7147 28.6436 10.5173 28.6436 10.208V6.848C28.6436 6.28267 28.473 5.872 28.1316 5.616C27.7903 5.34933 27.305 5.216 26.6756 5.216C26.2276 5.216 25.7636 5.29067 25.2836 5.44C24.8036 5.57867 24.409 5.776 24.0996 6.032V4.464C24.3983 4.26133 24.8303 4.10133 25.3956 3.984C25.9716 3.856 26.5636 3.792 27.1716 3.792C27.4703 3.792 27.769 3.824 28.0676 3.888C28.377 3.94133 28.665 4.032 28.9316 4.16C29.1983 4.27733 29.433 4.44267 29.6356 4.656C29.849 4.85867 30.0143 5.10933 30.1316 5.408C30.249 5.70667 30.3076 6.05867 30.3076 6.464V10.304C30.3076 10.8267 30.1423 11.232 29.8116 11.52C29.4916 11.7973 29.0543 11.984 28.4996 12.08C27.945 12.1867 27.3156 12.24 26.6116 12.24ZM33.9804 7.344L37.2604 3.968H39.3244L34.7004 8.368L33.9804 7.344ZM34.3324 12H32.6684V0.927999H34.3484L34.3324 12ZM35.0844 6.8L39.7244 12H37.5644L33.9004 7.92L35.0844 6.8ZM43.6915 12.24C43.1155 12.24 42.6248 12.176 42.2195 12.048C41.8248 11.9307 41.4355 11.7813 41.0515 11.6V10.016C41.3288 10.1867 41.6008 10.3413 41.8675 10.48C42.1342 10.608 42.4115 10.7093 42.6995 10.784C42.9982 10.8587 43.3288 10.896 43.6915 10.896C44.1502 10.896 44.5075 10.8 44.7635 10.608C45.0302 10.416 45.1635 10.176 45.1635 9.888C45.1635 9.64267 45.0782 9.45067 44.9075 9.312C44.7475 9.17333 44.5395 9.056 44.2835 8.96C44.0275 8.864 43.7608 8.768 43.4835 8.672C43.1955 8.59733 42.9075 8.512 42.6195 8.416C42.3315 8.30933 42.0648 8.17067 41.8195 8C41.5848 7.81867 41.3928 7.58933 41.2435 7.312C41.1048 7.03467 41.0355 6.69333 41.0355 6.288C41.0355 5.84 41.1262 5.46133 41.3075 5.152C41.4888 4.832 41.7235 4.576 42.0115 4.384C42.3102 4.18133 42.6355 4.03733 42.9875 3.952C43.3502 3.856 43.7022 3.808 44.0435 3.808C44.6088 3.81867 45.0675 3.888 45.4195 4.016C45.7822 4.144 46.1342 4.29867 46.4755 4.48L46.4915 5.92C46.1075 5.71733 45.7448 5.54133 45.4035 5.392C45.0622 5.24267 44.6675 5.168 44.2195 5.168C43.8035 5.168 43.4568 5.248 43.1795 5.408C42.9022 5.55733 42.7635 5.78133 42.7635 6.08C42.7635 6.336 42.8382 6.53867 42.9875 6.688C43.1475 6.83733 43.3502 6.95467 43.5955 7.04C43.8515 7.12533 44.1235 7.21067 44.4115 7.296C44.6782 7.38133 44.9555 7.472 45.2435 7.568C45.5315 7.65333 45.7982 7.78133 46.0435 7.952C46.2888 8.12267 46.4862 8.34667 46.6355 8.624C46.7955 8.90133 46.8755 9.264 46.8755 9.712C46.8648 10.3093 46.7048 10.7947 46.3955 11.168C46.0968 11.5413 45.7022 11.8133 45.2115 11.984C44.7208 12.1547 44.2142 12.24 43.6915 12.24Z" fill="black"/>
</svg>
